<mxfile host="app.diagrams.net" modified="2022-06-22T12:10:46.409Z" agent="5.0 (Windows)" etag="gBOeWyVhvBN45qOYH7pJ" version="20.0.1" type="github">
  <diagram id="L2SxP7yn_AzsTuyc3Tmh" name="Page-1">
    <mxGraphModel dx="3160" dy="1733" grid="1" gridSize="10" guides="1" tooltips="1" connect="1" arrows="1" fold="1" page="1" pageScale="1" pageWidth="1169" pageHeight="1654" math="0" shadow="0">
      <root>
        <mxCell id="0" />
        <mxCell id="1" parent="0" />
        <mxCell id="X8rtFN3A78l9VNLj1SrO-81" style="edgeStyle=orthogonalEdgeStyle;rounded=1;orthogonalLoop=1;jettySize=auto;html=1;exitX=1;exitY=0.5;exitDx=0;exitDy=0;entryX=0;entryY=0.5;entryDx=0;entryDy=0;strokeWidth=4;fillColor=#d5e8d4;strokeColor=#82b366;" edge="1" parent="1" source="X8rtFN3A78l9VNLj1SrO-3" target="X8rtFN3A78l9VNLj1SrO-11">
          <mxGeometry relative="1" as="geometry" />
        </mxCell>
        <mxCell id="X8rtFN3A78l9VNLj1SrO-3" value="" style="shape=image;verticalLabelPosition=bottom;labelBackgroundColor=default;verticalAlign=top;aspect=fixed;imageAspect=0;image=data:image/png,iVBORw0KGgoAAAANSUhEUgAAAEwAAAByCAYAAAD55zf2AAAbJUlEQVR4nO2dd3yUZdaw75lJQxQpKZT0Say7rPsirisK4iclDdR1P13FBQQEkgmI6PKur+u6a/1WkJIOCCEdBFJIpiSCAmkTlCZdBEFpAul9yvX+8TxpEEggkwT1u3+/k5lMeeaca8597nPXEfz/ckNF9LYC1ypms4ny8jLOnz/PTz/9RHV1dW+rBNxiwA58s5e4uGjCQmcTMHE8ox55iBEjHuDBB0cwevRo/vTsU7z5P4tIT9/I2bM/9oqOvQfMKt2YzSbS09N57rln8VN74ux8Jy4u/Rk61BUP9yF4ekri7u7G4CGDGOR8J86u/Rn+u/sIC5tDfsGOHlW7Vz2sID+fpyYH4+oyADfXgfj4DMPPz6tDUft54ek1lEHOdzLU3ZVp018iPn4NRcWFNNTXd6vOvQZsyceL8fQYhqvrQNRqz06Bak98fT1wGzKIQS534u4xmCeeGM3atau7Te8eB9ZQX48mLJQB/fvj5eV+06DaEx9fD4YMc6H/gNuZPfsVamtr5U+12kz/HgVmtVqZPz+c/nf27ZJXdeh1ak/69budN954w+Y29CiwhIQEBg7sh9rXo2tQ1D74+Xlf39t83Bk82JntX26zqQ09BqyyooJRox5h6FAXG3iRN35+3qj9vVD7X/t1Ls79mTVzqk3t6DFgWm02bm6DulwV/f3c8ffzwM/PB19fLzy8huHn74N/O6/19BzCAw/cz4UL521mR48B+/ubixjkfGdb49U+NwjLi7vUXvj5+aJWe3OPrxejRgzHx3so/u1UUV+1B+4eQ8jPz7eZHT0CzGIxMykkkCFDnK+IRWr8/Tzx8/PEV+2Dt48n3j4eqNXtA7tL7YW/nyc+/v44D+jHW6EvYNwUg7+HC76+EtDWnqZWe+LmOojPPvvMZrb0CLALF84zYsTv8PQc0mKMnzvqu7zw9vFisNsAPDzdue9eP4bf7Ymvz7B2g7raT423nxeDBg5i6lNPUrE7DY7pmPPiZFxcnK/2MrUXbs79Wb0y1ma29AiwAwcO4O/vg4+Pe6vq5YO7+2Du9vHg7+F/IS/lYw5rV3Lqi3jefX0WLq6u+Pv54OfnI8Pyxt3TE7dBdzBvSghluzdSvzcF07717M2J4x5/Tzy9r2h91Z64DfoZAisuKsTLcyi+vlLAV/v74D50KCN/482X65fBcR2mAxmY9qTBwY18a1jN7+9XM3DgQFxc3HB2HYyLywD+6/67Wfn+AuoObqZudxrlxiSqjPFYj+l49/UZOLsOxM/PW45zXvj7ejHYeSBJiQk2s6VHgO3Yvg33YW7NwDx9vPD3GcL21E/gWA71ReuoKk6kwphChTGZhn2bOKiNZdnbc/n3vL/w8Rsvs27x3zmSl4DlSBZVXyVRblxPWUkKVcYE6vekcnpnCg8/cBfunp6SZ6p98ffxZqibM1ptts1s6RFgX36xFXf3wfj6euDn742L6yDef/1lOGagujiRSmMSFcZkKozJVBqTqCpeh2VPCtajWzAfzYbDm+FQJg27U6kpiqfCmEq5MZXykhQqSpKpMsbDkSxW/DOcga6DUfv5cbevF2pvD/zV7uzbu9tmtvQIsKIiIx5eHqh9PfD29uD396n5/osEGvesbwbVIjK8klQqS1KoNCZRaUyipngdNcXxVBmTmj2xNeSGr1M4k5/GoyN+g7f7UO5Se+DhOZSRfxhJaWlZK2261q/sEWAH9xRxl89g1D4euLm68NrLz8DhLKqKEykrSWsHWotUFyfI91NleO29LoVKYyIc1fLhG6/g4joIX38v3Ia48exTwUBDG30s3Dy2bgUmKWXmhz0GHhnujbuXN0MGu5EZ8w4c3ER5SbJUra4D7EppXX2bpSSFamMCpn0bKcmM4261J95qb1xd+vP+q1Og7srR2Zv3su4H1nCJqv0ZPDPuIQYNcee39/pySL+Kxj1plJd0HtT1ISZTVZxArTGByn1ZPD3hMdyGujHUczDb4v8Np3YCjVjp+kBPNwKTVLNUnoNDG/nn/Ck49etP4OMjufzVJmp2JbbvLV0ClwhHsvhg4TT63tmPsY8/QllxMnXfZGG1NrTS6uZLtwKzAubqi1gObGJrwv+j34ABTH8uBMs3m6gxrrM5sApjCtZDm9gY9Q/69OnL4jdD4eAmyvbrm4F1tXR70Leaa6jZl0F1SSqPPvhb5k19Bg5uptx4Y7GrM1JuTMX0TTrbkxdzr58Xx3QradiVRM3RbYDZJvZ0MzApalSdKMC8fwNx783nH5oXsRzJakkfbCzmPWnkp33Ch4tewXogg6r8eExn98otY9eHqntmtKL2IpW7kzm3YzUF6z+hbncalcbEbgFWW5LIme0JXMhPkvK2PRlYTZU0Arbwsh4BZgUaLn1L1VdpNHyVSnVx93hXeUkqVcWJ1JUkUFOSTFlJKg1lJwEp97LFZEiPAJO+VwvlR7dTVmj71rFtS5lEVXECZUXJNJw7LGvwc5o1srbcqTtdQllhQrfBava0okTKv96E2VQle1ajzczpsSppBRovH6WsKLHbAn4zsMJ4ar/9gpYw/3PysFbFUl9Oxa4NVBR1s5cVrKH2zN5usaFnZ76tJqoP5VFZsJbK4qtHHWwSw4oTqCxJxlRzoVtM6NmZb6Dh/BGq8tdQU5xIhTHV9sAK1lB9OA9bJapXlh4EJsUTa30ZFV9v6p5qWZxERXESjaUnus2KHgXWVGpP76K0MN5GoFIoL0mRhooK46k+8jlgsmGYb1t6ZbmTtbGK6r0ZVHQRWtNYWmVJImXGeC6VrMdUdUZOJbqn9Nr6MFPp91QUp1BVtO6mgn+5MZmykmSqjeuoKV5DZeEa6s/tB5orf7fo3TseJkv9uUNUFqyjuihe7lt2Pj8rL0mmsiSBquK1lBYmUv99EWBuHuW1RUe7vdJLHmZtvm08d4gqYwrlhWuoMCZQUdK5dKO8JJnKgrWUF6VQ88NeoAEzYMXCLy6GgYSsKdZYKn+g/GAupcY0qppHMVJayZXAkrhsTKJsfw6mSy0tonQ9c6sr2770+rLzZnDWWioPb6WiIF6eGWoBVnkFvMqCeCoP5WE1VTVfo6dKrwODFn+oPl7A5R2fUlqYSFlREmVFSZQXJ1NenNz8/+WiJC7uXEvNd0agZ2HBLQKsqYNc++2XlOVLQby0MJHSgoRW96Xby4VJlO6Mo/67fHkUtXsy+muVHgZmoXV8aTuSYKb66BeUFyZQUZzcAuoKKStcR/mOOKpPfiW/09Sj0HoBWEslktKLlgSg5th2ygvXNcer8qKkNt52uTCJy4XJlO5YQ92pXfI1LEjjXVd+Ed1TerxKtm4dAUxW6X9zTRl1+7MkD2sK9iWpUsCXY1hFUSLlxSlU5q+l4cROzGZTh75la3g9OoDY8kAt508e4KBxO4110i612vNHKc1PpKo4kXJjCuXG1KtayipjCpUlKdQUreFyyXrqqy8DUHHpDJfPnexQB1uUHvMwc2MtZ4/voTBjDes/ms/yOYHszdeDVTbFaqLsSD5lBeuoLEmirCT1ilxMkipjIqUFa6k4WUJTJ6i6/BIpy/7BphVvcrhIS03ZuTaf3TYIdGUpik2Btdd/s3Dxx28p3LKOpPdCWREayNLpo1k69RES3nwBS2N1m3eY68oo3bWZ2sLV8kTJFfmXMYnK/E8pPWDAaqkDpCoNcKhIz4fPP8iyl0cTt+glDPEfc/KbQiymmlbaNP29+eTWBsDamyKt58TeAtKj/kVkeAhLpo8mYtZYYkOfJC5sAitmjSXlQw1Wq+kqtet+OsblwqSrktcqYyJVhQmUGdMwVf8kv7rlc08f3cey2eOJDR3PijkTWP7yYyybPZHk98L4Om891RUta/Vb0pEb9zQbADO3MfrE/gLSPl7I8pnjWfbyGKJDxxGjCSRaE0S0JogYTSBLZ4xl47K/A61TCwtYpRBedbyI8oJ4eTmB5F3VxQlcLEih4eLxK94n3fvxu0MsmxtETNhEYjQBxGkmEhM2keWznmDx9DHE/e15jNpE6mqkxXU323nqIrCWpKC67Ce0qz9k2awnWTbjcWJDJ0qgwgObgUVpgojSBLNsxhhyVr3f5ipNBpz78QSN9RVU7U2ntmA1FcZUKkqSKc9fS9WpvTTUVWCxNDa/swnYhdPHiNIEERM6nhhNADGawDYSOftJlkwfTfxbUzlapLtpi7sEzCoH7NIfjxL/1jSWTH2UmNAJzZBiwgKvUjxaE8TyaY+wNWXFVdf7Zkcmi2eO58vPVmGu/JGKkvVUFqdQUZhI/ZFcKi+eYu274WxevRiLxSTpIAO7dOYE0eGTiA6dSJQm+KrPlSSAFbPGsuzlR8mL/w8NdbVX6dBR6XKVrC47T/w/prN8+qPEyopFycBi2wEWqwlg6fTH2JkR3+Y6hbo0lsz8P0TOeoIl00aTn76S2tNFVBSuo3a/lgtHC1j9zlxWTPsji6c9SuaqjzCbWnbflv/0A7GvPk3U3ACiNCHXABZIjCaI6LAJLJ06gs+W/Y362oqeAdYULnfpUlny14dZqZlwHSVbYEVqQlg8fQy7cjc0X2vbhpUsmT6GyNCJRIcHETXnCTYsCuKILoKGg9mcKdpE7JvTWDpjDCs1E4kNm8jH00aTHv1PTA1SHldV/hOrXn+eqDnjOtQjIvxp4sICWfrSg+QmL21lVMdpRxc9zMzm5f/N8hljmgP69WBFawJZoZnMsumjOPr1dqxWK9mf/odlU/9ATOg4osKDidYEsSw0hKy3n8O4bCa7173Fp4ueY+mscawKG9cqPgWwZNoo0pe9QWN9HWZTHav/+yWiZj/ZgR4TidOMJyJ8MtFzJrAqfDKVP51uZVM3AqsuPcuq1/9M1JxxHQJrlrAAouaO52jJVrJXfsAnUx9hZVgTrECiNMFEzglA+/bzfBM9m5x/Pc/y2eOICr+6msVqAlgy9RE2LP8H1aVnWPduGBEdAGuCHRkeTMS8ED55eSz7t25uRtVR6RKwY199wdKZT1zVKkXLci2F4+aFEL/oz0TMHEtUeCDL5z1FjGZic4yJmj0B7TsvsCd6Drr3XyIydCIxmiBiw9rGxYjwScRoAlkxfRQbPpjDurf+SuTcCZ3WQ0pxnmBL5JuApfuBbU2L4pPpY4i9AlhUeCCR867XUgayPGw8cWGBrAoNkhuIIGLDpPuRcwLI/teL7I6aje79KUTPnUBkeBDRYcEygABiNQHEhkm5XawmgKVzAogIC7pKj6jw9hufphY7cs5EVr/xLDWVLclwtwCzmOtJ/VBDxCtPXF1Vwlqk+RsOu7r1jA6XvSA8kIh5wUSGB0tBf24g+nf+wp7YOeg/eJHIsAnEhE8mYv5TRM4LIVYTSGx4INHzg4iYH9R83Su9KVYTSFwrr4yWH2t5XRAxYQEse+Vxvtu7s1N23zSwSz8eIUITQlTohBZvagWnybMiwwOJ1IQQowkmJjyY6HmTiF4QQsQbk4h4YzIxCycT+fokol8LIXpBMKvDg4gIG4/23Snsjw5D/++/EDd7IqtCJePjNEHEzgsi9tUg4hYEE7dgEjGvTSL69UlEL5xM9GuTiHptEtGvBhPZCmZkeCAr5gURMU/SLVYTwKrQACLDJ7Hk5VHs3LSye4A1OezhQi2fzHiCmLAAWSGpekSFB0mKLghh5YLJrHrtKWIWPs3KecGsmzWO+L+OJeG5x0gOHknq4w+w6cH72Djcjw33ebHRbxiZ7m6kD3Nmi4crW4e5oR3sTOaggWx0GUCG8wCyXQaR4+ZChqcr69VD2HS3F+uHq0l96C6Sxgxn/fiRJDz7GGunPM6nM8cTFx5M7GuTiF04meiFk4haMImI+SFEhUs9j2jNJFbMeJxNnyyyPTBrq8CYu+4/LJ82mhhNECsWBLPy1RDiXptM7IJJxIQGED9lNAkhI9kw6j4+u9+Lz7wGkzHoDnKcnNArHNgiVOiFghwh0AkleULJ50KBTijJFUoMwo5MoZT/t8MgVOQKFQahIkeoMMiv2yqUfCGU5ApBtlCgF3Z8LhzJdHJiyx13kO3qRrqfN2kj/Uma8ACJz41mzcwJxL4aTOzCyUS9PpkITQArF02huuLcde2/BrBrBz1z862ZhMUaVmjG8akmhJUzniRp0kOkPnwPG9XubBkwEIOdEzqhRCsU6ISCPKEiT9iTo1SiVdqRK+zJUziQp3BAL1pEp7AnTziQK/qSZXcbeqUDBtH2NU1iEA7olA7olY7kKpzIVTiiVTqgVdijE/bkChV5QolBKOUvR0GOnT3Zt9/OZg83Ukf4kTphBGteHE3EnCDOntzfeWDN3Vg527Vep5E9f9hIwlN/JGmkD+nurmT16YtOqMgVCrYIJZ8LOwzCHr2ixViDcECncMCgsEOrskOvlIzVKdqHoReO5Cocyb3m8zJg4YBW4YBW6Yhe6USuwqn5cw3CgRyVJC3vsccg7MgTKvRCiV7YkatyJGNgX7Y9PZnvEtKoPHrsKuub3KiVh1nAKvFqz8fKjh/hu9hYip99gdzB3uQIBduEgu1CiU7YsVVInpGncECvlG6vDUOSXOF43eebQHf0mmZROKBTOMq3LY/pr6OHTumAQdiTJ1RkCcFmIdD3HUjh6NEc+Ne7XC40YqmtB6sUjoRETyJlAupaQao6dpjDUVHsfDKAjDsGkCkEOUKgFUr0CkcMspfkqK4wTNGkyA0Y2w1iEA7kdvq1TugVTugU9uiFEq0QZAqBVgi23DecHwoLsTYDs7bM7NWeP8v3a+MpCHyG3DsGskkIdEKgFwoMwl66oMIRg3CUoChk6WU4toSsVTqgU/bBoOiDVgg23d6P8lPfta6SVkyY2f/P98ge5kWmEGTJoAxKJXqF/XW/Qa2y9w3tFlE4sEUIimbNaAn6FsAsRXv2zZ8nuaFSiVbpQK7CCZ3SSYoLva18r3ibinSh5IdteS3ArFYzjVapTaw49R26Ae58LgRalapNK/drFK0Q6Ic/gKmxZa9lc9C3yE1jQeg8coQgT6kk5xYI3L0pGUKw9/2WuYcr0gqpXNq9iyzH29ELBTrlr7MqSqIks8/tXD525NrArNLKNoqf+RNbhECntMfQiVzplyjZQvBlcMhVOWmbTN8sP3tmq45soUSnUJKjcpQSzA6S0F+SGIQd6ULwbWrylRXwCmBImb7JWseXj43FIAR6lao539LdAsb0hOiEINvdi9ry0msDa4JmkaP/0aQk0oWSLxVKslW/rqqZJQTG8PCrYF0FrHVpqKrAcM8D6IRAq3JA/ysBZhAq0hV2nC1s/xjAdoFZ5a76sY8/YosQaFV2v5r0QisEuQ89jFmeWe8UsKbgX33hBz53c0erENIQicKxeZimtw3rHrEnQwi+WbpEcpxOe5iV5kR238KF5Mh9Sq3SHkMHwyU/b1GQeccAyk+dbNe7rgmstZeVHjrA5n6ubBdKclSqZi/rfeNsL1uEYMezf76md10XWOtSOGW6NA6msvvFdsSbcq8TGZu7AEwefb2wcyvZSge0SsUv1rt0QqD19ae+uvK6SK4LzCLHMjMmip6cSI4Q5Kjs0SmcyBVOv6jgnykEXy3623W9q0NgVmtLinF6cxrZQkGuQkGOyoFc0Qe9wqnXDbWFGISSdDtHLuz+SgbWhdU7Td0lc201OSMeYqsQGFQqtAqnX0z2nyMEn49+HEsntqXe0ETu4ZgoMoVAr1BK01q3gLFd9y570oXgUGwM0PEank4DswL1F8+x1d1XmhT5xYzjK8ga6ErluTOynTZYvWOhZQPB4bffRiunGFK1/HnHsS1CkP/XqZ2C1WlgzUM/QMXJI+jvdCZXCHJUdhgUThjk2ebeNv5GRZrkUHBKr5Xt7HhJXaerpBlrc/Zf+MpscoRgq1JJjtKR3J+pl2mFQHfvb2is7/yv09zU+rALXxeT7tCXPKEgR+nIz3XoJ1MI9rzztoyqc5u2bhyY7LXFwZOlpUqq3jf8ZsQglGQ43Malg9/IwDq3q/cG14eBWd79cdaQjV4o0crVUi+cflbdpmwh2DZ+YvOu4M7uPrphDzMjdZdM5np2PDxKGv+2U6FTOpEn+vQ6iM55l5R7HV0XLztC5/eM3zCw1inG8fi1ZAjBdoWSHJW91F26BYB0JDoh2DLYnZrLTSunuxFY69JQWUrOPb+VlkvaSZ3y3obRGckSgqLZc4DOB/uuA5M/48hHH5EtJ7K9DaJz1VFaYPLj9i9kM9ofu7c5sCYnrj5/im0u7uiUCnKUDuhv8U65VggMvx+BydR4hSXdDMxCy/72fQtelcfKVGhVTcH/1oSWIQT7PvoIuLltzDcJTD6TpGnc/8BeMvoOYLu8TMqg6NOp9atdF8cbGjI3CAWZfftRevyYbMWNVccuAGuNTSpfvjBF6mqoVGiVXQ/+OoUjOSrH647qapVOaJV9pIlmpX2H/dlsIdg++SlZ987nXjYD1rqc/2IrW5T2aBUKtB0oLq2vtydb5YjuGp7YtEhXr7RDJ25DL25DL1otHVU4oFNJS0bzhAO5CntpyOkaiwCbJjmOb0gDwIKJXjlVoOl7MlsbKRw7vnlpgU4hLyBu13tuw6Dog0FpT55wRCdU0vvkVdpZQpAhr7HNliVDfjxLXt2cLT+fKwQGoUIvVGSr7NAq7dEqHTHIC5ebYqlOCHI8faitkH+yx3pzBxzZBFhT8D+5MY0tQpAr7NArbiNP4Yhe6SiPzkobCgwylPTWcJS3ox8whG0+d7F95B8penIiO//0f9n30ky+nqFh99w5HJg9h73TZ/DV89PJD57MzsfGsP3e4RjchpF52+2kCwUZrZaK64Rgq1CSK+wxCGnca9eCV2WdLS2TFT0LTCLVlPqZaivZ9tvfycr2RatylHeHSB6xWQiybnNm229GUPj8FI688wGnN6Rx0VhM9YnTNFSWYTa1nEx+PR8wYaahtpza82ep2L+Xs/ocjq+IoGRuOPmPPU6eixfpQkWmDDFTKDlXUihpfZOwwEbA2njZ8ijS5W85Swgy7OzZ+sBI9s6dz/eJiZQdOoKprv3f4paOe2x79etFmWuZbQHqz/7AOb2Bw+++y47HRqEPCMFs7frvNtj0sCIrUHvhHDr1/ez8/R848t5/uFhSjKmh5prvMVubTl01AebrVpWWdk0+vsZqwWw1dxi7zZioLyuVagE3fyoK2BiYxWqhEag6eYLG2raHaFitdJD13MSJS9aWw0auV5raQ4vV2smd3dcuNj3dyUojFlkfs/RQ66e79+i4TpeuKWE7YPJJc41WaT+lLX9W4lYqtj9wTd5CeGt4k+3L/wKBP69Mk4CVHQAAAABJRU5ErkJggg==;" vertex="1" parent="1">
          <mxGeometry x="740" y="870" width="76" height="114" as="geometry" />
        </mxCell>
        <mxCell id="X8rtFN3A78l9VNLj1SrO-88" value="" style="edgeStyle=orthogonalEdgeStyle;rounded=1;orthogonalLoop=1;jettySize=auto;html=1;strokeWidth=4;entryX=0.5;entryY=1;entryDx=0;entryDy=0;fillColor=#fff2cc;strokeColor=#d6b656;" edge="1" parent="1" source="X8rtFN3A78l9VNLj1SrO-11" target="X8rtFN3A78l9VNLj1SrO-72">
          <mxGeometry relative="1" as="geometry">
            <mxPoint x="958.21" y="775.0000000000005" as="targetPoint" />
          </mxGeometry>
        </mxCell>
        <mxCell id="X8rtFN3A78l9VNLj1SrO-11" value="" style="shape=image;verticalLabelPosition=bottom;labelBackgroundColor=default;verticalAlign=top;aspect=fixed;imageAspect=0;image=data:image/png,iVBORw0KGgoAAAANSUhEUgAAAEcAAAByCAYAAAABB8wBAAAgAElEQVR4nO2dd1xUV/bAHzC9MXRmQIolaywUUSkzYNdVY5rpZdPb2kWZMZto2iZxTWKy2Wx6ohQ7MDMMEFs0RpGi0cQaNSYae6WDAvP9/TEDgmLBGvPb+/ncDzNz79x3zvede9575547CPyvnLcIN1qAtpeG63akPwAcB06FHeft0bK1AajnekC6gXAaoVzeN1vCPD/YKynXDY6D5kq1hHLs6BFWL8/j6/ffYtroZxjz4AieGjGAp0cMZOz9tzNtzNN8OfMt1iy1c/Tw762M3MDFrO9yynW3nOZYCpct4eVnHmN4t4701IqIlAtEKgSi1AIxGnd6aQR6qAQiFALd5QI9tGKGdA3H/NyjrFqSh8PhHK0eB46bAc6liLdmWR5PDx9AjFZMpFwgzkeCIdCLhAANsb4qYr08idV409tLRk9/CfGBahJ1nhh1KmL95ESpBHp7evDE8H58vzT/zLEdbZiqlyDo1YPjuPgxTxw/xkujn6SH1p0olUBCoIrePjIilGKiNVL6BGu4vbsXDyb48WiSjvuMfgyP8CEpREuMp5hopTu9vLUY9UqSdFIiNQLRWhEvj36ck0ePAtBAXRtFPr/EV39anedYWzeu5+74bnQXCxj8VfTQSonSiLg7JpC3xnRmcVocP68ewrGf+1O15w5qDwyg4vdhHN0xkJ8L+7E43cC/xnXl3l56oj0lRHkqMeq1GALldJEJ3BEbxdYfis8Rofnr4u9X8PX7b/Plu2+x+ts86htqLyTy5cP5bddOvvpgOlP//ggzksewwm7BQT0ADWdZUdHKpfTt4EuMSiDBT0GkSsbj/QPJm92Tsl//CtUDobIfnDDAESMc6I/jQAKOw/FwJAmO94XygVA1hIq9A1mcHsdTA0OJVnkQ5yehj96HaJVA33B/Clcub8LicEmwe/sWXrhnKD18xHSXC3STC0R5SXh6SH82lxSeV8dLhuNwzWWHw8Hn77xB3xAvustczlImEKn24PmRwzn4266mbwD8WLwaY5gPPb0EenjLSWjnSdp7Pak78leo7o/jsJHT+4zU7etLw6FYOJQIR/rA0X5wPJGGw0k0HDBQt68Pp/cn0nCoH1QNou74ABZ8GEf/UG+iPaUkBSvp7SmQEOrHhsKCJrk3Fq5m4C3tiJAJJAbKSNQrMeqVGHQKomQCiXpP1q5YdqVwnMq+nTKRLmKBeF8xiXpPEvUakvQqEnUquskE7urRid93OwEd3L+PoVG3EK0RiNQqGdrNl43f9oPaATgOxVO3LwmODIDKgVA5mFOHhnBiV3/2/ziI39YPYN+P/Sn7ZQiOY4OgOgkq+tNwpA+n9xlpOJQAtQPYtnYoI3sFEqWW0S9ISbRGYHBkB0qPH+H3X3fTt1MwPTUCSUFKjHpVs6rEGORFjEpgRM9bKT954vLhAKxZupxIlQeJ/lIMQRoS9UrXmVCRqNOSFKSmu1zgscFJlB49RPLj9xEhE+jtpWXorX7sKhkE1X2o39sXTvSFiqH8vqkv2V9E8srzHfjbQB0jIvwY1ElLv3ANgzp5cWe0jmeGhfD2hFtZOjeW478MgOpBcCyJut8NUDmAA9tGMLJnID00KpKC1URqBMbddxvPDB9IlFqgzzlgVCTqVRj0Wox6NREKAfu8tCuDY3r6EaIVAkl6FQa9+qyDqUnUe2IMUhHrLeehvnEY9Z7EBSjo7e9Fka0v1PSFwwlQ3Y8da/sz7fkODLjFiwilnAilmBitjN4+SuL8VMT7q4n1V9PLT0YPrYwIpYRorZgRXXW8PzmCfZuGQM0AGg4kQqWBHWv60ydUS6y/kqRgDb28xPTyFpMYpD4HzJmqxhikJlou8MbE0ZcPp7a6knviutPLy+O8B0tyAUvUq+npJcIQqKW7xoO3x3eBmoFQ2peaAyN439wVg05Jd7mCWD+NU8jzCJ+oV5Co15Co12LQq+jlIydC5sbAcF9S3+1B/fE74agRqoeQ9k4M3VUS13hqjHrFBcA4xzcEK4hRCUx46J62w3G4LjmHD+5hUOd2xPpKWjVRYyvWFBegJDHUi19LBsCp/hzcOoAnB+npKlYQ56fEGHQhwV1n1uVAnePLMejVJOoDiPWVc6vMnfH3t6f8t6FQ3peqvX9lZC8dvb2VGPVeGPXyc/3M2XCC1ESpBcbfd8dlwHH93b97F/06+hPn3xJOos6LRL2KhGA58UGeLawgWi1l/L3tofY2Du8YwL2xerrJJK6rhUtQndpZXRaXEKDEoDszvkGnxKhrrpAGY7AMY5AnBp2aLjJ3nhkcTNlv/aFhEB+/3IMIpdTV15MkvZZYHwndlQK9vN1JauXERqgFUh6/t+1wGsvBvXsZ0klHvF/LaZWk12AIkBKhEuihdCfJX9lk1hFKMbPfjoT6Oxl9ZyjdpTISg+UkBCrpG+Ld1C8xSIMxSENCgJIhf9EzuGMAhsAz4xh0TnBOmF4Yg9QYdGqMOg3GIDVdJTImP9AeTg+jJLc3PX20GHTOKRXvL+d+QxSvThjNg31600vr3mTpRr0KY5CKSIXAW6axLYyhTXBOnjjGiIi/EO8jajLPRL2aeF8pfYN9mDb6OaY8+yj9O/qSECjDqNcQpRGxYlFf8r5OJFImJVGnwhCoYMgteh7v24vePjJGdA9jQHtfjDoVMV5umB++jft7dyHOT06cn5QnB8QxuJPOBUvVZBEGvYL4AIkLmhfdFCLyv47jxM6B9A3xJN7f2bebQuDzGa8DUHr8CPclRhGjbXmCI+QC6f9+D2j5ZHbJcOpqa3gwKY5ezQfWqejhKcKa9lVTv1EjhxGj9sCgV9DTW87CzwbySB+988qh96SHxgPzQ8N42NCdGK2IpwfGM7hjIIZABfEBUjLff5mR0e2J95MTrXHjX2Mf4ZmBvenpJWo6bk9vCS8MMzL69gR6aN1IDPKkp1bJg3E+/PJDf4Z19nb6NL2KKLXAuAfubpLPMvtzIlVuGF3T2qBT0MNTzMp8WzNtHW2DAzD63hFEqwUMQU5n1tPTnceG9Glqr62u5p64HsRqZRj1niQE+PLE4A4kttNg0HkS56fi9q4hfPHSKOIDpcQFSDE9OJxBHfzp5S3mnugwtuZ+zdDOfsT7KYhQuvPVS8/xn/GPE6EUMOicPihC6cYH4x7hp6z/0MtLRIJOgVGvJtZXzZfT4xjR3Yd4f+e0ivVy597eXamurAJg97afSAzWEh8gc007GUntvNi9fdM5+rYJzhsT/k6kQnD6Gp2WSLnAJ2+90tR+cM8uBnTSuwTTOKedv4yEQBXxARq6KwU+m/IsUx8aQmexQLSnG9OeGkmMj4hgQeD1x4dxZPU84gIVdFMKdBQEvnzxCdakzaCrXCDGS0SMj4QOIoG0qc/Bvm+ZcLuRKLUHxiAl8QFK7ogOpW97NUa9jIQgFUY/GYM7BnBg768AlJ84yoio9sT6eGAIUhHrLWJkXDdqqiuuDM5XM98mQiFg1KvpE+g0+6XWzKb2XZs2ktjOeeNn1GtIDNIQ66egt6+MhEA198R0pHDeu9zePZR7Yv6C6d6+2D+ayutP3cGM0fezKWsmpUVzyHl/CraZJizvprDZNpMTxXNY+cWrLP/sFZZ98gr5/3mJ3xZ/Sd3PVormTCdS5U43uUCkWiBaI8Oo15KkV2IIUmEIkJHYzpudW38E4HRNDfcao+jt5U58sIZotcCEB+9sVd82wclfNIdojRsGnSeJAWJ6+8nYULS2qX37j+sx6D2JD5CRqNfSy0+OQadkwZvj2GH/L3sWf8GhVV/zs/0jyornUfeTlVMbsnBss8HPVmo2zKe8JA22ZsHWbBxbrVRvWEBF8RwaNmfj2JyJY3MmbMmmZt18yotTqdw4n0VvTuSdZ+/ljafv5MHYLkRp3EgM0pCo1xCvk5IQ5Mm2H9cD0NBwmr8NMBCjdSMhSE20TOD9lyZfOZz1368gzleCIVBDgr+UPmE+/Pbz9qb2HVs2YAz2wRAgJ97lYJd9Ng125FG/cT61P8ynomQutRsWUFkyh8rCDCoK0ykvTqWsOJWyojmUFWdQVpRGWVE6ZUUZLWpFURrlzT8rTqWsOA3H5hzYlgu77Bxak8bzg3sQ6elOot6b+AApxhANu7Y2+hQHz90xhJ5qgfhgJVEKgQVff9TYdPlwdmzaSJJejcFfQZyvjNsiO1B67GBT+/49uxjYUY/BT0E3jcD0Z++AnXktFWqhXDqlJamUFp8LovU6h7Kiuc3ep7s+m+N6PYuGTYs4WjCPuyJD6eUjI85PRv9bAjmwd1eTnFOefZieMgGjXkmUpxtLc7KawF02nF3bNmFspyUhQEaMRuCZYUk0OM6EJWuqKrindxd6aSXEBsopmT+D+k1ZF1H4UsFcCFh6E6jywgzYZSHj1b8TrRKI8xJxV1xUC4f7xcy3iJILJAYq6eHpxqoWl/G2wDmzpsJPJWvoGaDEGCinm1zg3WlTzuk+5t4hdJMK/LWzjt+/nU3N+vlXqPzFajplxWlN78uL5nJq03w2LppJkk5NlEJg3IMtn5s2Fq6mp48UY4CCSJWAZdYnTaq2DQ5n7hoz/vsBEWo3DAFyYnwlbChujLidGfbjt6bSWSTw187+7Pt2FqfWzbvGcM61pJofFrJ78acMae9PV4nAZ/96vYWUdadP8bfBifRQCsR4evDcXYNpbdXignAaGs58Yev6YoZ3v4U4XyndJQLjH73zrAGdh96wdjU9vSXEBUjYmPkO9T8tpKxwznUFdHrjQrZY/k2CXkOMr4yNa9eco9uapblEazyI8/Ig1tOdlCceoPDbZWzeUEJlZfnF4Rw9cpgZ08w8ObwvCUFaYlRudJMJDO0Wzt6d286yGeerulOneLhvHB3dBL548VHYZaO88PqBKS3OgG02bO9MorNI4OFBCdSdPt1MSgcNLlkXfPkxCe286SYTCBUEYrzVzHz1JaoqKy4OB2BD4Xc8e/dg+nfwZVDHQMY/eDe/7djWSs8zzmnOpx/SSSRwe5d2HF49m/qfFlJaeKWO98K1oiidiqJUqtZlcHqzlecG9aSDm8CCLz486yTS4v3u7T+S/sm/Sf/kA7ZtKG7R55KvVscP7OXw/jPr1K0viDnfl508zoiYTnT2EJhwu4HKHxZQu/HaAqoomk1tSSrsXkraa3+ni0jgrp5dqSg9cV5JL7boeRE49dS3urx6vmHPmGx22qfO9W2VO08MiOHQ97OoWn+tnHM6lSVzqNqQSdoro4j1l9NFImBLT72I+lcEp3kGw6UWl001NDDhgbuIkAjcKhOwzpwE26zXDI5ji5Xpz99DV6lAF5HAxEfuxtFw7gWjLeUSp9XlZS8c2reHYZG30MlN4B8PD6Zhm/2qgykvTKd6fQaHvk9l+K2B3CoWuK3HrRzev+8sDRqa1t4utVzzFJSfiguI03vTp52GfSu/ovqHqzy1CtOo356D9YN/0NlDICncny0bGpd4rywl5brk5xR+t4woPw2fpTwG23OuKpzSdRnUbLbwSFwneuu8Wbd6JdDoCP7gcBrF+6FwDaNGDmXvss+pWud8eCwvyqCiMO2K4Dg2Z2F5exTDo/7Clo3rr6rs1zWz6+Dve/h51UKqilKdT+rFc6gounw4FcUZHFs9m9SZ/+TQ/v1XXd7rCKcxL6Waih9zKC2YRVnRHCou46m8tBHO2llU7Pnhmkl8neG4cvjKD3CieAGlhWltg1OcRlnxbMqK0zm5+iuqd37HmfyPq59Rep0TJuuaVDh9ZDtlhWlUrJ1FafFcLh7XmUtFUTqVRamUrk6jeus3OOqrnbgdVz9ZEq47HGdydVPo4Mg2ThbNdT5WFJ8PijPSV1E4l+qCdE6uSaVi+7dQV3bNLKax3LAk7cZJdvrkHirWzaO8MM1lQWeANK/lRRmUFqdTuacEGk5dQyRnyg1N72888xWb8yld83XrUIqd9WTBbMq2r+D/zd4HB9DgqKViUy7HVs/iREEaJwvSOLk2ndLCDMoKMygtzHB+9t1nlO84N2h1LcsN3xji4DQVW/I5vmYWx11wTjSrxwvSOV6QwcnvPqdix6rrKtt1hdOqn3CconxTHuUFX3OyMIMTBakt4DgBZXB81ddU7lx9KSNetXIN4Thw7kpoaPbe0eqTcfnmfMoLZlFePIfSwnRKC9M5uTa9GaB0jn0/i+pfvm8RpLrWTvkawXHQQD31OFybNs6NCjlO19BQvo+aAxspW59JmesZq7y4pUNu9D1lBWlU/rychprjNH+sbAnIeb9ztaBdNThnBK3HQd25e1gaaqivPEzNwW3U7Pyeih8WUFqcxom1qS4w6efc2zTFbIoyqCjMoLQojZPrFlKx7Vtq92+kvvIQOOqbHb8xEll/9tEvq1wBnOZnqMGV2l/v2rnS2KWeuvJ91PxaQPmmPE6uy+DE2s8oLZhF6drZlBWlUVmUSkVR6llgWlsInENZUSqlRbMoLZxF+ZqvOFk8n7Kt+VQfXEdD1SFoJajrwOHK+rxmkcBzy5nIWj1QdybtFHDUllJ/eDenti+nsngBVQXzqCxMpapoNhWFCygrXEjTmnexcznFeaOXTnlRGhVFX1PRynJOeXGqsxZlUL52ERWFs6gs+JyyNbOoKM6gatsyTh/7BerPLMU00ABUux4xrhMcFyGan5GTpcWsK3mM7/INFOcPY/vyJ/ht1UscLJjO8cKPnGd+XToV6+ZRtX4+1cUWakqyqC7JparERnWJhep1C6kuzqG6ZCFVJZlUliyiqiST6uKFVJdkUV2STU2RhVMlC6hel0ltcQ61xdnUrJtLddFcyovnU7bVTuXBjdSdPtZM1LZPtavic+rqStm8aTI5Vi8yFwpYsgSyMwUsme7YsgXyLDLyrEEssYezIq8Lq/PjKVgyhB+WDOWn5fewecUTbPv2OXZ893d2fjeBX1al8OvqKfy2eip7Vr/E3tWvsXf16+xZM41f15j47fsX+WXVZHatmsCO755ny8qn2LjiSdYvu4+SxQNYnRPDEksYS77pys4d03E4yml5Gq8TnMrKXaxYaWDRQoEci4DdJsZuVWG3yrDbJNhtYnKsMiw2d6xWAavFWS0WgexsgaxsN7ItApYsN7Kz3LFmeWDLdseaLcGa7YEtywNbtgybRYLNIiYnS47NIiI7W4Q1S4w1y4PsbIHsLOd42dlu2LIFbFYBa5ZA5nyB776Ppay0+OLKXDmcM3P3VO0eli2LJHORgN0qx25VuMAosNtE2C0y7Bal63OZ66+rn0WJ3arEbpOQb5GQny0lxybFbpW6+krJsUqxWRXYcjzIyfHAZpOTY5OTY5U09TvzHZVzbJsIu1VFjk2G3SYl1yole4GAzabn4CH7tYZzmgbXprNfd76DZa5AnqURjJJci5I8iwS7VUKuRU6uRe4C4qo2MXabFLtVQa5LOZtNgc2mwG51KtOyv4hcmwe5FrWrXXROu90mIdeiINcqJcclR2N7jlVGrlWKLVPAluNNWdn5N59dORxHo3OrpWDNUCyZArYcKTk2SZNyFruYnBwxuVYp1hxFk6C5Vik5NjF2m5g8m4ScHBE2m7zJUnKtMuyN7y2u79mcY2TnKMixiclvOhGNgBTkWpR8Y/Eg1+o8Zq5V1qxdRo5VyTcWMZkLBErWPXgN4bhKTdV28uwh2LJl2K1KcqwK8qwy8q1yFufIWGmTs9IuYXmekuV5SlbkKliep2JJnpoVOZ4syVWzLEfBErsnS3M05NtVLMlVsDhXyTK7mmV5Glbky1mep2ZFrpxl34hYli9maa6KxTkyFltF5Fmk5FoUWHPkZNslWHKULp8naQZGitWmINcqJsfigT03mNraPdcGTuOt37598/gm050VdjnLv1Hwbb6cvFwNVquMOYu8+Gi+LzPSVbz6uSemj5U8/5GKR//tyaPvaLhjhifDZqgZOl3FsDdVDHlTzZA3NYx4U8nIN1WM/JeGh97T8NT7KsZ8qCTlUxVTZ3kxM82bL+Z7Mj9LySKbN4tzVSzPk7EiX8JKm5KlNiXfWEXk2BRYrQryLBJyXFPWOV09yMoWcejAomsDp7FsKHmOT+YIzJjlw6T/anjwfRVD3lQSP1VG5xdlhJtFBE8So0uWE5Asx3+iDN9kMT6TJfgmS9FN8sB/khz/SRICJ4nQJYsITJbgO0mO32Qxuoki/CbKCZgoxi9ZTPBEMcGTpHRIkdD1RSXx01Tc9qaKv72vwfSphulp/ny9SE2eVc6SXC9W5kpZZpfzjU1GvkXimn5yMjMFNm4YdXXhHCz/nVU/L+WjZdN5PvUeer6hpaNZTGiyCP9kMQETxeiTRegnSwhOkRCe4k54ipRgs5IOKSI6pYhpbxLTabKEDpPFhJkkLWp7k5gQs5Qws5hOKR6Ep8gIM0kJM4kIM0kIT/Gg3RQPgqZ4EJwiJTTZncBJEgImSgicKCFospSuZgm9XvfknhkaJn2i5p05vszPVpCfp2JFvoJldgX2LIGl33anwVF2AW0vsvfhZM0x1vy8nHfzX+GBz4YQ9aoeXbKA1xgB7wkCQZOkhKUoCDWLaZ8idSlyRtlwk4Qws1PpDilSQs0yQs1i5+et1FCTE0y4SUy46dzxQk1S2k2REm52p4PJecxQs9TVJqF9ioiQFCm6SRp0E93wS5YTMllO1EtSbntLzuj/apk51xNrppxvv/HEUbutOQfOPNE3Poc5WsI5VHqArPVzGT3vMeLe6EjQRHc8xwn4jhMISnYnNEVCmFnqrCYJYaZzLaBFNTe+ll643yXW9q6xQk3yVscMN0lpb3YnzCwh1CwhxCxGnyIjMFmCfrw77VIkxL6k4t53pcwteJXj1UdaNxoXMAFg/4l9PPPlA3Sd6o/nOAGvsQK6ZIEQsxvtG8+kWUrIFBGh5osAuYb1fFbXZF1mMSFmiWtKSgg3iQgzS2g3RUm7KQraTRERPEmF7yQR+nESer8Wwvj0v5Hz00JOVjbbOt3QDM6JqmNETNPjNU4g1OxB6BQRYWYp4SbnVLiRQK4UZgeTcyo7p6uIcBfEUJMY/UQB77ECAeMEEt4IZ2rmKAp+XkFdw2kXHJcJzch9Gd/nBadppshd8/7GK3g1ALV3wWmtvd0UGWEpUnTJArJnBG57M4HTp0+1dMhbDv1ImFmJ3iTccIWuZ+0wWUoHkwfBL4rxGSUwe9XHTbOrmUN28Oint+E97v8XnDCThDCzBJ8UgbjXQimtOtkaHMhcn47vGIFQk8eNF/i6VTGhZhleowVm2Ke2uHC1gHOy5jhxr3UgIPn/l/UETXanq9mH347uPj8cgKnZE/AcLRB2k16h2mo1YSYZXmMEJqU/eTaKc+Gs37OWkIlSgk3ufwDhr10NT5ESbpKgn+JB6HgxJbvXXhxOA/WM/LAfPuP//FMr1CzBc6LAQ/8d2OpSYKvPVqkFn+A9WiDULLrhCly7KibEJCNwjDv2Da2HMFqFc7hiP9FT9egm/bmtx3+CwKC3oqmuq7l0OACT5z2LdsyfFY6YMJMc71ECny+beT4E54ezeucy9OM9aPcnc8ztXY7YP8WNnv/Qc6jsUNvhnGqoZdg7vfGd8GezHjGhUyRoxgpMyxx/XjAXhAPw8YoZaEcLN+1T+flqUIqETsmebDtw7o97XDKcPSd20WWKD/rJbjdcoatZvccKvPDF/RcEc1E4AC/Mfgjt2D/L1BLRziQlaKyEVduWXjmcxVusBIx1I+QmfxhtnyIlzCzBK1ng7veMnHYlPV0RnKrTFfR7qxv+E2926xHTbooY77ECcwu/upjalwYHYEb+NLSjBS4aUP+D14CJHiS91pmy2tKrB2f7oU10TFETlHJzO2bv0QLv579xSWAuGQ7AY5/fjtdNGCV0xsLF6CeL6W725/cTv159ONk/ZOA7RrjpHHN7k4SQKSI04wRS5jx9yWDaBKe05jjxr9+MUUIxerM7ocli1u+59NycNsEBeMUy8aaMEvqMFXjs49vaBKbNcDb8XkhosuymihKGmMToxrrxzU+WawungXru/U//myJKGJ4iIcwsxm+CB8Omx1Jb33rM5qrBAUhf++lNESVsbxIT/KIY7ViBr777T5vBXBacI5UH6DE1iMCbIEoYMEkgdlo7jlQdvT5w4OaIEoaaJHiNEvin5cXLAnPZcNbsWk7QeNEfOEooJWiyO7emaNl1uLVfibqGcE43nGL4e3F/yChh+xQJoVPEeI0RGDPrscsGc9lwAD5Z+a4zSmhqo2O+5HukxnFlbRo/3CRGN8WDoIkerNm58sbA2XvyF7q+6HtJUcLGxKEws8dF837CU2SuTDKxM+evjVfFULMMn/EC9/27n2tL3A2AAzAq9eHzOubGbKpQs5gOJqkr6q8gtDFbzCQixFVDXbWd2Y0wk4hQk4IQs4oQs5Iwk6wF0FCz1JlceT44JjH+owQyS+ZcEZjLhtO4cLp0q80VJWzpmNu74ASZRAROFvCdKKAd78pEHSfgM1bAf4yAboxA4AQB/XgPdBMEAscJ+I8V8BsjEDDKmZvoPV7Ab6KAfpJAuxR3Z+bo+aaaWYzvJIGB/4ym8tSFUmmvIZzGUl1XSf+3I/BLFgg1uRM8ScBvvIB2nIB2okBYipTYV4O47b1Ynv3qfqYtmsAHS98gbc2nLCqZQ87G+SzZYmH5FguLt2SRvyGL+cVf8eV3H/Ju7uuY5v+dxz+7jcHv9CDq5WBCk6X4jHXm8flPEAieLBDSlHYroUOKFO1YgQ+XT79iMFcEp9F6ZiyeitvTAvqxApEvBzLyo368YplA5rrZ/LRnPYcrDnPKcen/kKu1UlNfyf7SvRTvXkNqwSe8uOAF7pxpoMsULb4uawxMFtAlu9H9ZR37y87+v3uXV64AjgMc8Mvhbfxj3mjsGxfye+ke2rIfzpnyW09jcnSLTAfnbzmc97sNnOKXw9tYUJjOmPSHiX+1A7JnBSYveuFyVTqnXNG0arET+Oy2S/gNRzGbhS4AAABUSURBVGeP8//2jYO6Fm0X2jF+ouIQ9pJ5/Hpk5wWP2ZZyVTfdXwqQq1matthfxs7fSylXDOec6XBdy037WxY3f/kfnAuU/8G5QPkfnAuU/8G5QPk/TC4a3AmStkwAAAAASUVORK5CYII=;" vertex="1" parent="1">
          <mxGeometry x="922.7099999999999" y="870" width="71" height="114" as="geometry" />
        </mxCell>
        <mxCell id="X8rtFN3A78l9VNLj1SrO-16" value="" style="shape=image;verticalLabelPosition=bottom;labelBackgroundColor=default;verticalAlign=top;aspect=fixed;imageAspect=0;image=data:image/png,iVBORw0KGgoAAAANSUhEUgAAADQAAAAqCAYAAAD8pHgAAAACdklEQVRoge2Zsc6iQBSFb0/UQCgpBAWnlmhBomLJIxBtfABNrCisDVS+gY9jZ2XlQ0iCsTHR5Gyl2X+Bf2HHWXcNJznNzVzu/TIJcwcIgpQkCY7HY6aTJBFVFiTqwa7rgogy7bquqLLigCzLgizL2Gw2XyzLMizLElVWHFC73YZpmqm4aZpot9uiyooDMk0ThmGk4oZhZIK+ShVQUX0cEGMMuq6n4rqugzEmqiwf0G63QxRFWK/XKcuyjFarlcpptVqQZTkzJ4oi7HY7npb4gEajUe5ZQ0QYj8epnPF4/G3OaDTiaYkPaDgcQpIk7Pd7HA6HlOM4TuXEcZy5dr/fQ5IkDIdDnpb4gAaDAer1OlcDP6ter2MwGHA9gxuoVqvher1yNQEA1+sVtVrt/UAftUOO44CI4Ps+ptMpJpPJ07PZDNvtNpWz3W4xm82+rJ1Op/B9H0QEx3F4WuIDms/naDQauW+svHMob32j0cB8Pudpif9gPZ1OmTYMI/ccMgwjN49XQq8PeaPPf3l9+LhZrgJ6kSqgoqqAXqQKqKgqoBepAiqqCuhFEjqc5k3b//RwervdMv3YoV/jjx3Ky3sL0OVywWq1ev5hyPLj0lY0/nCn08FqtcLlcvk7QOfzGbZtP2+krutm2vM8eJ5XOP7w40Zr2zbO57N4oCAIQEQIw7B0saIKwxBEhCAISueWBmo2m9A0rXShstI0LfObxO9UCuh+v0NRFPT7/dKFyqrf70NRFNzv91J5pYFUVUWv1ytV5E/U6/Wgqqp4IEVRQERgjKHT6QgxYwxEJH6HAGC5XKLb7YIxJtTdbheLxaJse+ImhXfp44B+ACww7zKRYavuAAAAAElFTkSuQmCC;" vertex="1" parent="1">
          <mxGeometry x="360.27000000000015" y="1057" width="45.81" height="37" as="geometry" />
        </mxCell>
        <mxCell id="X8rtFN3A78l9VNLj1SrO-17" value="" style="shape=image;verticalLabelPosition=bottom;labelBackgroundColor=default;verticalAlign=top;aspect=fixed;imageAspect=0;image=data:image/png,iVBORw0KGgoAAAANSUhEUgAAAEwAAABMCAYAAADHl1ErAAANZElEQVR4nO2be1CU1RvHDyxiIJYSZKQiDkQapCYIlDEDcgliqcSEShqKEV1GBDUMAqJG0AkVLwRYjaThJLfhMoqwAl6aGJIoBGK4hXKTCFyUAFlYYr+/P/b3HvdlF9iVFXBmvzNnhjnvuTznM2fPec5zDgRqKSUy2wY8aVIDU1JqYEpKDUxJqYEpKTUwJaUGpqTUwJSUGpiSUgNTUmpgSkoNTEmpgSkpNTAlpRSw7u5uVFRUgM/no7CwEIWFheDz+XLT5cuXaSoqKkJRURH4fD4yMzPR3t4u03Z/fz+qq6tx8eJFZGRkICcnB2VlZfjnn39UNlhVaEpgXV1dOHnyJJycnKCvrw9CyLQSj8eDQCCg7fP5fPj5+WHFihXgcDgy5RcvXgxnZ2ckJyejt7f3scJQRBMCGx0dRVxcHIyMjKYNiUmJiYm0/dLSUjg6OipVf+XKlTh16tSMgJlIcoG1trbCwcFBZaAIIfj2229p+3FxcZg3b94jt/XOO++wZulMSgZYXV0dVq5cqVJYoaGhtP19+/appM0NGzagq6trRmEB44D19PTA3NxcpbDWr18PkUgEAIiNjVVp2/b29hgaGpo9YF5eXiodkIaGBq5evQoAuH79OjQ0NFTa/vjZO6PA8vLyVD4YZ2dnAJINZP369SpvnxACDoeDysrKmQdma2ur8sFkZGQAALKyslj5jo6OKC8vxy+//ILk5GQEBgbCysoKOjo6j9TPhx9+OHPA6urqUFdXp3JYzz77LO7duwcAeOutt1jfpN0LadXX1yMxMRFOTk5yfbKJkp6eHjo6OmYGWEJCAhISElQOzNXVFYBkI3nmmWdY30xNTZGQkIArV66gubkZYrFYxrDKykqEhITAwMBAof7OnTs3M8C8vb3h7e2tcmD79u0DAJSUlExaTkdHB2vXrgWPx0NeXh76+vpYBt65cwcREREy0MenPXv2zAwwCwsLWFhYqBzYiRMnAACnT59Wqp6xsTGCg4Pxxx9/sAxtbGzEBx98MGG9t99+e2aAGRkZqfT4w6SUlBQAwPHjx2neSy+9hMjISMTExCAyMhL+/v6ws7OTe0blcDjYvHkzSktLWQanpaVh6dKlMuUdHBxmBpixsTGMjY1VDuy7774DAHzzzTc079dff5VrREdHB9LS0uDt7Y0FCxaw2tHU1IS/vz9aW1tp+dbWVri6urLKMS7MYwe2ceNGbNy4UeXADh48CABIT0+neXv37p1yN2toaMDevXtl1iwjIyP8+OOPtNzo6Ch27dpFv/v6+j5WUIxIcHAwgoODVQ7Mz88PAFBdXc3y8PX19eHr64vi4uJJDauvr8fWrVtl2g0ICMDg4CAtd+DAARBCEBMT8zg5UZHc3Fzk5uaqHNiaNWsgFoshEolgZmYmt4yrqys9Ok2ks2fPYvHixax69vb2rJl6+PBh/Pbbb4+bFQCA9Pb2ore3F08//bRKgXE4HPz5558Apo5QBAQE0HCNWCxGW1sb/vrrL2pkbW0t1qxZw6pjbm6O+vp6AEBvby9ycnJmBhjzB4/HU/ks++KLLwBI1iVtbe1Jy65evRplZWUAAKFQiPPnz+OHH36ghvb09MDZ2ZlVx8TEBM3NzThy5Ag0NTVx6dKlmQPW1tY2pXOobFq6dCl1RENCQqYsr6enh+zsbGpcVFQUduzYgbGxMQDA4OAgXFxcWHXeffdd+Pj4gBACAwMD1swcr56eHvj5+SE8PBxCoXB6wAAgJSVF5bPsyy+/BAD09fVh9erVCv2Us7KyqE1eXl5wc3OjMbWBgQG6q3M4HFy/fh1dXV1Yvnw5Xd/+++8/uYNNTEyk/VRUVEwfGACEhoaqFJiuri6qqqoAADU1NQqdDZ966inqsA4NDWH58uVwc3PD6OgoAMnFjK2tLeLj46ndJSUl9MCekJAgd7B1dXWwtrYGl8vF/fv3VQMMAD777DOVQrO0tKQ3PuXl5VixYsWUdYyNjekVW0VFBQgh2LZtG/15ZmZm0lnHaPfu3SCEwNDQcMLrOXkH/WkDA4DU1FS5R5BHTZs2baLrWUtLCzw9Paess2XLFmpPWFgYCCFISkpCWFgYtLS0cPToUZbNd+/exZIlS0AIwf79+ycd+NDQELZv3w5HR0c0NjZOHxgAdHZ2IiIiQqEZoUh65ZVXUFNTQ9tPT0+HnZ3dpHWYM2ljYyPi4uJw+/ZtbN++HYRIIh11dXUsmw8fPgxCCBYtWjTpJUltbS3t49ChQzS/vb0dV69epTOZUXl5uSSupwjVvr4+5OXlITw8HFwuF3Z2drC1tYWNjQ0rbdiwgZWsra1psrKywqpVq+Dp6Yna2lpW+2VlZTh48CA2b94Ma2trWFpa4tVXX4WrqyuSk5MRExMDc3Nz5OfnA5DslswG4u7uzmrr3r17eP7550HIw+OZPI2NjSEoKAju7u64desWAODff//FqlWrQAhBXFwcq/x7770nAawIMFVqdHR0yi19/C7HHN3s7OzoGlRYWEhnyHj/6/PPPwchBGZmZqy+BAIBPDw84OjoiDt37sj029fXR3fbr776ivXt0qVLWLdu3ZPxGKWjowN6enoghKC8vJzmc7lcGZAA21G+ePEizS8uLqaQpSO03d3drLrZ2dkYHh6WsUMsFj8ZwABgy5YtIIR9rXbjxg1oamqCEILCwkJWeTc3NxBC8P7779O8gYEB8Hg8fPTRR+jp6YFYLMbOnTthaGiI48ePK2THEwMsLS0NhEiOUNLuBAPGw8ODVf7s2bMgRBIduXv3rtw2x8bG6E+Qy+UqZMecAzY4OIjz58/Tgzujrq4uLFy4EIQQ3Lx5k+ZfuHABhBDMmzePtWNKl5c+OYzXtWvXEBYWhsbGRjx48AAff/wxNm3ahKamJrnlZw3YwMCA3PyIiAgQIgkY9vf3s74xr32SkpJo3sjICH3eEB0dzSrPrHH+/v4AAJFIhIaGBlRXV+P27dsyfVdVVdE1TvoUIa1ZAXblyhWYmZnBy8sLDx48YH07evQoCCFYu3atzLeoqCgQIhtdjY6OBiEEL7/8Mj0+AQ/PjmZmZoiNjYWlpSUFMn/+fFhZWSEhIYH+xIVCIXbt2gUul4uWlha5ts8KMGbbJ4SwYvWMysrKWDsXo5ycHBBCYGFhwXIsq6qq6OIvfW9QU1MDLS0tGWd4fKjpk08+Udj2WQHW0dGBHTt24NSpU3TgIyMjKCkpYZ0B+/v7UVxcTA/KjY2N0NDQwIIFC1jPPsViMX27ERUVRfNFIhFMTExAiOQyJTQ0FJWVlWhubkZpaSkCAwOhq6uLrVu3Kmz7nFn0mbXL2toaIyMjAABfX18QInlABzyMXBBCZK7fmFlra2vL8sliYmLw4osvIjc3V26/TU1NrDsCoVCIn3/+GVlZWSgoKJB5jztngDFhJUtLS+o0MscRNzc3Ws7e3l7G8QQk6yKzNo1ff8afCydSZmYma50jhGDhwoXw8vLC77//DmAOARMKhbhw4QLa2tpoXm9vL/Ly8ljrGXP7HRsby6p///59PPfccyCEIC0tjfWtu7sbX3/9Nd58803Y2NjA09MT8fHxrL5OnjxJIWlpacHU1BSGhoY0T0dHBxkZGXMHmKLav38/CCEIDAyU+ebu7g5CCIKDg2leTk4OXnjhBbmREAMDAyQlJYHP59M8JjgwPDwMgUCAjIwMOuu0tbVnH1hnZycOHDgAHx8fODk5wcXFBX5+fjhy5IjM+woAOHbsGAghchdq5o7ytddeAyA5MDO7p4GBAXbv3o1jx44hJCSEroXMjCKE4I033mC5JYwEAsHDWyvVI1BOkZGRk8bDnJycUFRURMunpqaCEPlPA/Lz80EIwbJly3Dz5k0aALWzs5NxVAUCAT799FNWXxM9ZQCkXmiqbuiPpurqagQFBSE+Ph4//fQTzp07h0OHDsHDw4P1IjE8PBwAcPnyZRBCYGNjI9NWS0sL5s+fD21tbUko5v8nhs7Ozgn7P3PmDHR1dVkbizwNDw9LQuDTG+7jVVNTE3bu3MmCduPGDblePSAZFBMAZNL3339Pv/f394PH48Hf35/1XyXMrioQCJCcnAwej4egoCCkpKTIONBzClhHRwcaGhpk8k+fPk3fZ3h4eEBDQwOmpqZyY1YeHh4UlomJCetZekFBAf2WmZnJqpefn49ly5bJLAlGRkY4c+YMLTdngN26dQtLliyBrq4url27JvNd+tkUIZJ/o5H3Rn/Pnj20DPMKklF3dzdcXFzg4ODAirgWFBTQhd/AwADbtm2Dj48PdVOk/b45A6yyspIal56eLreM9AvE8bOHkfRlLZ/Pn7Lfnp4eujm8/vrrLKe3s7OTxtsWLVqE9vb2uQMMkMS2UlNT5W7tgGQAzGtFU1NTuXcD2dnZ1FVQ5F9rmF1aX19f7ts1gUBAgQYHB88tYIqIGaCJiYnMRS4ggWpjY4OAgACF2ouOjgaHw5G5JZLWiRMnqFP7xAH7+++/sW7dOpY3Px2NjIygpqZm0htxkUiEnJwctLa2PnnAANlruJnUEwlsNqUGpqTUwJSUGpiSUgNTUmpgSkoNTEmpgSkpNTAlpQampP4HF9qlKc4yRpsAAAAASUVORK5CYII=;" vertex="1" parent="1">
          <mxGeometry x="179.0800000000001" y="1048" width="56" height="56" as="geometry" />
        </mxCell>
        <mxCell id="X8rtFN3A78l9VNLj1SrO-22" value="Infektiologische Meldesysteme und das Fachgebiet 32 des Robert Koch-Institus" style="text;html=1;strokeColor=none;fillColor=none;align=center;verticalAlign=middle;whiteSpace=wrap;fontSize=43;" vertex="1" parent="1">
          <mxGeometry x="50" y="40" width="1070" height="100" as="geometry" />
        </mxCell>
        <mxCell id="X8rtFN3A78l9VNLj1SrO-23" value="Das Fachgebiet 32 organisiert Meldesysteme und liefert Informationen für die Gefahrenabwehr, die Prävention und die Wissenschaft" style="text;html=1;strokeColor=none;fillColor=none;align=left;verticalAlign=middle;whiteSpace=wrap;fontSize=14;" vertex="1" parent="1">
          <mxGeometry x="40" y="190" width="1010" height="30" as="geometry" />
        </mxCell>
        <mxCell id="X8rtFN3A78l9VNLj1SrO-18" value="" style="shape=image;verticalLabelPosition=bottom;labelBackgroundColor=default;verticalAlign=top;aspect=fixed;imageAspect=0;image=data:image/png,iVBORw0KGgoAAAANSUhEUgAAADsAAAAwCAYAAACv4gJwAAAFeElEQVRoge2ZS2xMbxjGnxmXEiIYLUNompKIWyUiYSQWEmJhqFJ3sSAW4i4pZdNIlCDRbixIVEJiQRMSiYqSGaIiUUrdJumERkw1RUtk3M7M77/4p4cq7TlnZqrBs5rOnPf5nt/0+773zHfEXyT97gBdqX+wyZRhGIRCoTbvhUIhPn/+nOqh2ynlsIcOHUISe/bsafN3YWGhba+WlhYikYjjLCmHraiowOVyIYlZs2YhCUmcPXvWskdTUxNr1qxh4MCBuN1ucnJyOHPmjO0sXbJmKysrSUtLQxJut5vy8nLLtZFIhPHjx5u1GRkZ5hd2+vRpWzm6BPbo0aO43W4z5IEDByzVRSIRxo0bhyR8Ph/hcJhoNEppaSmS8Hq9RKNRyzlsw4bDYRobGy1fX1ZWZkJu2rSJ3r17I4kjR450WNfQ0GCCzpgxg/fv37f5fOLEiUiipqbGchbLsKFQCJ/PhyT69evHzp07LdWdPHmSUaNGcerUKQAuXLhAZmYmJSUlv6xpaGgwp67P52sHCpCVlYUknjx5YhXBGuyXL1/IyclBEsOHD6dXr15I4vjx45YG+bHNdNR2Xr161Snohg0bkMTkyZMxDMNSBrAIW1tbiySys7OB//87kpg9e7blgayosbGRCRMmIInp06fz7t27dtds3rwZSfTt25fbt2/b8rcE++zZMyQxZMgQrl27xu7du5FEfn6+rcE60/r1680W1RFonz59uHr1qm1/y2t27dq15kYjCZfLRVVVle0BO9K0adOQxPnz59t9tmXLloRAwQasYRgUFxczc+ZMcnNzCQQCjgbsSCUlJfTo0YP09HRu3bplvr9161YkkZaWRmVlpWP/bvVD4OvXr4wcORJJDBgwgEAgwK5du0zQK1euJOTfbWANwyA3NxdJ9OzZs82SSQYodBNYwzCYP38+khgxYgQ1NTXs27eP0aNH4/P5CAaDSRknIdjm5mYCgQAPHz507GEYBgsWLDB7+Pc3CfF4PJF47eQY9vLly3i9XnOqrVu3jlgsZssjFouZU/dH0FTIEezbt2/xeDxm8299fezYMcseXQ0KDmGDwSCSmDp1KgDnzp1DEnl5eZbqY7EYCxcuNH+5PH782EkM23IEGwqFkITH4+HEiRMsWrQISWzbtq3T2h9BHz165CSCIzlesxs3bmzTHrxeL8+fP++wJhaLkZeXhySGDRvWpaCQ4G5cVlbG6tWrKSgooL6+vsNr4/F4QqDBYJDy8nJevHjhOG+X9Nl4PG5O9aFDh9pqVR8/fjQ3stY7KzvHOt8r5bDxeJzFixeboLW1tbbqDx8+jCSysrLw+/0m8OvXr21nSSns96AZGRm2QQHmzZuHJC5dugTAlClTkMSNGzdse6UUNj8/PyFQgB07diCJuXPnsn//fvr374/L5ep0j/iZUga7ZMkSE/TBgweOfV6+fEl2dnabnb+oqMiRV0pgW0HT09O5f/9+wn5NTU0cPHiQ7du3c/HiRcc+SYddunRpUkGTqaTCLlu2zDyrsnOe21VKGmx3B4UkwS5fvtwEvXfvnq3aQCBAYWEhHz58AKCuro6CggLq6uqSEa2NEoZtBfV4PLZB4duMmDNnDjdv3iQzMxNJlJaWJhqtnRKCXbFihQl69+5dRx7hcJhJkya1aS1+v/+n58aJyjHsypUrEwZt1fXr182nfIMGDaK5uTkhv1/JEWwr6ODBg6murk4owNOnTxk7dqz5/LX1scqbN28S8v2ZbMFGo1FWrVqVNFD4dgPi9/uprq5mzJgx3WPNVlRUmFPtzp07SQlQVVXF3r17+fTpEwD19fUUFRV1ehDgRLZgW1paKC4uTniN/i51i0PyrtI/2D9V/2D/VP1VsP8B1Y8V6d+0fMwAAAAASUVORK5CYII=;" vertex="1" parent="1">
          <mxGeometry x="161.87" y="870" width="59" height="48" as="geometry" />
        </mxCell>
        <mxCell id="X8rtFN3A78l9VNLj1SrO-69" value="" style="group" vertex="1" connectable="0" parent="1">
          <mxGeometry x="80" y="300" width="450" height="176" as="geometry" />
        </mxCell>
        <mxCell id="X8rtFN3A78l9VNLj1SrO-65" value="" style="rounded=1;whiteSpace=wrap;html=1;fillColor=none;" vertex="1" parent="X8rtFN3A78l9VNLj1SrO-69">
          <mxGeometry width="450" height="176" as="geometry" />
        </mxCell>
        <mxCell id="X8rtFN3A78l9VNLj1SrO-5" value="" style="shape=image;verticalLabelPosition=bottom;labelBackgroundColor=default;verticalAlign=top;aspect=fixed;imageAspect=0;image=data:image/png,iVBORw0KGgoAAAANSUhEUgAAAEkAAAByCAYAAAAfzvyyAAAba0lEQVR4nO2deXhb1bXo+e77boFQMuB5tmM5JJbseJLkIXPICCGUmaSFhnDhXQptb4FShkLL115obygBSmiAJJbH2BmcCRIgtnQ0HA2ep4xkHsjg2LI8xrb0e39InhInjmMpJty3/C1blo501vqdtdfZZ+99lm7h/8ugcstIGwDQ3t5KQ0MDFy7UYW24QFtry0ib1E9GBNLx48fYuDGfN9/8A0uWPsqcebNIm5JCaqqSaVNTmTt3NkueeJw333ydDRvyOHnixEiY2SM3FJLZbOLXL/6KybFS/Py88PYeg5+/F4FBvgSH+BMS4k9wsB+BQb6u18fi53cXMbJJ/PY3L1JSUnwjze2RGwLp3PmzvPzyfxEeHoS39xhCwwKQSEKRSMIG1cjIUELDAvHyGk14eDBvvfU6zc22G2F2j3gcUmVVOTNmTuGuu+4kIiIYSVQYkqiQawLUV6OiwgkPD2LcuJ/y4M8W8f3pU542vUc8Cqmk2ELs5Gh8/cYNGcqVIyuMu7xGc/+i+7A2WD1pfo94DNKRw4dITIrDz9+LqKjwYYGJkoQRKQlnfJ/nxo27k9/97jeeMr+feARSR8dFHn/sYby9RyMZJiCJJIwJkSFESUIYH9X9XDgREcEEBPjwzTc7PeFCP/EIpPR1a/D2HkNk5LUl56s2r6gIwiSRBIYEMF4SygRJGJFR4URGheHvN46HHryfzs5OT7jRI26HVF9fR1qagqAgX7fkoIjIICZEBjN/ZhoR4UGEhQc6k78kDMn4QMJCfBENOne70U/cDkmVvhYfn7HXfIq/mo6XhOPlNYZXlz1MS20huR++zqSoUMLCAomShCGJCsPHewx/evtN584d7vbGKW6F1NXVyYMPLsbf3+u6E3T34/CIELy9vHjy4QWct+TTWb4RvttJ7odvEhrsS4QklMioMAIDfbh34Tw62i+605V+4lZIe2qrmBAVQXh40AAQwpFIIgaFND4yEv8AX0KC/XjjhZ9TV76JzooMmo1ZNFnW07FnB888fi/eAf5EuvYljZ7IoYPfudOVfuJWSBnp6fj6DNwnipIEM0ESgkTiTLpRlzTHsPBQfP18CfH35ZEFU9mleo+OvdtoL1lPk0mF1ZxHozkbajawa927BIcEERE5Hsn4YEKCA1AXqd3pSj9xK6RXXn7JlY+c+SQkLIjQsCDCx4cSLgklMjKYyMgQIsaHEBYeTGBwED5+Pvj5eRMfPYHnHlvI9tXv0FS+ma7aAmzmbGymbKyWHKyWbJrMmbSXZHPGuJ6ZKXGEhAYzYXwI/n7e5ObludOVfuI+SA4Hjz76kCsfhRIWHoI8QYY8dgKR40MJCQ8lNDSA8LAgoiQRxMfJuG92Ki8te4isFa+yZ1c6F6u3QM0mWi1Z2MxZNJqzL1dLDl01W/n1k4sJ9PcmKjKMAJ+xfPrpKre5cqm4DVJbawtz5swkKMgfv6BAXn/+Cc6K2RzanY5x/Qq+WfceO9f+N99m/A3zxg85/O3n2Cy5OGoKoLaA9rI8msyZ2MxZWM25AwNyKbVb+eiPz+Pv50WkJAJf77G8//4Kd7lymbgNUkP9edJS5IQG+xEQ6M/2Ne/C/i20leXTWbkJe9Vm7NUF2Ks30lmZT3tZDi3FWdQX52G9CpABIdUUkL/qLYICfIgaH46Pz12sWPGDhuTsnJw7fw6lPIGQED+Cg3zY+MnbOGq30mheT6Op28Eclzr/bzKraDJnDAlQoykHe9UmCrP+RlRIECGhodx2x+2seP8f/exxpwwTkoNuo87XNxAXJ2P0uDvxDwxkw4dvQO3mS+DkDOD4FXLPFdRqycNemUvJ5o+IDA0jVhrFojlp5OekuyyyDxPJ5eIGSE5paTzLZ//zBr9e9hD+Af5s+OgNqN3Yx8ErQRqiWrLpqsjGsnkVybETEfNW0FFdgG3vtzi6WvsgcuCuqBp2c3OaYqf5WAldNVtg35c8ct8scv/xMo6aTcOHconazJm0l69HzF/JJ3/+Dezbhq04i0ZjOu3HjIAdO9143BNV1w2p7zHqar1AQ8lGmo3roGYzH/zxBXasfpvOqo1uB2SzZNBStp6KLz+j+svVtJflYTXn0GhMx1qSj73tQp8YGvFI6nIpdJz7jgZjFk2mDC5WbWbTp+9gzl9Je3m+myFl0WjOoqk4l5PCOs7r02mydDfhLKzGTDrP1boFTF8ZBiQH3eF88fQerKKKJlMmLeUb0eet5PA3n9Ncsr6Pc+5sds7Ops3SP8c1iBm0nap0YzZyilv6SR1n99JoSKfZlElrSQ7f7VzFWX0GNksONnMWTeZMt+emgcBZxXTaTte4w6V+4hZInbZTNJpyaDauxWrJocHUfTbL7ulFexKQ1ZxDkymTZmM6nfVH3OFSP3ELJIe9g8bqr2kSv8BqycZqyaXRnIPNBcnTUWS15NIkrqOlogA6m9zhUj9x22VJ+7mDWA0qWo1raDGpnDnD5Il8NHBTazBk0O6BpgZuHSrpovmohXoxC5sp09XMPA0nm0ZTJlZDOrYDOhx2z4xOunmMu4PWk5VcMOViM3k+FzWasmgqzqP9RCl0tbps+MFduw0gHW00lm/EZlJ5OJKyaBAz6Dhd7nYXLhX3Q3J00bTvG2yGDBrNzgTuqSiymnPptH3v6tK6u3fUK24cmYTuzmX7yUoaRRVXv/ofphozaCkvwNHZ5NbrtIHEzZHkPKadttPOgbSe/pIHIBnSad6vxWOTbX3EMwsmHG20VH+JVczwCCSbOYtGMZP2uiMeMf9S8diqkounq2nWr3ElbzdDElXYyndg72r3lPn9xCOQHIC9oxlbxTYajRl9ILmp961fQ+txz5/VusUjkLoHvS6ercEqrqPJlEWTKRebxTkeNBxAVlFFc+VWHJ3NnjB9QPHsckB7K437v6FB/JwWUyY204YhN73uaz/nwFom9eYcOhqOedTsS8XjaybtbRdoKt+EzfAZQx70N+fQYMnF5npsE9NpO1nOjTij9ZUbsvrW0fw91vIt1IvpNJquHZTVnIPVnEOr4QvqjdlcPF7MjQYEHofU28HraqnDtu9bmsQ1NBpVVwDTv/PZbM7EZlRhLcmn7ew+PNlhvJp4GFIX0Nl77B1tXDxTg7VsCzbjQBHVC8lqzqVRVNFSvgl76xnPmjmI3IDm5qCL3jOeHWg9U8sFvapnZtfaPcNrysFqcv7fYMyiXvcFTTVfe97EQeSG5CQnIDvdUdVxtoYL+nTqxQzqxcwraAZ1unU0Vn0NDs+tYrsWuYH3ljiv0h1A17l9NIoqGq4C6IIxkwbdGpoqvwR7x40zcwAZkbuUOs8fwGrK6mlal0PKpsGgwqpdg61yJzg8uwR5MBkRSHbrMazGdKzmbGyutUhWUzZWYxb1YhYNhlwaDZlYDSpslTvA3jYSZvaI21aVXMvzHR0dWK1Wzu8vptGYSYtJRVNPvymn56/NlE2zKZsmSxYnzNs5WFPLyaNHqDt3hhOnT9Ha1TU8s4cow4RkZ7C+y3enz5K1YzdmYwl7K8opNwiU6wSOWXbRZMnE1u+iN8c1FKKixZRDgzmPPYZCSrU6SgWBvSUlvPDmu6T88re8vSoTXUk1Ta2eHwkYFqQr4Wnp6OBrUwn/+deVTLjvWXymPE5BwXb2m0UqDHpKRTPVxiLqXTO8PUMgplyslgyazFm0mjI4bvyKctFAhain0qDnUEUlL/3lI25RLGZU6hL8py9h+i9f5q3V2ZgrPDOdBMNcVXIppDPn6/gkbzOznv09XjMeZ1TaI3hNe4rxDyyn6Otv2Wc2UiEaqBANlIsGjph20mzJpsnkHE6xmbOxFjuj6II5j1qDnnJRdG5v1HO4rJyVn6oYN/0RAuY9jd/cpxg7cyl3pD2Md+xU5j26lPTcDdS7+Rav648kR29eOHLiJG//fSWT0uZxZ8wUvKc/gd/c5QTMW47vrJ8T99DT6IsM1JpNPZAqRAM1YiHnzJtoM6uwmXOwWjJptOTQZMnhiHEXFQZjn+1FDpSWkLF+M76znyRw7jIC5j2F/71P45f6M8ZOUnB7uJTbgqXETFvIux9+yvm6C+5gNLzmZrXZeG/lKiTyWdwaFM0YSRLjZFMJmfYwIQuW4T9/Od4zlzLliRcxGS1UmUSqDM4oqjAaKDdbqDWpsZrX02JSYbVkY7Nkc86yiRpRT6XJRKXJSKXRQLloYl+xma++2kXYwmfwnruMwIVPEzjrIXylafhKlfhKU/GLTmFMZAL/HhTN5JmLyN1QMHKQvtXqSZv/M24PmsS4CQp8Zan4y1Lxi1biE5tGyOxHCVzwNKNnLGXh8leoKjFRazBQbTBQaRKp0OoQvtpJhVHPGfN2mk3ZNJvX0WTJ4HDxbiwagW825lMqqKktNlMpGqk1GRG1GiY//AJj5ywnZO4v8Iubhn+0Aj9ZMn7S1B71kaVx6wQ5t4bJ+M+XXqO5xTV56Rj6KMK1QXL0/ALgw9WfM25CPLdFxOErS8NXlopPj6bgI5XjnTCTwPm/4KczH+eRF19nX1kZFaJAbbGJfWYLO/Py2fz553y7ZQt7TAJ1xQW0mdbSULyRUq2G7Tk5bPniX2zLycGiNXCgpIQKo4Uqs4l5y/+A96wn8VfOxydajq8sBR9ZKr6yVGc0SVPxlybjJ1Nyl0zBLYETeOLZX9Pa1g4O+5Bn6IYQSc6PXfGvNdwWPInRE5V4xU7FV5bcB1Cqy1glvpOS8ZMvZMyMR/nl6+9yoKyCfSVmTGqRjz7+jE2ZGexIX0vBmnR2bdrIMeMO2kryOKjbwZbcPArWrWF7xjoKMrN56oXXSM8t4EhlFQfLS3n6939hjHwB3jIlfjLlZfvvBuYnTcFfmoyvTM7/CYji4y8yejzxECSwlFUwbkI8Y+6W4xPTJ3L6GOcnTXWFvhLv6BRuj5/Dy+99zOnaSqqNpSx89jUSH1jOpvXr2ZGxjgJVJvnrVGjyVRzVfcnuvAw2rU1nq0rFjqwMNqxdS8SCJwma+yRrM/M4e+Qgr//1A26LTMRHpnBFcdqAoJzPOyN9VGQs0+5/jPaOjiEiGiKkP/3PSv4tcOIVDHIevYDoNHxinNHkHy1n1Ph4/vHxag7X1vLIi2/wk6mPEjZ3Kas++YSdOVlsUWVSkJHJ1vQv2JGxhm3pX7BdtY5t6Vl8k5vBBys+IPCeJYyZvYTgWUv4V+ZmPlflMVYSi7frAHnHKC87WJeqlzSZcVFxCEbzkAANGdJDy57jtvDYKxsTo8RXmoZ3zFS8Y1PwlSbjfXci//wsg2defYdRUx/BZ/5zjJ22jF/94S/szs9mR/o6tqlUbFWpKFClsy19PdvTM9mevpbd63N57pU/4zX9FwTNX4b3PU8TplzEz595npD4VLykKfjEpOEjm0JAdCp+MkWfCLr0AKbx7yFSXn77Pc9BunChDtn0uYy+OwE/aaoTxiXG+EfPwCdGiXesHK/YZLxkaQTFpJE4cxFjpGkEzHkC/wXLuHP2UmY/9gLbczLZrspga3o2W9Nz2ZquYptqHdvW5rNjXQ7bszYybclvuH3WUvzueY6g2Uu5KzqVOyVxePfkwqn4xMrxjUnBWzYD35hkfGKS8YlJuSzK75TEo1jwAE0tQysYc82QxOJS7pqYgPckBQHRqQREp+Idm4pvjBJfWbIzUcbI8YpNYaxsGmOi0xgTpWRUpJJbgxXcOnEWo1Mfx2fGMrxn/ZzwuUtZ/fE/2ZWbzvbMT9me9U++ylzNzsxV7Mj6hJ25H5G9diWpDy0h4r5fEHHvUoLmL8Vv2sN4xy/ijujpjBovZ9T4RO6InMroCcmMlqYyTpaGt3Qq3jGpeMX25iUfWSp3RSczJjoBo6XUnZB6zwOrVOu5LWQSvrIUfKVpBEidoT02RsmYicncLpFzW4SC0ZFyAiamMF6ZRMLcZOY8PoOnXriP372ziNdXLmbF6nl8nr4YVf5sdn21CK36AXSFC9GrZ6AvugeDejY69Ux06oUUFc1g29cz2f7lXDZtnUVO/lz+lbuYD9bex39/uJj/enMWTz47hQWPpZE8dwp3JyvwkSUyWpLGqIgkbpfEc8ckOeOik/GROmH9JDSav6/8JwD2a+wz3eJEcenGl58kn3/1j/wkLJpx0Wn8NCqZWyMVjIpU4Dc5iZiZU5j3xAyeeyWNv62YwrrM6ezYPgONbiplplTKSqZSY55KVXE8FZYkKk0plBkVGPVJGHRxiLokRK0CgzYRg1aOQTcZgzYRUSfHoldQalBgNsuxmBWUmhWUlMgpL1VQUTqN8rJkSsxTUOtmsGPnTFQ50/j7x2k8/+p0HliaRuLsVELjExkrUXBHWDK3BMQwf8kvB/B5UEgDRVDvn7auLpRzn+Df/BMJTlAw/V4Fz7wwlfdWTGd93kzURdMoMc+ivCyN8uIZlJqVlIpyRIMCUUjBKCjQ6uUIhji0umT0ungM2iQM2mQMWoVThWQnJEGJQUhxvaZ0qQK9ToHetb1ZnYpZo8SkUWDUTMGoS8CkV2IR5ZRa5FSVyKkunUZp8TQ06nvYWDCF9z+exv/9XSop9ymZPG0GJ05e+wzMLb00OuiZ/rmE2tHj1fzHr+7hr3+fwqaC2Rh1c6ksnkVlqZJisxKTQYFJm4RJPQWDoHBB6HXSqJFj1CQjauPR6+SImikuOMpLVO6CJ7/C60oM2mT0uiQMQgo6nRydTuF6T1K/7URtEkatAotOTrlRTlWJgqrSGYimGeRvUVJS/Ar157/mYtsp4OrDwy5InWDvT6al/Qjfn9nAnto3MBvup8Qip6psMuWiEqMuCYPWFQ1CCnqtUw26BEQhZUAHRSEFoyYFvS7JFREDAVC64KZc5fXe7XTaFPRaJUZBftVtRSEZvVaBQZuASZtMqUGOThuLVh2PRZxHbdXvOXUym7b2AwO2q1scOH+wd3Kx7TBnzmxib/VvsRjuQVBPRiiMQa+Jwygo0QtK9D1HvLtp9HVYjigM5py7NfkSG66seq0CrT4JravpanUKBG0MglqCvjAGi342lRXPc+Lketpaj+JwdHRHknNcqLV5P8XiYrSFkxHU0YiaWPTCpTtxPRZSrtmwH6qKWiWi4ASn08mdTVgTj75Qimb33RjMi2hrP94NyQ4OsHc1Ul22DK16EoIuzRWeg4G4Ut64eVTUOvOXQZC70oYSfeFEqqpewkF7NyQH3dH0/dkNCJpJGAU5Zk2i882DgvpxqKhVIApyREGOVj2ZurpdPac0V+J2TkR3tNdTbFyMXiNFL6SOuOEjokVxFBcvxW5vvPTs1nveP3T4fTTqSeh1N39TGnI0CUq0hdEcPf55PyZ9IDn7Cs22CoxCGgZN4ogbfcMhqRMx6KfT2nbsSpC6XFcj7eypegGhaDI6fcKIG34jVVcYTe3e1/oBGqC5OaPpXN02BE0soiYZs2Yk+j4jEEUaOVpNPBfqdVeD5IomHHR1WSktXoy+KBG97n9JNBXFUlK6BLv98mnzy4ZKHK7uwNFjH6IukvZ2IH/EKgpKhMJojp1QXRZFA0LqbnJtLXswa2dg0CSNuBMeh6ROQDTMoq29u1TsoJC6XJP8HeyveQltkRSdLpEfa6dS1DoT9t59bw0I6AqQehN4Xf0uBE0iBk0yFo0cUfjxRZVRI0enSaC+wTQUSK5oAuxdbZSVPI5eLcV55T/yTrlb9UUxlJU/2XPFP5BcZYzbubDm+InVqNVS9Nof32WKs4ct5cSp7CtG0SCQnNHU3nYMi34WBk3ciDvldkjqBIziHNovdg/lDhlSpyuYuji493W0RdHodErXONLNf10nCkq0u6PZt/+dfi1niJAcPUuDGxq0CNo4DEIiZo0cozaBm/1sJ2rk6IQkGhpLrhpFg0ByRhF0Ybe3UlG6HL16kmsmY+SdHK7qC2Mor1ju6jxffXpp0Bnc7vmpU6eyUauj0f8IznKioEAoknHy9AaXl1dfQXwN09yualsXT1BsmI9BPXnEnRw2JHU8JuN8LnbU9YTCMCF19qx0O7z/z2iLpK4BuZszJ4la58DagYPvXhOga4RkxzlxCY2NZrS6RPRCAmaN4qZM4KImCb1WQaOtso9/w4YEzsuULhy0U1XxPHr13YhCCuJNOK2kL5RRUfkc9Cm06CZI9Hzg999vRKOJRncTJnBRUKAtknH6TPey5Wu7XXUIkJwf2NlxhhLjIvTq2BF3esiQ1HGYTPfS0Vnf78C7EVJnz2ce/e49tIVS12KFm6PJdfewDx56v99BdzMke08PvKmpAp1egU6Ix6RRYtL+8Id4nQk7GVtTd7HOIa5PunbprlLaQU3lb9EX3Y0oJN8UCVxfKKOy6nmupxjVddw24dzB2bM70AhSdLoffgJ3JuwYvj+7w+XD0OoLXAck5w66uuooNT2IXh0z4hAG1aI4zObFdHY1DuKb2yB19tzEcvzwB+h2y9DrlIMszBrJKHL2sA8d+ajfQfYwJAe4hjpbW/ah109BJyRg0qS4euAjD6YfJE0Sel0qzS0Heu33PCRw9sA7ATu11a+hK5yIKKReZwJ3LSz1ECR9oZSqmu7vgbu+YjDDuL3UucO680UIwmR0Q3bUtSRZUDibq677uas3HfGyJYhX216BVh3L2fPdpTyuryDMMOtxg93eSLllCbqiqydwvS6x/2ywkIxBUCJqkhE1KRh6IjHpMgiizvUZPUuaXdsMBqsoDkvxg3R1Da9q1zAg9SbwE8c+RlMYgyikMvDUUzIGIQ2DJhWDRo5OiEVfFI9WHY2gjnaOnxdOQls0EbV6Imq1DGF3PEKhDE2RFKFIik49Cb1ail4dh16Iw6CNRRSSXMv5Ll/S3J2wDx/t/mac6y8rNLxIcvXA29u+w6Cfg6iejKhNwKBLcjYjIQmdJg6tehK6wli0Gik6XTKicQFlJY9QVfUf1O79PQf2v8ehQ+9z9PDHHD26iiPHPuXo0Q84cmgFBw7+hb21f6Km+kUqyp6g2LAIszANfVEC2iIpGrUUnToevSbJOWrqii5Rk4hBP5WW1kO99t54SOBcHO88Qvv2v462aALGomSEwji0RTJ0QjLF5vuprXmRw4c+4uzZAmw2E+1tZ7DbLwCtDLbQ3CnOfTgcDXR0nKKlqZoLdd9w4vhqave8RnHZoxh1U9EWxiIUTUKvjke/W0pN7Suu9w+vetewa5XYXQY01BspUsdhNKRRXfMiJ4+vwdZooLPz3IDvG7h4h6PnKz56ywkNVIHgEhvsTbS2VPP9qVwO7H0Hi3ExanU0587v7rFyOOK2gi5dXU2cPVdEa8sBYOB6R73FgeyXlJ4aaMvuEh9Dr510sc1KnXU3nfYLOCN1hCNpIHGCuHiNt5e7sZCdo2/dr24ZflkhD5YGcoxEIT/Xru2uAzTiX+5yM8i1j2NfTf4frGwhqjXqrIcAAAAASUVORK5CYII=;" vertex="1" parent="X8rtFN3A78l9VNLj1SrO-69">
          <mxGeometry x="350" y="30" width="73" height="114" as="geometry" />
        </mxCell>
        <mxCell id="X8rtFN3A78l9VNLj1SrO-6" value="" style="shape=image;verticalLabelPosition=bottom;labelBackgroundColor=default;verticalAlign=top;aspect=fixed;imageAspect=0;image=data:image/png,iVBORw0KGgoAAAANSUhEUgAAAEgAAABxCAYAAAB2mOUiAAAU/ElEQVR4nO2deXRc9XXHfzMjzYwkg2zLBhLjlcVgSSakhwRaKE1IIIQUUkJDgKQhOUlJTzg5pQlJQxJOCz2lJARIk5AmMcjWZmm2997sM1psy5Y0I0sG2ZZteZO3gG2sZUaLtYzm0z/eSNZqSdYbGRvuOffoSJr35nc/7/6+v9+772ok+MBY/GIPYEITF/PNp4ckPu1XJsMuKqDp2cXNrDkHdOTwQRpCW9lW4aPco+BT7PglK2VuhepNQRrrQ7QcbKb9zCmIDUx4jrlENieAjrUcZt3rr/LNL93LJ6+dzw2ZOlbN07E8Q8dKk+A6o2CFWXD9PD2rFxhZuySTu7JX8PA9d/Lsd7/NW6+/xvbaKnrP9pw76RxRSgqgobG/e+I4v3jmB9z68SyW6ATLjILV8/VkLzCyZoGZ7IVmchKevdBE9kITaxYYyc7UceM8wao0wXKDYLlOsHpeCvf+VQ4vPvdD9u56OxnDntA0BTQ4QlD9ioNPX7+cjwvB6isF2YtN5GalszYrg9ysDHKy0s7j6eRkZZCb+D47K52c+WZWpwmWCkF2lpmfP/MvRCMRLYc/oWkKaChzSta/yQqznuvMgtxFRrIXG1mblcHaKcFM7rlZadyyMIO1C69gzZUpXC0EX//iPXR3dWkZwjjTDNAQnNpNFay6wsQN8/TkLEone5GZ7AuEMhqQidysDLKz5pGTlU7uQjMfF4I///Y3WoUwoWmaQT3dnTxwxydZmSrIXTR7KFNNw+uNgofvvoNYbFDLMEaZpoBsBeu41iDIyTInGY7qazJTuOWqeRxu3qNlGKNME0BD0+u7jz7E8lRBzqL0OQGUk2VmqVngdZRoEcaEplkGRdrOcFf2Km6Yp5sjOCqgaw2CP772ilZhjDMNAKn5c7h5L5+45kqyMw1zCCiNZXrBSz99NjES7e/bNAO0p3EH2YsyyJ1vmltABsEvfvC9ESPRVrA1m2IH9u5i7TWZ5Mw3Jg1G9sKR4m8mJ8vEUoPgZz/4Z63CGGeaAWp7/xR33ric1fN06q55UTo3ZqawIk2QM4sNYk5WmnquKwysShPkLDaTsziNnCwTuVlmlhgE//Xcj7QKY5xpt8zHB3ni3s9wvVGwZrGZGzNTefC2G/jRY19gmVFwY6aR3MXjRTYny0RO1uRZd/MCFcLtKxbxu589zd/dtITVC4xkLzJxy8I0VaRf/5VmYYw1TfdBr/zHcywTgtysdD5mFLz6b9+A45W88e/f4eYFZpYZBWuyzORkzUsAMI7wkdMnnZvmm1iaIrhxXgrPfPU+jpSvp68pyH1rl3PDFalkLzaTu9DIdUZB0ClpGcYo0wZQYuFo3FHP9fPTWJNpZLlZYHn1x9Asw34PdSWv8o17bmNVhuDaFMH1GancvCCF7IWprFmQws0LUll9ZQorTYKlBsEnrsrk6Qc/Q23By8T3Oonv3MjZHRYe/du1rMzQszYrnTWZej7xsUxaDuzTJIyJTANAg8QTCyzANx/8HEsMgjULzTRYX6V/p41IuJDYLoneXQqVb77ATx7/Il/IXcUtV1/B6vlGbso0kJOVzh0rr+bxuz/J//7oSXa73yC+x0l8t53Oug1E6zYQ3yvzzKP3scQkWJuVxnVGHf9wz90MDsZmH8YkNktAg0BMXVhjfcTffZuKdS+y3JTCXTct5eS2ArrrNxIJFxEJF9JVVwC7bLDHyZlQMbuc/0d14S/ZWvASDfbfcHRTHt27bNAs09dYSjRcRCRcTKSumEi4CPZJ/PkXT7EkVS2fLBWCP/7qxRHj0b6KppEGxek5sYPu7es5HvwTN883863772SgSSFaV5gApHo0VERXuICu+mL63rEwsLuEgd02Yo12+hpKiG7fQKSuQAUTLh51bH+jlXrLr8meP49VV+i5fdkCDm21wuBZklXcnzWgOBDvbyO6w0pXQyFHK95i7SIzf/jJt2Gfi2i4YFSQ47yumGhoI53hIhXMGKAjvXN7Md077HzlthwWCsGzj3yeeJODvlNN58Yy24DGmCaABiLvEq3N52x9ISc2r+czNy1l+8bXiTXazg8nXEQ0XERnOJ9IXT6R8ORwhpx9MutffIp5QvDrpx+HPVZ6mitGqKC2pskU628/SrR2Az3bC2kpz+PHX7uf9rCFaN34aTKxTw1myLvrN9IW3sgdK65m3XPfgSYrnU0+4gwkBZEmgGLdp4mGi+iqK+bw5jepKfwVvW9bJ9SR2XpHqJB4k4Lt1Wfxv/FzBncU0dW8hWQ95tBoH9RPzx43ndsK6ajLo3N7CdHwxhGAtIUUDRcS3WEjUltAtHo9ve/u1iSMiUyznXTf+3vo2JZHd2g9kbqhaaM1mAKi4UI6wsVE6zbSU5NHW4NCrC+atMdkGt6Lxeg6VEt7dR6R2gIiU61eFwAnUpdP2/Yi2rbn0xFaR3ttMX3vHwC0LnKcM20fHMZj9JxspqvBSmcon446bTOobXsJneENdIXW0bbTTV/7cUja+qVaUp6snj1aT6R6/fAOWLssKiJau4HOHQ7ifcl/aAhJAtTXfoxobQFdoQ3MZAmfVhbVrKeruYpz28LkPqRPCqDBvgjRegsdoUJ1E6gJnGIVds2b9J3cQwyIESd56qNakpoX4vTsq6CtJp/OcCHRWWRRNDy02y6gs3Y9HfVWBntbE7kTS3qTR9LaXwZaj9BRs572umINsqiYrlA+HdV5dB7axrmplbwyx5AlDVB8sJ+enW4itRs0EetoKJ+2cAmxrveSNeQJLakNVANtx4jUFBAJabAn2rae7pY6kr2sj7Ukd5jF6TlWT2v1+tGrWd00xbtO9c5teXS+4ybe38kgQ+vW3GBKegtePN5P9/5KItveort2A92hDbTXldAZOh+YwuHaUEf1BiI7FAa73gcYASi5q9eQJT2D4gCxHnoOVdFWW0BXzZt0hDcSCZWOW92Gbic6wxuIhvKJbFtHz04Xse7W4fPNtSUZkFrQV691jLOth+lolFVNqiuis64gIeDnPBoupDu0gch2Gz3H6hkc6E7uEKewOehyHS2qvaf20ro1n45QfqK8moATKqIj4e1b8+hq3gzDcC+ezV2fdFwFNXB6D+1b19NWnU9bTT5tNQWjvbqQ9s3riO5XAV1smxNA6nMztSTae2Yf7TX5tA/BqS4cA6iI9i15dA0DGg1prjMqaX3SqscZJMbIIAdOHiRavYFIOJ+O2kLaawrHZdGZqrfoPLAVSKxa8UH1TPHElJvDxNK0y1XNlBjxxK3kuKvff5azxxtoD+WN3hcNaU+okPbaQtqq8+jaF2Aw1jPqDH0Jn0vTrEcxTozBMTePcSDScpiWojwa/ukJNv/NnbRuyqOrvmTC+61ouJiuWrXm3PWOldrHH6Pu8a9ztLSQ6Ilj4953gEHi8XhSM0qzDrOR1tG0m8O/fo1tn70XZ+ZCnEKgCIFTCI6V/JKu3XaiYzaK0XARXYmfdTVspL12I8HFi5ASx/oXXUPNA1/i0B/+QEfLkeF3HQRi4xhpR2xGgIZ2sUPNCqOW72iElqJitt3/AC5TOlICiF8I/CIVvzDiEoKGJ79C3yGPWsYIFdFRp3pnAlJ7XSG9+10cePU5HDodZbpUgjojXiHwCIFdCDwLrmb7I49y3CHTf/ZcZTEeH9p59aMVpBkBig8OEovH6I2fe/PuY0dpfP55ylZeh0sI3ELgE3r8wjjOfToDnrR0juf9NwMHfYkHi+cyqDNURM8+hY7KDQRXrCQgdPh1JgJDx+tNeA0peIRATnh5di77X3mFnvfPqGMEBuLq1NMC0cwyKD5IfwLOwNkuml58Ad9V1yCNyZTJ3GMwEhAC56IsDv/2eTr3ynTud3K2SaJnn0J/s4uTjtcJ5N6EUwgCutHHB4QRr8FIQJ9Ohc5MQOhxJbKqfOVqDrzxe+KD6t+YaSVNM8ugxNf2xl1UfPp2HIm0D5wHylivEEaCQodXpLDl7tvY8+OnOPTKT9n3wtNs//LnkDPScQlBcIJjA8JIUKTg0ZvwCSMBYaJMn05Qb0BJaFXVffcRPXBo1HjnDBBAa6gG+aprcAtBQJeKTz99OH5hxKtXMymoS8Wd0KkhvZIT07NMZ8SvN+LXGScENTxlhRG3IQ2f3kRAZyaQ0Dnv0lW0NjYmIM0O04wADXRHCN5ymzr3hTp4n25mgALCSNmY4wIilYBIJSiMlAsjAZ0K0a8zTpmdwcT5AsI0/L1bCHzZt9IbaZ8VnBkDOl1Tg0fo8enUaTXT7DkfNF8is3yJzJkp+JFeJgw4hOBgQf7cABoqjR98+X/UpVtvwqufXRBjsyCQgOLTBHgaHiGofvihuQEEquBt+tL9uIWgTKThT6S0FtlzXp3RqVPofK8Zf4yZgNARWLyInpPvJhfQ0Kaw59Qp5CUrCAqBy2AiIMzjAp0ukIAulcCIwIOTHO8xmPAaTPj1RtyG803PFLyGlDG/MyELwXGbZTgOzQHF4+qd9CDwXlkFbmGgTCfwGlIpE+oGTvVU/PrUSaeHOhXN+HVm/DoTfl0GQd08/CI1sVKlDmdIQBjxGFIp05kI6lMp0xvwGFII6M2jIAZFKgFdKh6DGZ9ehT0RoMbvfx+Y6HZEA0CxOAwmztr0wgsoQuBKMRIQZoI6IwF9Gj59OmXCjE9vJqAznQMmUtSdsBB4ExtJT8KHbhvcQuBK/C4oBL6EexM/H3p9UAgqhcAnDASEAb9Oj0dvIqBPxWdIxW0w4debCSamvVdnTlwUweZbP0U81q9e8AtANEUGxRn67IPwF/8+Eeg8gsJMQGfEq0uhLBFQIOFqYHq8wowvIxP31UsJrLwRd24urjv+Ftdn78V7/wP4H/oK3n/8Gu7HHsPzxOO4nngU+bGv4nrkYTwPPoLzvi/gu+tzyJ/6a5TsHFzLluPKuhqvKRO3SMedgF+RcHcCZLkwUKZLI6gz4hN6fBnz6Tq0NxHFxJ/kcMGAiKs3qL3tp6hYtmIYhH/4nkvgyrgCefn1BG67HddDX8b5vadQnv8Zzt+8jDPvTyiWYhTFhsvrwRUoQykLIFcGcVYEUSrKcZdVIleW4SoP4qwox1FZhausAqUiiLPMhzMgIXkVXA4LnqI83H/6Pf6XfonrJ88gPflNnPfdjzv3VtxXXYXPoE4rJXHRKhK3In+xbEzgmXk9clqr2PuVVdiEwGkw4rv2Opx3fx7Pk9/C/58vory5DpejFHfAjauiHHd5OVJZEKffh+T1Yvd4sLvc2FxOJEVCUhQcioJDkZEUGUlWcCgSsixhdUpITjuS4sDuVHA4FSSnE8npweHyIrnd2P0BnP4AUkUZrooK3GUBZK+Eu6QQ7+9eJ/jsMyhffQT3rZ/GlbWYEiHY9a8/BKA/cdE1BdRz9iw7bA7s3/sunt+9hizbUIJ+3OUVSMEKJJ8Ph9ulBqPI2JwKVpcdRbarQSpO7E45AUce547Ez2VZQZFl5DGvk2UJm8uO3akCdCgOJMUxDNjmknBKCnZXJSVlZTjL/MiVQfxeN+6NeXh+/hybX36JU2fOMNA/fopNxWscoDjQ2tbKvv3NVNfW4PJ6kNxObJvKUPwBHG736AyYwGVZDeB8rxntyqS/czhlFMmJLDsnOZ+EIjuwuBy4JDsOWcGmOHFJLjYGnFgrvcheDw67Qrm/jPq6HRw7eozunuk9bxPxeJzYYIwzba3sbmpic9UWHLJEqdWCxWbFLjmQ5MQVlqYbsLYuy1O/xu50DGep3SkhKzbckh2nQ8GhuLApEjaHHYvVitVmw+V1UxOq5XBLy3lhCYD9+5ux2KyUWi1Y7TYc8sTT4VJxNXsVZNkxIptHx2SXHFhsViw2Ky63m1AoxIkTJ9Qa91hAp0+fxma3X/JgRrpTciJNIQUjYRUXF7Nly5aJAQFs2bIFq9120QO7WG612Thx4sQ4PR4G1NLSgsVquegDvShw7DaC5WXEYrHJAfX19eH1erFJjos+4Ln2UquFfc0T/93rqGX+7XfeofRDlkV2yYHT5aK7e+KVbBSgttY2HJLjshLrKbPHYqGhvn5COOMAAWyp+vCItUOWsDscnDlzZpz2TApIFWvrRR/8XLjFZmVz1fil/byAhsTa/iEQa4vNypGjRyadXhMCAnjnQyDWNrsdv99Pf3//zAG1trZe9mJdaimlaXfTeeFMCgigqqoKq/3y1CKHLKE4FTo7O0fFPFFJdlJAl7NYW2xWauvC42KeqDY0KaC+vj68vstzZ22z2zh58uRkoU8PEFyeYm2z29hUuYn44PRqr+cF1NZ2+e2sLVYLhw4enBacKQHB5SXWdsmBx+uht7d3VIzny6UpAR1pOYLFdnkAKrGU8naib0gzQJeLWDtkCYcs0d4+s56haT0XuxzE2mK1UF1dPSM40wakirV0yYq1Q5Gx2qz8ZUxJVTNAkBDrS1SLrHYbZWNKqtP9SIJpAzpy5MglW7MusZSyb3/zdEO9MEB9fX34fD5skv2iBzwTt0sOXG43PT09Uwc5G0AAjY2Nl5xYWywWGhoaLgjOjAFdamI9WUk1aYAAqrZWXTI1a4vNypatVaPGH59hn9mMAalifWmsZqU2K0ePHZ1piLMDpO6sfdgcH2yxtjnUkurAwMzb7mYFCC4NsbZYLDQ1TV1STQqg9rb2D7RY22UJxemka1xJdY4AAWzduvUDe5dvsVkJ1dWNgXNhreQXDOiDKtYOWe0kO3X61IWGpg2gfg131lpOVavNxqZNm8Y9LZ1zQDA9sXbIEnbJgc1hx2q3qW1vVisWq+WcJ1rhSq2W4d5Ii03tJbQ57NjHlH1l5yRNn7IqzocPH9YEDswSUHv7eLEeSvGhQK12G7JTwev3Ubl5EzU1NdTX19PY2MjuXbvYu28fe5tVb9q7h527d1G/o4FQKERVVRXl5eV4fF4csjQM8VxzqYQ0osHT5rDj9Xnp6xv98QOzyaVZ/9381q3bKLGUDl912alQXllBeHsd+w/s59333iMSjdLX339BaR8bjNF9tofWtjaOHDvKzt272Fa9DZ/Ph8PhwDKi8bTEUkrjrp2jjp/tJy3OGtDRI0dwud1sb6jn8JEWOqIRYoPJ/wiS3t5eTp8+zZ49e9iytWo4gzoiHZq+z6wBxWIxzvae1WIss7L2jna1CVPjj6m4BP4R7cW1jwBNYR8BmsI+AjSFfQRoCvuAAbq4/zp9Ivt/S4t6B5ahzFgAAAAASUVORK5CYII=;" vertex="1" parent="X8rtFN3A78l9VNLj1SrO-69">
          <mxGeometry x="150" y="30" width="72" height="113" as="geometry" />
        </mxCell>
        <mxCell id="X8rtFN3A78l9VNLj1SrO-7" value="" style="shape=image;verticalLabelPosition=bottom;labelBackgroundColor=default;verticalAlign=top;aspect=fixed;imageAspect=0;image=data:image/png,iVBORw0KGgoAAAANSUhEUgAAAEQAAAByCAYAAADqMHcCAAAfoUlEQVR4nO2dd1iUZ9a4sSFIsUSFGSybqJEZOgwoUmKSze5+u9n8djfZJJtNsQNDZxi6Yt0ka77dlI2bYno2UZAunWFQBMSSSBFL7EZFkTrM0Lm/P2ZAUBCiYxL3+p3rOjJyDe88537Pc57znPe87xjw/2WQGNybw/bqdMBvenuHfuvPTO4BkB6dDg2gvUtDQ90VLpw9wakTlZw+fpSL507TWHeN7s52/Q/nB8o9ANJLzwAYbRoVh0r3sf1/tyB/+RleWCrht7YP8viDM/GePRXvOdN4dL6A39rP57lHJMheeprP3/kHZ06e0P/QRiH6BTLAKU6fqObtjdH8ebE9i6YZYTvJAEcTAyRTxrJ4+gTcZxqyZKYRS2Yas2SGEUseGI/blAk4mo7B3sgAb+FkolY+z8nqCr0OcSTRu4d8f+4MG0L98Jr9AI5GBrhNHYO3hRFeQhM8haY3VDCFJVaTWWJlhqfQHC+hGd5CU7yFpngJzVky0xgHIwM8Zk3l03f+qe9hDit6BbLr0+08sWAOtkYGuM+YiJfQFE8rUzyF5ngKJw8C4m5lzlLLqXgJzVk02wxPKzPt+3XglliZ4jHLFPfp47E1MiA+cDXdnR36HO6Qohcgrc2NxPm8go2pAYunjcPLygyPAcYvsTLFy8oMb8Ek3ITGuFpOxFkwHkfBBFwtDHERTkRiZYK7Doq3cBLewkl4Cc3wsDLD29IYG0MDYqUr6e3t0X3qrSuZPuSugdReusBLv/JGbGiAh8BIe6YFU/theAhNWSIwwtliAostzfmNUMDKWQ8TOseZiLmuhMxx4JU58/i91Qw8LExwtDDCTWCCh5UpHlamPCI0Y6lgMt6WZoiMDHh3y3p92D2s3BGQvvNSV3uJP3tJsDU2GDQdPKwm4SGchpvVJJwtDPm9pRUb53uRL3qZU7ah1DlE0mK/HrXdBlT2cTTbRHPONpgi0V95fZ4HfxBY4jbDkEXCSSyebYb7LDM8hWZ4zpiI85TxlCiy9YhgsNyxh6hbmnn5fx7FwcgA70HTwxxvoTmLZhjxiNUU/jXvCc7YhdFjG0+XzUbaF8bTbL2OpoXxNIpiuWYbTbMoFrX1OjpsNqGx38IFOxnvzX+cXwqm4WI5gUcF5jxqMRVvwVRczMfyJ3c71KoWfXLolzsGsla6EtFEA7yFkwZ7h3Ay9oIJrJjzIBU2fnTab6FVvJYGcSz1NjE0iGNoFEVzzTaGenEMTSLt7/r0ujiWVtF6emw3UW0rZc1sEU4WhnhambBEOAUvoRk2RgZsf+uNAaPRXyy5IyAZX32K7SQDPC2NBy+lQhMcBBOImivhmn0cXeJNNIliaRBrjW+xjqZJHEW9TTyt1mtpEa+lWbyWZnEcjeLYfij1OlXbxdNgH0vM3MW4zDTEU2iMl9AUtwfG8muHeTRcv6Yb0fCZ8T0HUlf7Pb8WzWLRlHG3LKV2gnGEPGRPo8N6WsXraRJHUK8zUiVeS5vtFlodN9JsH0u9OIZLtjIu2URw3TYatd06Ou020i6Op1kUS4MohjqbGNqs19HkFEfMXDecZxhqVyyhKbbGBny9/V29QLgrIH+LDMR2ogFewim6/EILw0VgyPNWc2kQy1HbrKdeHEWdTRTNNhvosd3IefsQUkTP8upDS5HOfphnZ8/maSsrnpllxfNzHyJiriPvL3iCMpvVNNmtpcNmI02iOBpEsWhE8dQ6RPLirIdxEk7kEcFknMzHsPy3S/W+afxBQM6cOIHHrMksmWGEl847vIWmuAsn4W5pSqloOR22m2gURdMiiqXTfgPnxKG8+eDjPGVlgdvMCdgLJuAsMMTFyhAXq0ksFhjhMmssLoJxuMycyBKBOavmWpO58C+o7eLQ2MTSvDCOXtFmDolW8+jMqSwRGuNuYcxiwSSOVx3+6YBsjZbjMNEAL+FkvIR9SZQpDpbjiZ3nTpf9eurEcajE62h1jGfXw3/k11YW2AgMcRMa9SdrXgIzHrPU/r2H1Y0sdomVKYtnmeAsMMRZYEjwHHtOiANot9tAgyiOLof1bJzngZOFIUsFJtgaG/D5tjd/GiDNDQ38xnYOix8Yj6dwim7PYcoSoQmeAlO+EfnQKV6HSryeOocYNj24GAdLI5yEY/GyNNWl5aaDErY+QEstzXR7GTMeEZjyiMAc91lmSGaO50nBTBQ2L9Fuv4lO680cFfvxS4tpuAuNsTc1IGLZC4PGebcTaNRAcpMTcDA1wEtghpfQvN9AV0tDfOaKaLVdT6t4Hc32MUT8whmH6YYsnjWJRx98AMkME9wtJ2mTq0FgzPrhuFsY4zbdGMkDxrjPMMbb0hwvKzMkwgl4WUxBaf0iGvtNqG03EjbHAQfheBZPGcezHk50qFV6IzJqIPH+y3E00QbTgWfbyXICn857ih6bzWjs4/nbPA/sLMeyaLYpEtMxxK94hk82R2BvNgbnqRPwEJrhITTHQ2DCohlGOJoZ4GA+Bq/Z5jxlP4c/uTzM49YWuEwfj4OJdpPoJjDmcYvpHLZZA3Zv8PX8p7C10pYQHp8/g8vnTmlZ6CG+jgpIW1srTy8S4zptnC5+6LJSoQkeFqbsW7gC7DeTav0szhYT8RIa4T7LHHtjAzLe3QgNNWRu28wfHR/Cacp4HCaPxWW6IU/aziX2xd+R+k48x/O+pO5wBo1HsrhUkkzZjnd5I2QZv1kgwHXqOJysJrDCaj4tDuvYL16Np2Ay7pYmLBKYUHWo/O5J/BAgp2qq8LSagrulER4Dco/Fwkn8SjCNY/bB1NtG84xwNhLBRLyszHA0H8PyRx3RHFPQUZML5/bRciSX4i/+Qfo76yj5+m1qD2TAuVI4X0r3d0raTxTQcSyPruP5cLYYLh3k3L5dPOP2MC5Tx+EoMOTTeU9y1S6GX86xZLHlJJymjac4P+fHBVK0Ox3nyeNYIjQdlIy5CY34g9VMrjvE8+W8J3G0GIenlRnuFsYsmmHIoeR/w9liNJVZaCqztGBOF8P5Uji9l45j+Wiqcm7S7H5trcqE70s5mPwBi2ea4iww4mnLWdQ4hPLc7Lm4W47FefIYClKTAP3kqqMCkvj+u9iZGOiC4I3A6CqcyPPC2Zx3imTZrHm4CgzxEpphZ2LAa37Pw8VynXEDDc5FU5mLpmooGIO1tTqb1upsuFhO3AtPYm8+BldLI75Y+BRrZi9AIpiA42QDFDog+pBRAfng1fU4GBnctEKY4iY04ZlZD5Jl8xxPTJ/M4lnGLJ5hzC8fmsH3+1LoPll0G4NzRwTSp5wrpnTHW7hMH8tiC2NefsiGP82dyyLLibhMHce+PP2VA0YF5J31MTgYG+AxqC5qxhKhOX+0ms7aBW4stpyEh5UJ9iYGbPF5Fi7uH8I77kw7juahqs7nObeFuE4zZcmsySwVmOFpYYj7jEkcOVD24wDpm5PbNsVjb2zQX+/sUy+BCY8JzHh8thBP4SQ8LU2RPGBIyc5/0XumWC8wNFU5qKty4MIBNq9+DnuTsXgJzfEWmOI5fTyPzxdy+ftzPwaQG9dXvnxzqw6I6S2qLRGa4CU0w/WBifzJaR5NR3LoqMnTG5DWqhw4X0LKW3E4mI3BUzgZb6EprpPH8vwjErq79Fd8vg2QbnrQFnSzEr7EwXwMHjcF1cFqjoPZGCKeewLO7dMbDE1VDqrqLLpPKzmS9gHuAjPcLU3xFppgN8mAjQGr9QZjBCC9/VOm+ptyFlsascTSeFA1/WYg9iYGbItcBRfL9DhdslFVZ9F+XMGlklR+vVCA20wjvAQmOJqOoSB1148F5IaoVSp+7ypm0bQxtyy9N3Qy9qZj2PF6FJwv1eN0yUVVnUtbjYLGinyedV2AZLoRblPH8QcnEa0tzT8+EIB1QT7YGxvgPaAodPNGzdF8LClvrYVzJXoEkoeqKg91TT6t1fn81dMOybTx2E404LN7cEVvZCC6eVNWlIdk8gS8LU2GmTZmWg/5eyRcLNXbktu3yrTV5KKqKeCvnvbYjDfgGS8n1K2tPwGQPi7d3fj8/lc4mRjgaTW0l9ibGvDvWD+4UKYDMvrkayTtqMmnviKT34kFOJobcbhsr95hjAJIL9DT7yWHipVIphmypO+67U3qYD6GuJef0k6ZSv0C6T2ppCrtA1wsTNi948t7AmMUQG5w6SvmvvvaZqwnGuCtq3INBCJ5wJDnFi+ktSqXjqP6y0M0VTn0nFSS/sHf2Z20457BgDuouvcCm4J9sTE0wH2m0eAkzdIEt5mGHE5+H04Xo6nUE5DKTFTVBagbawHo6b/grX+5wyt3vby5PgYn87E4mhngITAZFEdelT6n3elWZut2tnc3dVq/zaCj9qR+LR9G7urqf3FuNi8/thhnMwMcJhngOm08bg+M57EHp3J+byLdJwvvaLVpG+BZ6opM1Mf30NvVpvvUe9u8d9ftED1d3RTtTmWdz0v8wWUhHsLJzBtjgPzZ39Bxcg/qozk/CIq6Kkc71Spz0FRmo6rIoavpoj5sHZXcBRDdCjRAVC3NnKj4lqLsNHbv/Jzm7w7RWp2vrZiNGkgurdU5aKoyaa1Ip/NqzYDPufetnXroIOoFurkZTp90XD6GqiIbdeXovKStMpe2iiyaK7Jpu1IBDNzJ3rtg2id67DG74TGDfaeLjvozqKoVtFVmoe6bFsN4h6YyB3V1Hu3XztB7C4D7wkOGkhse06X7Tfv3h1B/k6o1vDoXdfVNQKpz0VTlofkmA/WJvfTS/SP4w61yj1u7e+jRlRHar1TRXL4L9cE01N/sRl2RhaYiE01lJuqKLFqOZKE6mEFr2U6aqwuh56fpar5HQG6V9qvfoTqcQkv5LlrKk1EdSKHlYDLNB5NoOphM04FkVOXJqMt20FSZD92aH2tog+THA1J3hrYjqaiOZNJ0KJmW8iRUB5JQHUhGdVALSHUgmabyRFqOZNHT9V8G5Obw19lwlo5v02mvUKCq2k3rN2moDqZqoZQn0XwglaYDqTSUJ6I6mtt/hB87jtwTIH0L8UDparuC+mQumqO5tFXlaoNoZQ6aikxt/DiSherb3WiO5dJYmkNzagnt5WfpvNhAd++tx79Xck+nTDe9aI5fpvmLMq75b+d61Hu0Hd+D5rtcVNXZutUml7bKPNqqslCfVtBZUcj3T2/h+swgrliHc23RRuqe+RdNr2WgKfuOrvaukT/4LkQ/QHrpX00AOi830/TJXuqe+xfXbKO5MieE67PDqLcKpXbF31GVZqM5v4fW0wW0nsij9VQO6osKWvYrufLCq9TPCad54VrqrKNomB9J8xwZTYIQ6ufLufa7rVzdmEFzSRVdvZ16Gf5A0ZuH9AI93e2o8su54BRHvUUoTbPlNC6Ipsla14cqiqHZSsa1RdHUxn9Ic0oaquIMmrIyaXjtM2q94rk+V05Tf4tmLNfFMTSII2gURVMnjqHeIoTLcwO4/uGntJ8tI+/jDKpLKtFXtPnhQHoZ1JnS09OF6kotnZePoT5eQMfhbK7L36ZuTggt86NpEkXRKIq+0X9qE0fT/EhqfxHMNVEktZIYau0iqJ8jo2F+xKB+1UZRLI2iKOrF0TSK1tE4K5yr3mtpzkyl61IhdXsTCHYIwH9hGFtffIPy3eX09gecO4s0PxhIz4BweXRvDa89/w8+9PsHXd/l01qVSVtNJppzSuq2fkLtggiafhFHvW0sDeIoGkVaI1UPr6NRtJY6cQyND0fTuDCGRpG2q7lxQGez9nUszfPXc212GLV/eZ3W0jw0ZxVwdg+Ktz9mjbUMmXMkAaIgAhYG8fpft1K9t3rQCfwh903c0ZSpPVXL+2HbkdoG4jcvjNBFYVxQpNH9XSGqqjxaj2bRfk5By392cm1RHNdmR9BorW3WrROv5ZpNPA2i2EEt3TcAaLVJFE29OI6mObFcFEVwZcN7aI4pUZ3Opqsqn7ajSl770wYCbSKQuUYQ4hqLzCWKAOsQ/GylpL+doePRS0/vwMtuegZSklyGzDMGn/lBhDvLkEmiWSOS8WnwP+FsibY6VqFAXZWL6nwBzaW7ufbiVq7NktM4L4JGsXYK1YtjuK6bRgNbuht0/e9N86O5OiuCa7/aQNOuBNrPFKE6nklrZQ6c20fhtk/xFYUgd4lEJokhzDWSUNcIwiXRyByiWPOglLR/pWkH3ds7ahcZBZAbR8p8L4tVYh9CxRHIXKMJk0Qjk8gJc45C6hjItzt3wfkiWquyUVfmo67Mo/1kAZqTRTS++SV1ruu4bhVB0/w4mq3j+hv/tbEihhbrOBoWRFM7W8YVx2ga4j9EVZlP2xkFqqMZtFYW0H1SyfX9mUQtjSXYPgy5SzRhkkhkkkhkkihkkijCJdGE20YR7CTj4skLo/aOUQHp24LvTzuA74JAwu2jiXSOIVyiPTMySTRySSTBduHEPR5NXYmC7jO5A+of2Whqsmg/p0RVlkNdxDauO8VxdbachjlRND4Uw/UFUdTPldMiiOCSayRXg/9NS2EW7WeL0BzLQ12ZR2tlLm3Hc+j+roh3V7yKn0iG3FVOuEssYa6yfhgySRRhrpHIXWJZs0BK4t9/2LXfUU2Znu4eXv3LVgIWhiJ3iSZcIh90RmSSKOSSaPytZWx9Zj2t3yrpPZWPelDVPZu2E3m0nS1CvTeL5te2c/WFv3HlsfVcX7qZ2r++Tt3WD1HtyaT9zB40JwtQVRWgrspDXZVF+/FcOLOPr+Tb8BEFaaeGJFo3johBY5G5RhLmGkGgfRhxT66nrVmjO7l6AlJ36TqRHjGEOIUT5hqOTCIfPIB+jcbXOpg3nl1L/YFcODtUS1U2mhN5tJ8tov24EtW3+bQezqfjmJL2c3loTgy8wJVNa1UWXafy6Dyxh//I38PXOoQwl6E+W3dinGOQO8do44lTDP6iUCryK3VARkYyKiBVhdUE2AQjc4m6xTNu1nBJFP4L5cQ/EU9NchJcUNB1YqiLVtloqrPR1OSjPpaNulpbTWutykNTlY26OoP2Y9lwvojafTm8+crf8FkYhkwSftvP7582kkjCXWLweziYT2O/0FmiJyBZ27LxWShF7hI9CiDRREoiCLIJI8BRzldR73CtLB3OKek9XUD70ZugVOWgqcxDXZ1GW2UBHVV5dJ7Kh/P7UFUUUfDP7UR4R+JnE4j8puA5skYTahPBul9tQNMwugvjowLynuwDpA8HayO623DTpc97opFJ4rSDdw7HZ2EIER7RfCXfxvHUFFSV+fSeVsA5JZxVwlkFnFHC2WK6zylpO5rP2YIUMl5/n/W/k+MnCibMIRK5JIJw55ib4EcQ7iIn0imKcJcowoYYU6RjLFI7f6qKK/UDpLOtg/VPbyFUFInMNZJQtxFc1VUb5MJcowiXRCKXRBHmEIF0YRjBDjK2/M8GPvJ9i/QN21G8+Rn73v2MPe98TPbm7XwR9Cav/mEjYZIw/BaEECqKQu4UQ6RTDOHOsYS73ATEJZJQ10iCXaMJcY1BLokgTHIDTLgkArlLDD4L/Ul84+Ze1qGnz4hArpy+gmxxJDIHnYHOsUS4ROoSoltdNNwllnDnGOSOUYQ5RhJuF47MVka4WEaoKIzA+cGseiiENfN8WWkdwCqbYFbbBbHKPpQ1DsEEOEUQ7LaOkCVyghZFEuIaTpBLGCEOMkLsZISJQwkTBxMmlhFqK0dmJ0fuICfcSQso0lmO3CVS6zGuEYS4RRAkDmXrC2/Q29n35Iq78JBKRRX+4hBkLpFEuEQSLokg1DWSUNcYbUxxiSLcIQq5bTghtnJkNmEEOYYStCiKkMfWIf/9JmQvbSE48C1CYrcRtvkDgt76hIAPP0f28eeEfJlA0M6vCE3cQVjCLkKSkghK3klQ0tcE70gg6D8JBH3yFbJ3P0e+9WNCNn1AUNTbhEr/geyF1wl7ciOBS2OQScIJtg8nxCaMCOtQIsWRRDhoxxfmEIlsUSRXz9SOZO7IQHI/zMVnQRBylxhtiuwSTaxYjkwsI9RGRpBLOCFLYwl9ehMR0jcI2fQeoe99TEjC14Rm78J/bxZBJWkE7k8nsDwL/wO78d+/G/+yHHz3Z+Jfmoa0JBPfkgx8SjLxKclAui+VgH3p+Jdk4F+aju/+dHzLM/E9kEVAeRYhpdkElOUQUJJDkHI3oRmpBOz8Gtk7HxEUv41gnzcI/X+bCPaMJtgxhPCFYfjMXc3+lFKdVcOvNsMD0f3NRzGf4fegjAiRnFCRjCBJOCG/iSXQ5zUCt3xA+Ec7CMtIxW9fFoH7s/A9kIVveRq+pan4FafhuycF36JUAgtTkCpT8ddpgDKVgMI0pEUpSJXpBBSmEqJIIaAwBd+ilJvep/1/oCIVqTIZ3z3J+BUlE1SYgnRPGv7FaUhLMvDfv5ug8t0E7E8nRJlBaGoKQdu/JDD+36z5Yxyf/e/O0XuI9s7X3luSlzf//DoBznKCX9pI+Ib3CfgygdC8VEJKsvEvz0K6PwNpcRp+e24YEViYQkBh3+tU/AtTB8G4WaXKVPyKUpAqtUCkypQh3xegO1ZAYTo+Ren4FWn/9uZjS4tS8NuTjH9xKoFlu5EezCKgJIOw3CS2VZSRe+E7zjTV091zazwZAGTwjrCpo52yc2cI/fBLglJ24Vu+G+mBbIKLM/HZm6obtHbwfkVpSIuSCVSk4q9Mx7doeONH0oDC1H6Yt39PWr/XjHTMwMIUApQprN6bzCsFO1mWl4CPMplNBxUkH6+gsq6W5q4ueukdPGVaOzr55uolth8tR74vg5WKRFaVZSEtTiOwMFnnyilDnm1pUSq+Ran4KdORKtPuGMi9VKkyTTv2whSkihSWF+5ieW4Cy/ISqairveEhl1pb2HGygrjSbFYV7GJFXiJ+Bcn4KVPxL0wnoDCNAJ3b+xalaKfBz8DAu9GAQq0da/KTidifS0tn5w0gB65e4qWsr1hVkIxUqQ1y/sp0AhXpujP+0xugd2/RTesVuQkkfncjizWgFzp6e9l6QMGq/AQCdVPCr0g7TwMVP0/31wcQqSIFP2UKp1oabwDp1kXSPZfP8ErBTvzuIiDeb7oqP5G/f7NnUO7aH1Qbu7uJ35fLakXSTz7QH8M7/AtTWZ6fgOL700Msu7rlNv1sDStydxLwMxj0vQbiq0gmrHg31zvahgdS195GWHEaawqT8P8vWEmGhKH7uTwvgY9qDg6fmPVR+ezkYV4q2PFfG0u00yWF1YpdVFy/dbNncAOHFsiZ1mYCFclIFUOnz/e7SpWprM7fxfoDBbTfLnUfKNsqSliRnzBiCn2/aV/usSwvgdSzNUOZfhMQXSz5tr4Wv/xdSAuHTtPvV+3LPQKKUrnQOvRjv4b0kK5e2HK4gOUFCf81QPrsWJmfyJsVJcNWRAYB6R3wr/LyWVYU7PyvmTZ9uceK/ET2XTk/DI4hPKSPXGt3N+tKc1lTsOsnN0ZfQHwKkogszaL5Nk/dHBYIQNrZoyzP3UngCAWen7v2BdPleQl8efLbYWEMCWSgXG1vI3xvBj6KJF0d4ac37o6BKFLwKUziWNP1Hw5koJd8dvIwL+d/fX97iFKbe2w5VEjXCA8qGhZIX6J2WtWEf2ES/vdpota/kctLIPv8yLepDTtlBnLcVlHK8vyEn9y4OwXip0gmeG86tRq1foB8W38Z3/xd+Cvur+DaN9YVeQn8u3r/iDBuC2SgdPb28upBBSsU91ei1reRW1mQyMFrl+4eyMBYUnTlDMsUOwaR/7mrVJnKmoIkYstyUXePriV81E13qu4u1pbk4Jt/f1TUBtY9Ek5VjQrGKIHckNQzR3kl7/5I5wcWkU8PKCLfNZDe/n/gSpua8KJ0fAuS74tpsyovka03FZHvGsjN8tnxQ7xcsGPIa6o/F71dEVmPQPoStUb8in7etRJpUSq+BcnIindzvb1tBLvuGMgNLO8eKWFlXuJPbviQMHQ/tUXkQz/UvDtr/j9Ud4lVP9MSY99GbrViFxX1I3cM6QVIe08Pr+4vYFVB4s9uFzxSEfmeAAEo/P40Lxd8jZ/y5xNcB9Y90s4euyO77hhIS1cnMSWZekjUhu8YuhMgfork2xaR7xkQgLTTR1mWt3NEFx4u1gQUphKk0PacSHV9ZdLbXCDra70KUKYMe8yRish6BzIwUbvc1opsTxr+BcN0FSm1bRVBCm1rhV9RWn/+4qdMwUeZyhpFGiuUKawoTMInf5e2YUeRxJqCZNYokvApTMa3MEXbvKNIx78wvf+qol9Rav/rvo3cSEVkvQO5Wb6oOcyy/B0649OQKtP6z16AIhVfZQorlUmsyk9kWV4iL+fvZGVBAlJFEiHKVML37GZdcTbrS3NZv1/BptJ8NpTlEleWS1RJNvK9GYQo0/BVJLMsP4nluQmsyE1gZUESvgWp+Ci1oAML0/AtSCayJIumu/jqprv6wh2AUy0N+BQl4leYQqAiHd+iNNYokllWkMiy/ESkBUlE7k3j9W8K+ejoIXLOnKDsygVqGus4r2rkaruG5o4ONF3daLp7aO3poaO7h9auLhq7OrnSpuZsaxPHG+o4cPkiGadr+LimnM2HCpAV70aan8Ly3ESWFyTyYu5Ovjp25I5h3DGQm9G8e6SEV3J3sjwvkeUFO4kozuCdIyWknzvOsYY6GtvaBny3lH6ksxcut2uouH6V9O9q+OeRvUQo06hqrLur4+rlRuZv6i4h35POJ9WHOXz5Ig3twzzZobdHe8vvKO/l1z6B5Nbe2aGkG7jWpqGjp+s2RxxZ7hhI74AXmt5u6juG2DP0Dn9DpN6/g6z/YHfniXfvIUNYNdDYe/Pla/dO9P50iPvJ+KFEL0DuNy+4nfxoj9y5X+T/AAFX+TTGTHKcAAAAAElFTkSuQmCC;" vertex="1" parent="X8rtFN3A78l9VNLj1SrO-69">
          <mxGeometry x="40" y="30" width="68" height="114" as="geometry" />
        </mxCell>
        <mxCell id="X8rtFN3A78l9VNLj1SrO-8" value="" style="shape=image;verticalLabelPosition=bottom;labelBackgroundColor=default;verticalAlign=top;aspect=fixed;imageAspect=0;image=data:image/png,iVBORw0KGgoAAAANSUhEUgAAAEgAAAByCAYAAADwDJeMAAAZfElEQVR4nN2deXhUVZbAS9YEUSEJW4AslQUkIUiAEFBsp7t11J7ucXoce7pH2xkgIJB6FbRRUXFDiIGkCvduUcGQRUGUpZE1KULIyiKLbK5tuyGYqnrv1ZKkqt5v/nivimwECJWwnO87XwhJVd3ze+ecd+59597ouBSiXJJP7ZDoLuWH+y7lh5+nXFJAAN7GRpwuBy6HjMsh0+By4/V4L/WwAtKlgCS7nc3r1vDsIwYy/3Qv//Ob27lnygTuTEvh9nHJ3JGazN3jR3PPzRN44K5fITxwH889mkX+G69SVVrCzz/+0JXDBboI0NdffM4LT8zjtqR4YkN0DOumI6aHDn2IjvhQHYl9dIwM1TEiVEd8Hx1xoTpie+mI7q4jqruOmG46Evp0Y5J+CNN/fzdF7yyn7vTprhh6JwHSkrDX28hL2c8zZkh/hup0JF6rIykshNERoSSHh5IcHqJqRCjJESGMDg/R/r+5jg4PITmsN4k3dCeql47I7jomJw5j+Uu5oHRuJus0D7Jb65h6z10M0em4se81TaC0rUkRfdr9eUAjVI3vew0DdTqee3hOZ5kABBmQ/1q6ZJk/3v0rhuh0mpeEknQ+xl+IRoRy4w09iA7RUbOrLJhmNJOgAvKXN4sfm8sgnS64QM6iw7rpmDft/mCa0UyCHmLHDh1kZFgII6/v0SWAEvp247akOCS7vckogleJBh3QwsfmEnmNjtFdACc5PJRR/XoR3683n9RUaiNQuAwBqQNqrHdz18QU9KFdE16qhjCsl44PClYGx5QWEgRACv70/O1XXzB26A2MvL57lwFKigglsoeOV5e8cPGmtCFBAqTKoX3VjArryah+Pc7/tn3RgPowtLuOF+YZW4wmOBLUHHRgTxUjwnpxY1hPRkVcS0pYX1LCz14AdkjDQkkOU+EnhfchOfxahnfTsSCrc+qhoAL68sQxkof2Y0S/niSH92FMeB9SwnuSHBZCimaMalQHE3L/EGJDdCT1D2VMeAgp4aGkhPUhqpuO5x41BtOUgAQVkCxa+cXoBBKv7UZyeG9SIkJJ6teT2FAdiTf4IfUhKfza8wrBlLC+JGmVsz5Ux4i+PZj/4D38cuRQRvZTASVHhDK4hw7ToqeCaUpAggbIH/sz7/sPYnroSBoQSvy13fnvW26i4MXHSRnYh5heOsb0782YsBBGh/cmaUBvRg0IUSG0BBQRSlJEXxJv6MXQHjp+NSKabX9diPLZdn4/cST6a3uqXhURwpBeOt5b8UawTGkmQQdUvPx1hnbTkRTel+HddSzM+D2crGT/mjx+PzmZoT11xIV0Z3T/UDU/RfQiKaK3BqlPIJTir+vG8B46Jg4OJ1e4n58q34ej6/EdXseMu24huvc12u/2IuH67uytLA+WKc0keCGmETp98jvSYyMZcV13onrqePOJDDi6HuXTtTg+WUvhIoHfpo5A37c3w3qoyx5xvXXEhOiI7qFq4nXduXO0HrPxT3y19S04sRH3/tU4qvPh+Eay5/yByJ46kiJCGNm3G7eOiMFmswXNlKYSxEJRCUxWc+YLDL1GR3xoN7a88Qy+Ix8iVhfg2FMMxzYi7/uA8vzFvDLvQeb+1x1MvWMS0+6czCP33clrj02jPD8ba3UxnPg79QdWI1YXIlUXIlcXoBxby8ZXn0If2o2kiFCGdddh+PN9wTGjDQlyiPlo/OkYX5WuIn1YOMn9+3B44+vUH1yNWFOoaQHyniK8hz+E4xvg6DoaD3+E+9N1eI9tgOMb8R7+EMee9xBrijRVXytVF9Ow732+L13BlNgBJFzXE31odzYsXwgeSRtDcCuhoN7FGsVvsNUW4PhkNb8dk8CtCTHYaotx7C1qAqi5SjWFSLUFSLXvItWsQqoubgKmOSCxpghHdREcW8/cP95OhE7HnaOj+LliJfVf7gbFe3kXiq4vKhAr36L+4HruGTeSGXffDEfXnRVO21rU5GtLQIXIVcV4D62jrDCHIT11/GHKWBr3r8W5bw2+BunyBaT4PDgObEauehfv4Y3cf9s4/jb//+DYhgsE1L5K1UXINQU0Hvs7D94+gfumpOI7vAG5tgCP86dgmROQiwLUNOYVjwv5k/XIlfnUH97IM9PvZe/7edR/sjqIgAq0sFyF7+Aa9r5nIlu4n8YDq5H2FON11108kRYSBEBa3CuNOI5sQa58G3lvMRXFOfxcpeaYYHqQP/yk6lU49q/mh4pVyJXLEQ9tQvE1BgFJcwnKbN5/e3d/exBrxUqkmpXY9xUh1p49OQdF9xTg3LcKe8UKnN99evGmtCFBvc0r9RLSvvVIFSsQazsRTE0hjuoCxOoi5PI3kQ9/jOKtD5YpzSRogLyoy2Ye61dIte9hr1jRqYCc1QXIVe/hOFqKz20/1/A6LEGrpBW8+FBQAK/jJPLRbYjVBZ0Cx15TiFi5kvqvKwFfpzaLBLEO8gFe1YsApcGGY88apKpVtKxlLlal6kKsVatwW7/WPrvzEAX5qYYCfk9SPDiP7ECqCLYXFSFVrcK+/wN8DfYmn9s50imPnn3ana3+u08QK94NLqDaYuTKFdiPbEFRPJ0x/GbSKYD819PnPIlcU4BYvSpogOSaQsTdy6k/ebgzht5KOrn9xYvrs1Jsle9iD1JN5Kh8B/vetXjrxc4duiZBfzbvn374n5Z55J+QqgtwVq3QquqOg5Kr87FXvIP7h84pCtuSTvIgDZOiYnJ/XYm9oimg1rP0syVkv0o1Bci730I6tAmfx9U5w25DOjfEFNWLfF4n4qebEStWInUUUOU7iHvewyuf7NQht5Su61F0ncJxYCO2incRq9uH0fJ7e2U+1r3v02j7vMkbdk0vcZcBUgClQUY+bsFWuQp7Vcs7W8tVxGLEmgLEqlU4DmygUfqBzq6a25IuAuRDQWvtVRppPP0VjoMfIVflI9cUt5FvtJWAqndwnCgBjwNQ53tKkNtbziVd2Abso6l5Dd/WIJatQKwqQqwpwF6tQaouQKzOx1pViLVsOY5/1AbeQeGqBqSKopnY8N2nWHev4HRVEdbKVVgr8tWvlfnUVeZjqyjEVvYm8lfVzV7d1dLlgHza8prr5GHqqt/BXlmogWmutop86sqW4/hiN36/ObOo0nXSCYDUTNG2KKCouchz6ghiZb5aG1UXYq8qwNYS1K53cH2+u/nru1iCDkgJZAkFFB9Kq0ZvH3Kjh/p/HMBZ8Q72moIzSbq6yV2suhBbVQH2o3/n4NdfcuK0RAOdPzltKZ0AyC/eZv9zyuFm29HveWLTER5cvosvKj7A3cayrOS/i9UU4arOp7G2kAde/5i03B08sHI3y3YcZeeJbznpdAd76G1KJ6wHnfEYudFDyfEfeXrDHn7zioWU7K2MemEbI7NLKd2xDvadfZYv1+RTX1vEl9Xruf3lzYxZspvkHAsjFpcw5sUt/Ob1Eh7+YA/rD/6TOmfnrEdDJ3R3AHxR5+DVXZ9x33ILo3IsjFpUyphcC2kmCxNNFpJzLDy68mPcB99Hrs1Xl1BbAVoJB4p5e91GxuRsZlKehcmmHUwylTDBbGHs0lKSF29m1OLN/Pq1XTy/+Qj7v72snou1TpiHf6xjwaYD3Gbazo2LtjEuZzsTzCWkmyykm0qYqAFKM1lIzSmhcMMW+GQFzj2rsNcWYa8pRqopQKothEOFHChZw62m7YzPtTDRtJOJJgvpJguTTKXa97uYaCpjTO5OEhdvZ2zONjIKq7B8eeoikDSXDgNSk7EaTt/L9Ty/5SCTc7czatEWxueWkW4q1YCUkq6BOaNljM8rZXzudl7+4O+crF2Lb/8q2P8ungPvI+4rYs3mj/l13g5Scsu4Oa/l63eSZraQZrYw0WwhXYM1wbST0dlbGPvidv6ybh/f2h3aYDu+Qa9DgBTfmUyz49h3/OvrFpIXbmJc7m7SzGUtjGmtaWYLk0wWbl5ayk3Zpfzula08VbCVl1ZvYWHxFh7462ZSc0pIzbWQZi5ncl7pOd6vlDSz6lXppjLGmyyMWriN372yhU++V8POqy0tXGihcMGAFEDRrsjK2uMkZ29jTI46uDTTTiaZSpqFU9taSpq5hInmUiaaykjNtZCavY2U7FJuXFLG2KWlTDKVMNFUwkRT+3CagTKpHpVm3kHaslKSF5fyL6/v4Gu7A/DhVXwoF0ioAx6kFoKbjn9HcvYmxi4tD+SHjmia2cIEcxnjzBVMNJeQtkwFcwb0+QPy66Q8bTzmXSQu3ErutkMA+BTvBRfiHQCkXoWpRftIXryDmztgQHuela55zmRTCTfnncsTzwW/lJuWlPGbNyzUOdXGhk4PMYAfJRe3vWxhwtKLM6A9TTeVnjP3nA/wiXnljF28jW3Hv+uIqR0DZPnqFKkvbmFiXsdDS4VgIe0CwjO9A96anreLUYu38vzGfQAoeLU8dH6+1CFAb+w+QdKiraSZ2r9jpZssTDBb2kzaaaadpJl3MilPrWsm5+2gvXyTZtqp1lN5ZaSZSgNFZ7vhai5lsmk7yXkl/Psb5VgbGiAwn2tvUt0hQErg69wP9zPqxW3cnLfjrFd1gnkX6YF6pZTJeSWcSeY7mWQqZYK5nHTzNtLMFsaby0k372CceRcTNPBpfpCmnSpkcwkTzKWkmXeqd8F2AE0wq0XkRLOF1GUWUnO2UfX16WaWnI+cNyD/kqmzsZ7/eLOcsUu2BwClmdWBqJXtTtJNO5lk3sp4czm35JYyzlzOeHM5qeZybjLvJnlZFaOX1ZD0UiWjlu1hrKmS5JcqGGcqJ9W0mzHLqkg1VZJiquUmUyUp5ipGm3eTYq7mJlMFKeYqUk0V3GTeTeqyMsaZy5hgKg/AnKhV2jfn7uTWpSVMyith1KLtvGk50lmAlMBC14mTddycu4PxeaoXTDKpVzT15W2MX1bK2GUVpCyrJGlZLSNermGsuYpJeTu4fekG/jNnNX/OLuAvz+fxxMKlLH32cV569hHeevJhVj05i+IFD7Dmif9j3fz7+fCJByh+6kFWz3+Qwidn8tZTAubnHiPnuWd4cuELZC5+mT9nF/Bf2au5a8l6bsnbQcpLKvwx5mrGmndx07KdpC4rJ81kYXTOdmYU1ai3esXfhxK0EDuzyrPp8LeMyi5lgmkX4027SDXvZrS5mnGmMtJNJfw25yNmLHqdZ5/N4c0FWXw8/w9UzfsdR/8ymdNz47EZE3AYE/EYB+AzDMFjGIZiGIBiiMRniMRjHAiZg/EYovEKA/EKA/AZIlEMkTBnMD7DYBqEWBxZ0YhZMfyYlcSJh6dQM+/f2PLYn3h7wRyeey6HqYvzuXvpR0zJ3cQYcyV6cy23vFbFdw41Byk+n1bwemivOGoDkNrC0ly8gXlX9q6v0S+2kLKsgtuXbGL6or+y+NlnKXhqKpWP/5ofjOORhXhcQjTMHoRiiMCbORjvnChcBj0uYSiuzDichmhOPRyPbIjDaYjFIcQiCQk4DXHIxmE4DTHIQjyyMQZZiEUW9MiCHocQi9MQg9Ogx2WIxmWIot4wHLdxMBjC8RkG4jYOQxKi+GFuCtWP3sWH8//M4meeJuOZl/nkxJetrG1vI3ArQOpUwgOKF5/SoD4Z9WPyNvLKu2t4+snH2PrYvXz2yBQkYyJewzDt6g7BKQzHZYjh57mqQbJhJJJmoGSMRzZGIWZFIQvROIXhSEJcwHi/Spqq0PStft5UHUI0TkMsrswEJGEkTkM8DkGPJMThNgyj0TAcMgfRKAzlZ2EEdU9Owbl8Nu6yldR/swc8csD2M7aeAaY7MyfXAClnlr18gMfxM66jO3F8kI1t8b9jM8bj0dy93hiJS4jGEbjC8YhGv3F6pKzhOIQo5FYQ4pGERERjDHZjbLsAzk/jkIU4JGMUkjEG0ahHNMbhMgzFIUQHPM8lRCPPjsSeEYE4fSBWQyLWJXdj++BpGj4tweu0BlgoWo7SKT5FbTJo4mHeRhv1h8pwFj2Gc8EvsM2K4fSsfsgPDcIhROMQohENI7FmxSMZY9rwgDicmXFIQkI7HhAMMK1VEmKRjTFIRj2iENfO58TiyIxCnjkEa0YEtllDEJ+5hVOF83Cf/DywOUfnn+V6PfXUf7MfacMSbIt+iWPmMGwZ/bDPGYRkjMRtiEYyxuMwnBmI09A6PC4nPVd4Ns1rsiEKeWZ/fpoVhfOf+wLlpA6gEXB/c4BTDycgTo1AnDWEuqzhOIUYHBoEUdAjCvGX3OjOgxmHPWMA9jem4sMbuE3p/MnJ6xGxm+5DyojEaYgOJEq/t9izottx1ytfRSEWa8ZgnHs3NLu/Be5iPsC9Zz1yRgTWrGhEYxyOy2DgXQZoViTWBVPwuJo3pTe7zXvdMvJztyI+FIkstE6+V6tKgh7btHDENc83uYO1AuTFAzi3vYI0LQy7MQHRqEcWYtusVa4mFQ3RWOfE4v56f7PwagFIwYdCQ933SPNG45g1HJtxpJaLrubkrMc+YyC23HvxKd5Am0SbIeYX+/tP4J56HZIwAtHYXi1x5aso6LFOj0De+W6TbHwOQPXfHEA0xCJmxmphdvWqOGcY1nljabS1fUZj67mYouBTwPna/2CfEdFqsng1qSjosU2PwL5ibiDJnBMQWpHkPrQFecZgbMZ47FqYXW3JWhRisc4ciuvTUr97nA8glaSnsR7phTtxZgzEbhyJJMRdVYAkQY/40BCsC+/A23j2xvSzAFJJipa3cEy9HtmQgM0Yz9VUG4mCHuu0cKSN5rOG11kB+cUjnsQ+fzzS7OFXXbIWM6OwGkdQ/8PxgFtcECD/IqtrzdPYp4cjGfVXjQdJgh57xgBsr/5vk9bitqUdD1ILR/f3RzTisdiyEpCFmCu+cBQFPdaMQTiq1wYs7QAgtI26IP9tBq5p/RGFEYhC/Hmvs1yuKs4eivXJSXgc5+5IOwcgVZxHShAfGogzM1Z9KnEFh1pgYlq84Jzec05AfvF5GhBzfos0czBiUNaQL6H3GGKwzo7G/UVNCzfoICD/or57Vz7i9AhEQc+VmqwlQY995iBsS+7B5/OcE84FAPJR76zD8WQa0qzhWLMSUSvrKytZ+6cW8o7lmm3n7qY6rxBTtBNe5HU5OKdej2xIxG5M4Eqbo4lzhmN9JIWGun+ej9kXAkiV+p8+wzY3EVfAi66cUJMEPfbpEdjfzqT5kXRBAOTHpADy23OQpkdccZW1OjGNxHlwW4vLHiRA/qet9SfKEWdFIhr0V8xSSGBi+twv8dY7zhtOBwB5aFC8OHLvQc4YRF2W+txdEuIv65m+KKi1j7RuiWbL+be6XlALnk9RN9U6q9YgT++PM1OPzTjisvci0RBNnZBA/bf+Awk6wYOavq3Hbcf67BRcMwdjzRrB5Zys1YnpQGwv3a9NwC+sEbgDTZzqB7g25iFOCw88GrrUINoLL+v0gTgq3tNGf2Gd5BcMyL93ueH0P5AfuRExMxrJGHvZQhJnD8M6Pw2P1LG/BdSxzSw04gEc787FMS0Mq/FGJGPcZbcsKwl6bNPDEQse18Z94RuCOwhIDTP3F3sQ5wynfrb6kPFyy0WiIQbrrChcJyqajbsLAPm/erG9/EecGRHYjImBVrsOG2RM0P598eGqTkwHY83+N3zeBi7kznXRgJpiqq/5CDFjoAbn7B6kPsKO1VriWgNQGzNjEYUEZEMskhCj5bYOwhb02KZFIG99Qxttx/bbX8SOQ/VDG+sdOJ7/BeKsodiN+mZe1HTl0Z0ZjVNQF9xEo75NUA4hFqsxEasxQetki1UffRvOZ9UgHlmIO9Mwmjkc68NJNJz6qqMmXhwgFZIHL+Dc/BqOqf2xG0ciGuO1ZB2PyxCjLfbH4TAkYM1KQBQS1GXbTD32zCjEWcOQHxqCfeZgHDPCkGeEIc3oh3XmABzTIxBnRGB/KAzbrCFIsyKR5gxHzoxGNsQGLoJD0CMZo5CFWJwGPfYsPXUZg7H/7aFzLsp3MiBVPXXfY3tsDI0PDcZqvBFZ0GvLITFYs6Jxz9Yjzh6MbeYNOKeGYX1oIPJsPY5HRmJ9dgryoruQzPdi/ev91L0zB9uKLOxvz0F+awbi6zORlz2AvPhfkRb8AnHeGOxCNOLMQdimD0DMiECcNRh5TjQOQyxOQwKuTD3S9EE496/XRtrx4yyCsi1cAWzFTyBPC8NuTEQSorHPicA1dSDy9HBEYyJ1C+/A/uY07BvzsO9Zi/vzWhp++owGZx2exno8vgY8ND/NV92Po05vfF4HDa7TeE99ReOXe6mvXYf08TKkFQakRb/m50cSsM4cjJgRhn1aBNYFt+F1W5s0indMLhqQgtoE2vCPGurmDEOeei3irEjqnrkFacVcpIrVuL87hMcttTpYQt0EoB5w6tXep6Up/hDx9/+3/LkXUDwNNP5wHHftWtzvPYp9/gSs6xcBF38UysUDUrz4FIAGfi58HHFFFu5Pt+Nxnm7eoI422BZneZw5Vejcm0sUBXx4tRXOli3wTd7TKdJYb8enKK02VVyoBMGDFLzaXg4f6nkajbS+cmcgXLw0OT6lnd8543kXI0E6msLXxHztOK4ObMG+HCWoh5v4c4SipdaLv36XXjrtLFcl6KdFXRrYl/yPYftF0c4QPvvZVV4UGrSjmBW6Kn67FFB759cpPrVVwqd4UJQmxwpqr/ThBZ+Cz6vQqKjaFSF8SQC1BKWg4N+W5VMxqUd7BbZpKUCD6jlewOdTfx+/Z3UeqP8Hd6ROdt6mdpYAAAAASUVORK5CYII=;" vertex="1" parent="X8rtFN3A78l9VNLj1SrO-69">
          <mxGeometry x="250" y="30" width="72" height="114" as="geometry" />
        </mxCell>
        <mxCell id="X8rtFN3A78l9VNLj1SrO-70" value="" style="group" vertex="1" connectable="0" parent="1">
          <mxGeometry x="80" y="599" width="450" height="176" as="geometry" />
        </mxCell>
        <mxCell id="X8rtFN3A78l9VNLj1SrO-62" value="" style="rounded=1;whiteSpace=wrap;html=1;fillColor=none;" vertex="1" parent="X8rtFN3A78l9VNLj1SrO-70">
          <mxGeometry width="450" height="176" as="geometry" />
        </mxCell>
        <mxCell id="X8rtFN3A78l9VNLj1SrO-9" value="" style="shape=image;verticalLabelPosition=bottom;labelBackgroundColor=default;verticalAlign=top;aspect=fixed;imageAspect=0;image=data:image/png,iVBORw0KGgoAAAANSUhEUgAAAE0AAAByCAYAAAAWJVzIAAAc0UlEQVR4nOWdeVRUV7bwLwW6uvNer+/l9ftev9dtjFMcAJN+/brf686XzmSiTOIAVRo7aRUBlSo0bceOigNDUUBNgKCiUZM4ZNSYqMyIVAHiEI1QTM4ZbDM5QlVRUMPv++MWCMEJKVDTZ60NtVbduvfc393n7H322edcgfutuJz3uga3LcK9rsCNiguA+xfePYdmb7PSar1Kq+0auGw3Owpw9Ge1blnuCbTzp2rZ95aKzXEzWLswiIzYQDIWBrH+9XC2pyoo2qKm9mAJTZf/3vEbV6e/97r0K7Qz1QfZppxH/NRRLA34FatCHiEh9BGWT3mM+EkjWDVxGCuDHyEucBBxoSNRRTzDjqwlnKs/3HGO69icuLg3GPsF2sULZ3hf/Srxk4azPOiXJIaPJlnmh0rqR6LsCZKl/qikfihl/iTJxpIs9SU1bARJk4cTFzCIFeGj+ED/Gle/OQ/c+z6vz6F9ZtiD6pXfExf4S5Thj5E0TQTULilSX1KkY0iW+ZEsE8EpZf6opGNQyvxQyh4nKXwkywL/E03EM5z6zOA+871rqn0A7boGlGzXkxA8mMTQwSin+ZIoewKlbCwqqR/JUr8OUO2imuZP/JSRrAwdhlLqi0rmT7LUzw3Pj8SJg0kKH0PDoYKOa9yLvs4j0FwdYsflhpb7lpolgY+SFDaKxGlPoJQ9jkrqT4rUtxusZJkfSqkvSpk/hpy/8N6qGaycNJKE0KGkyMaQLPN1a+BYEkMfIeml/+brs7Xuazv7Xec8CM3ZoWNVu9azLHAQSeGjSZrmR/JNQHURqS/LQ0dxInctnD9Ew54ssmNeYFnwEJKko1BJx5Ak+zXJMn9WBA3i7aUv4XDYAdeDCQ3o8OTPVRtZNXkkCVNHoJT5kSy7A2AyP1Tho1g5cTjVO/U4TlfgOlOB1ZTPDuUsloYMQRU+qotWrggejKkyT7w0jn4F59E+zWa5QvaCIFaGDEY5zf+OYHVI+GiU4b58uf9NWk+UYqkpoLWhFE4byNXHEhc8tIvGrgx+hK0Jf3Zf2dmvttSj0Co+yGBpwK96Bssty0OGsPEvQdgairDUFmI1FWA1FWKrK4HTZexIms3S4GEdxyeFj0YpHc2Fjr6t/7y2XkJz0e5kNl/9Dk3k8yRMGt5DYP4kho1mxaSRnNibhfPkfjcwUSw1BbQ17MNqyiUr5kVWdDp/XOCvKNmmcVfF1W/gegnNics9Jqza+xZxAY908blu24/J/EicOoKlIUMxbl6O60wpFlN+F2jWmgLMpkKcp4x8XpRDfNgYksJE5zg+dBjrF02kzdHa4Xr0h1nodfN0Ak5HK28skZEQMsjd+d9OfFHJRrMqZCgJU8dwaEs8rjNlmOvyMdcWdIVmysdcm0ezqRjOGilZ+xpLg4d0GITlE4dwvHQn0H/uh0f6tK/OHCde+jiqsMdQym5vAJLCRrAsaDBr5OM5V7QRzlRgri3GbCrEair6AbQCrKY8zLUFWOqLsDWWsnFRKCsnDiVV6s/K0GFkxkzA2twkapmr7xtor6C1V67yozXEBQ0WPfhbaFey1JflwcNIkj1BybrFtNTl4zplwFxTiKUbqK5iMRXQVJtP26kyLhi3ipo2eSQqqR9LAwdRsXOju1J97370Apqzo/94J2U+K4IHd/fyZX4opf6opP4kTH2MZSFDeftvU/i6bAucNWCrK8Jac2tY3eDVFMDZCgwbl/K3wEdJlo4iPnQYaxeEYLc20R+N9K6htQOzWq6RETOexMnDugNzd/YrJw1FOf0JqrYk4DxZiv2EEXMPYXWWltoi7Cf28WFyBK8HPcryoMGsmvZfXLxwGuD+hdbeOL/98gSql35NUtiobpqWIvVnRegI0qOf4SvDFjhXiaWuxN133T00q6mA1vpiWhuLObRlFRsXvMibS8JpMX/vrpuTvgwd9RramepyEiaPIEk6uhu0VZMeQzfnKS4e/hBOG2/bb/VY6opwNubT+ul2mo5+gKP5fKe69Z229dp61lXsZlXIEJTSMV3HmdIxLJ8yiro92XC2HEtNvmeBmQqw1hbSVL0H86GtNB14G/O5Tz3B5LblLqB1fYpHSnayPHgoSqkvybIxHZZyxeQhbHotBPvJ/Vhre98cbyyFNFfv5eLhDzFXbsJq2gsuu+fo3KT0GtqnRe8TH/QIqvDRYscv9Ucl9WXpxCFUbIqDM8Y+AWYxFWKuLcJSvZsrh97h8sGtNFd/DE6L5+jcpPS6eR7dv4uVwY+i6jx8ko5kVbg/Z4s2i5rmcWj5mE0FWGpLaK7ew7XDb3Pt4Js0m/JwuVrvTz+tc4i5viqX5ZOGdQnbJE4djj7ij1z7dC/W+mLMtZ7tzyymfMy1+bTUFmE5vpurh7bTdGAzLafLuc8H7OJA/fOGY8SH+6IMv249V4YO463FU3DWG7CaSjwOzWoqoLk2H6upEPNnu7latRXLkW3YL57slzhHr5vn1cvnSZn1e5RTRribph/Lg4eQp4+B00aspmKaa28/TOq5thXQYirCcmwP9pqdNOZm8fUX9fc7NNF5dLnaWL9MSkLIkI5Yf9zEERx5NxnXaQNmUyHm2kKsHnBou0hNAbaaIlyNRZzYrSM+MoDvv/tKrJMnyNyi9Mq5bZ95KtqqIS7wlyRLx6KSjmb5xOEc/0iP82wl5j6wnO3iPG0gb+1iZvzvz1G99jIPUOQWvmysJj58JElh4jxl/MQhbFk+HcfpMmx95KPZagux1BXymvQ3THriISqLd3gAx50VD8TTXDgdDnL+Fs7KiY+SJHucFOkoloYMw7h5BZyr6B6N9YA4Tu7nbMkWXnny31k88zlsLU3uR9j32UUegQZwMP8dlgY9KgYhpX4kTR1JQpgvZwrW4zpdLvpVpgKP9G0tNYXweSV7s19jkt8AyvO2Au247muXo2uxmi+hjhpH4uQRJMv8Ucn8WBU6jMzIp7h2bC+2BiPNtXkegdZqKsZ+soTXX/oty6ICcNktotXspyxKj07hFW5PZ2ngYFSdBu5xwUN4d9WfcJ4wYqkrdBuGG4W071w4Y+T4rkym/3EQp+qOAP2bzeFRaJe+PYdyxu9IntJpGk/qy7LgIVRtXiXOBZjysPRS25ynDSTMeo531ya5r9y/mWoezxrakfk6KwN/2UXbEqeOJHna43xj3Ib9xP5eObqcNVK2cRXqxTNx2FvdV33AoZ2rrWLlpJGkhI/sEpCMC3mU7Sum4zxZhsVUhLWHFtViKqC1oZjz5e/wRtoSmq5eBK6jemCbJ4DT0caaRWEkhD7adc5AOoYVU0ZxrmQTnD2ApUdzBPlYTHlcPbqLqj1vcvWKGNa+PqP+AOanXS9i5fdt07Mq8D+7zYGunDyc7NgALh/7BNcZ423AtQ+98jBX59JcV8z3Jw9hs1k7XeveZN16GJpo8k8eMxIfOtwdAu+UhjDdn78GDOb1ab+hsXgT9sbSbk3Q2jFh7DYWNXsxnzDSdu0bz1a1F6VPcm4vnW9ENeO3JIZ1nWxJmeZP3ORRSP/7Z6gXhGI/uR9Ltdi3tZgKxL6uVgTWYiqkpTqPpuO5OJq/woW4muB+KH0CzXzla3RzniF+ysguuR0p0/xZOXU0L/+/X5A4dzy2E/swV++h+ejHNB/bg/l4HubjuZiP7aX56B6uHf6Iy0c+oc1yuS+qedelT6A1N19GP/dFEieP6Apt+lgSpo5m1lO/YPmfn8FaW4itvgBrTS7Nx/Zy9dPdXDuyi2uHP+LqkU9oPryT5qMfY2++eMPrXO/RHlhDIOaqAVjNl8mY9zzKycNIko0lxT0nqpL5Eh8+hjnP/AeLw3/L1WO5tNYXu92PYve4Mh9rda7bSORjrtmDvenCD67UHpRygPvzA+pyXM8MszRfJn3uOJImDSNR9gQqd+a2SuZHgtSXqOcHETtxLN8e/IS2egPm2jzMtbldjUJtgRjxrd6D/dJ5d+aZiMrO9Tl0EdgPEhFc4HLdx5PF10snaNe+QTNvPIlTHuuU2yG6H0kyP/789KO88txIvijbhONUOS017cHK/G7W1FZnpO3YO1g/fpGWPS/Sui+C1uNq2i6UYm/7siMQ1K5tLsCBE0c3s+E596RvDMG170mPetod8eiaqpAo9SfrlUFULnmIqxsHY8ubgd1UTHNDRaeBfCEtpnwsDWVYTXlYto3FkSHgXC1gzxRwpAvYsyXY3hmKpTyK1lM7ab18Elw/iKW5Ov7gyfyOPnFuzc2X0UU/h3Ly0K7JfFJfVGGj+Cb95/C2AGsEnBkCtvf/gOXwZlrqy2hpNGBprOLaySrMR7Zg2/IbnBkCrrUSXGsF7DneOHMEnOsEXNkCTp2ATS9gLpyJ9fxnnLxQzDfmRroD8lxz7RNNs1mvsDrmBZImDekKTeZL0lR/TqU9DG8IsNYLV46AK0vAse4h2t77I9aCaGyFUdh2BGHP+Wcca9zA1nnjWucF67xgrfv/GoHWtQItu2firNnPRdMuMkqnkGaYyM6aeE5fLMfV0UzFhuuJ0mcLynIWT2HlpCFdkmKSZH6smuJLXeK/wBveuNYLsFYC6wRYJ8JzrhZwZYqf7TkC9hwJrnWCeOw6Adb6iACzBdrW/pS2IgXmxgra6g9gql5LamkQKcYXUJY+jWpfAO8cX8TnV4+4a+UZcB6HZmn7jn3n1pK85HckhI4Sl/l00rYVk8dyOO5nsF6CfYOoae3Q6PgswZUjETVrbafv3eLMFLBt/Dds5WlYGquwmEqw1xez89AiksqeRV0egLryWdKMQSSVPkVa2QQMX2302JJHj0Kru1DMhgMzSK54ntScP6AMGY5K+ri46q5j0O5HwZIRODcKkOWFK8cLVycgrhwB53qvbqDIEUSAmQK27b+l5egWbPUVXKkvpKXOwOemrejKQkgrfx6NMQSNcaL7fyCpZS+SWPIkB77Y4pH79Ai0NmcThQ2ZqErGkWx4Fk1FELrKEFSv/ZrE4NGkhHda0zRxOO8lTMdhWIxt0z/hzHLDyBFwrfPC+YMmKzZJAbIFHGsfwpYbRXNDLtb6YprqcrHUluCqK2RX5V9IMr5IWnkQ+rIgNMauklI2Hn35RC61fOmu9d0bhl5Dszma2HH8deL3PUWqcTxaYwhaQyDqQwFoCoJRLfwNqpfGonKDi588gpzYQKwnPqXt8BYsO8ZjW+eDM1O0pqzxwpnj7YYnQJaAM1vA/u4faTm4geaTBqw1JbTU7MVSU4yzwcDh4xqS97+IxhiA2tgdmMYYiMYYQOK+Zyk/t6m3t9zb9FE7RY3ZJBY/hbp8HJryCaSVB6M2BqMrCyKt6kWyK8NIWPR7VJPHuNcQjCZ1xhNcOPQmLScP0VJfQmulHtuOECyb/522LAF7loAjS8CZ8zNa3n+Glgo11ob9NDfuw1ZdhKWmmCZTMY56A2dMm9EbQkkxjkdjDL4BsOvgVPufY+OhmbQ5zfcKGlyxniHdEIDKOAGNMQi1MQS1MRitMYiU8omkVQaQUTqOhKgxqKa2JzKPIW7So1Tv1OM8baSptpimRgMt9Qasx97HUq6hZf8C2sqW0nbkXaz1pVgb94kOb3WxOClTUwS15XxR8x7ZBilJ5c+gdV/35tCCUBsDSS59lsbvyu4dtBOXDKSUvkDaDZ6w1hiEtiIEfUkwygh/kqeOImnaGJKlY1kWMojd6vm4Tldgq8nHbCqmqbaQlto8zPUHMTdWYq2txFJbKY4SakRQzbV5WOqKcDSU0fDZBlaXTSHJ+Bzq8gDSygNQlwfcEprGGETSvqf5yJRAb6xor6Ad/mIrytJn3X3GDZ5sRQCag1NQLv4dyaHXoa2aNIJ1ivG01Rmxmwpoqc6npboIs6kQiymPa3W5XKvfg7k2F0tNIZaaIuw1JTjry7hsyqPw8HKU5eNILh9HZukUdIYQtIYQ9IYANMZbgQshpWw8WQenc63tq/6E5uiINuQ1qFGWPn3LfkR3ZCKqdc+RFDoSpWysuOB/qi/KGU/QWL6B1hNFtDSWQO0+2kyltJkM2Gr3YTftx2Eqw9ZQQltdAd+ZPsB4NI015dNIMDyDxhCMviyUtIrxpFa8gNoYTFrFBNLKQ7rXwxCM1hgguiCGiSj3P4Ppm6L+hGYHJ7icdrYel6Msexq1MdBttQLR/lDrqoLQ7Q4icfoolOH+pElHkyIdScLUwWRvGce71XM4eHwJJ+sz+bZ+G5dOfMClU2/z3YntnG3M4VhNEnuPyVl3ZAr6qidZfWA8aw4Gkn3wBbKrxpFeNZ6MygAyyseTXvE8euOLbm0LEEGWB7pbQiAaYwhaYyDK0qfY06DqT2iillns35Bz4GVSDeNEa2kIQVM+AVVlAGrjBLTGAPTlE9AfHM/6QyFo/+qHNnQ4qdNGkyj7NSsn/xdL0oN4tVhG5Icv8fL7s5m5ZTZ/3jyfaRsWEbxhAQE5swnImsu4NQsJfGM+YW/MI+zNaKZvm8vM92Yzd+csXt09k7iCMOL3h5NaHkZGZRjZVUFkHQ5iXVUgayoCSK8ch7pyAuryQLTGAFLKxrOmagbWtiud7qhPoYnlvNmEzhhEmiEAfdlkdBUB6KpCWHMwiLVVweirJpJokPG3vBnM/SiSsLhInnolml9HLmR49DL+TZ7AP8tVDIhNRTJPhzAvDSEqEyE6HSFSgxClRYhMR4jSuyUTIXI1QqQaYc4ahOhMhHmZ/GS+locWqnj4NRWDliby+KoV/F67mBc2LOLld/7Mwt2zSSwJJ61CSvqRELKOvEDGwRfQVPyRz68cBHq+30KPobWf/ovvDWTuf47MwxNYfXgCasNUluT+iZnb5/Bc1gJGJ8bxi9cSeSg2ASEmDSEmG4k8C2GhHiE2E69YHZKYDAR5BhKFFh+5Fq9YPT6KNH4yX4+PQo+3QodEoUUSq8NboUWiSMcrVoewQI0kNo2BMel4x6QjxGQgzM9AiElFmLsaYZ4bfLQWn5gMHv6LkhHLV/AHzV+RbopG/vF0lhYFUfnlD4dVTnd8+NYY7wiaGMvrepqDf9+J4pOpyN6O4PfqV/nlkkQGKNIQojUIUTqEqGzxRhTpDIzJYIA8Ax+FGq/YDCQKPT5yHd6K6yKRZ+Kj0DFArkMSq8UrVoO3Qnv9GHkm3ooMBig04m/lWXgr9EhiteJx8gy8FXoGxGQxICYTH7keiSIDb7kOYb4eYV6mCDRyNZL5yfzLq0r+J1WFMtfAvhPnuGSxdrnjWy3svg20rj+70mIlr/4Mr+4oYXR8NgNikhEi2wGl4yVPRyLX4y3XIYnV4bVAg49Ci49Cj1esBolbe24sWnwU6q6guogISASS2e17iUKL9wIV3op0tyZ2P8cARRreinS85Rl4zc9EiNIgzFYiiVQzdHk20zbvZNOBY5z59tZThrfVtKvWFnaZThCxNZdhy9YiRKcgzExCmKtBUOhvAULr1oiMW4DqqWh/8L/rdwNj0vGRp9/09z5u+APkonYOkGsZEJOO9/zVCNGpCJFJCLNVPPyqmnFZ77L9wPHbQ3PiwuVwYHO0ceD0Fyz6YB+PLV+PEJGGMFOFMDcNL7nW3STu5CZvpVn3QrrXRxKbygCFGm+FBokiHYk8E0GegjBtFbPe3nUDZM6u0Fw4cTjbmPHmDoSIFIRZqQjROiRyLZJYNRKF5j648b4AmY7E/dlrgagYP5mrofLclzeA5urePF3Aqj0GhJkJeMfqkMSKT+He31z/iTBHy9Np23G4HNwo7nbDPu3rq0384rU1CPPcHed9cCP9JRK5HmFOPKvLxC0VHTeY+rupIVjwQTHCrGTRKv2DgBsg1yLEaPi/i3Scu3QNXHRJf7gttOq/f8tP5XqEmH8QbYvVMFCuQ4hU8somcfWLE2eHq9u5kd7S5QhbvwthdrL7xPebJfS8lnkp9HhFJ1FQfdINrT2pp2u/dktohQ1n8IpKw0uu/ofQNmFeGo8nrMPcau8G6o6h2V0unlRvQ5ij+tFrm0ShR5ipZNVug1vLnB1xwx5BA9h8oBphtsrto/34tE2icBsAuZZ/kqdy/O/fuqHdPPPt9sOoFhvDV2xAiE75UWqapN0ARKUQnLmlA5bT/elGjfSOohyJeRUIs5Lx/hFqm49ciyRWjxCZ0DHWdN3EAPQI2ueXr/Kvi7J+tM6uMF/N4NfT+abZclNQPYYGEL09361tPy5nV6LQI8xKRr69ffvXmxuAHkM7/MUFBs7X/mic3Q4DoNDhPTeZ/Se/EKG5bp/63KNwd3D2DoSIH4ezK4nVMjBGixCt5g+qDbQ42kPdt08z7RG0T2pOIsz5cTi7PnIt3go9wpwEMgsPAHe+QK1H0FodDn6jehshUuXWtAdb24QYLf+6UM2p7y/fFtRdQwNYYzyKMOvBd3YlCh3CbBXTN4jbveJydfhmHod20WLlkaU5CNGpD6SmtRsAL4UOITKRnZ81tjPjTndkvqvJ4qUflz2w7ockVstAuQZhnpYxK7O4amvl+osB7qyJ3hW0E99d4mcLMxDmP3juh49Ch49CjzAnkRU7S4Cer1C+67SEV97c2ynW9mCBE+Q6HopRceTLC25oPSt3Da38zJd4z9U8kO6HEJHKeP020RvrgQHoNTQXLsZlvIcQoeqY/rrXMG4lEoV7cK7QIUQksKH8mHgfzn5IgOlc3j9ajxCRgtcD4H50GID5en71Nx0XrjUDuF800o/QLG1t+CVuRohqj7Xd39rmoxDdjPlbdrvv4O7ybnu9jkBXcsg91Xf/a5ug0OMdpaSo4Sxw9+8B6jW0r5ua+Y/FaxDm3v/OrhCp5n+UG2mxO8F59xuje2SZz6sflty3zq5EocNH4R6cz05ElVcBiAbgbpPiPQLNdOE7HlKk35exNolCx0C5FiEmk/+zUM2Jry8B9OpNUx5bhRe+4eP7dmLZR65HiFQhXfOeu7a9W2XsMWjFjWfxilL3ibPrc9PsyHa59feCQo8QoeTdI3VA7xdmewyaw+XiSfX2O5pYltwWlNgH+cgzGCjXujMYb3SedLwUmXj/MD/3h9CiNYxatoZLVhu4er+22KOLZN86WIMwO+Wm7oePPN2dbnrjNM/29E6vWDEZeYBcK2aBK/QMkKs7nUeHt1xMRhanFdXd0lglCj3esSJwISKBRR+6V6h4YMMEj0K7ZmtlxIo3Ok0s65HEiknEPgotkgVqfBRqBsZk4KMQMyyFGC3CXLWYwh6RihCZgjA7BSFCiRCRIH6epUSYnYQwO1n8PycVIVqFMDcZISYNL3fGt49ch49Cg7dCTJAeKE9DiMlgYIyKqnPiWihPvH/F42vYlXmVorPbkc2tx0ehwys2A6/5eoQ5eoSIZISIJIQoFT+NTWXw61k8odrIc1lbmP7GDqK35bLwwwKWfFTKio/2E7fLyMId+5j/XgEvb9rF+DU7+N+UNxi6bAMPx2aKScYRqQizUxHmpCDM0yNRaPmJXIMQpeJ57ZvuHWHuy3054PMr13j4r5kIc3V4x+jFdQURqQizVTyk0OOv3MjLGz8ipfAQO6sbqTn/DRearVicPetpbE4n31ktNHz7PQW1Z8gsPUL01j08mfYWP1+kR5irErX05RVkl7XvUHpf7gAjVmr+tlyE6XEIkSqGLlvDnzbtYmP5UWq++ppWx+12QbtRQND9zj1X52Nu8muXizMXL/HRp/VEbd/D07r1nL3YJC6Cu/sb61L6ZF+OQ1/8ndlbdrL3+Em+s97q9R3Xt1266Q25+XXeS8jV5WsXTm6cUAzQ5nDhcjjBcZ/vAHO7R3r95u80LHNzKDe6nHhWJy5XK2Kmmd1jTRP6CNpthyj9sP+luC2B+GJeT1+qz7bNudelL5/JjxZaX5YHAtqNlk7e+KgH4s0X/VNccKvExM5H9Uv5/44PvfaUfuujAAAAAElFTkSuQmCC;" vertex="1" parent="X8rtFN3A78l9VNLj1SrO-70">
          <mxGeometry x="180" y="26" width="77" height="114" as="geometry" />
        </mxCell>
        <mxCell id="X8rtFN3A78l9VNLj1SrO-13" value="" style="shape=image;verticalLabelPosition=bottom;labelBackgroundColor=default;verticalAlign=top;aspect=fixed;imageAspect=0;image=data:image/png,iVBORw0KGgoAAAANSUhEUgAAAIsAAABdCAYAAACVfpXNAAAVGklEQVR4nO2dd1BUV/vHd9eGShEWIxaMsYs6itjiqGjGaGw4waDoiwwxhFFjARI1YsSg6CAB6yjlh1ior4qiFCNIk6IUSWARBI2CIihNaVEU+P7+0L0vd2+Byy67a3K/M2dM2PPcU+7nnnPuc8oV4CNWdXU1hg8fDoFAoPZBT08PDx48UHWVySWBqjMgj27evKlyCLiE69evq7rK5NJHDUtSUhLpZgiFQtabJRQKaeN0xK6zgLS1jYmJUXWVyaV/FCwCgQCjRo2CqakpZs+eTQRTU1N8NmwY440XCoUYPnw4TOeR7ebPn4/Ro0ezwjJ06NAP6c0h7ObNmwcjIyMeFnWSLCx9+/ZlHBfcu3cPPXv2pL3hIpEIGekZtHaPHz+GpqYmIywJCQm0dtXV1RgwYAApLg+LCiULi1gsRnV1NW3cqqoq6OjoMMKSn59Pa1dRUcFoJxAIGO3evHmDTz/9lIdFXSQLi56eHp4/f04bt7y8HNra2oyw5Obm0tqVlZUx2gkEAuTk5NDaNTQ0wNDQkIdFXSQLi66uLsrLy2njlpeXQ0fBsAiFQkY7Olhu3LihsLKrQv8aWJ49ewYtLS2FwyKRSGjteFjUTLKw9OvXD/X19bRxa2trGQeqIpEIjx8/prVrbGxkHLMIhUJWR5vsmOX3339XRLFVpn8ULN26dcOWLVvg4+MDb29veHt7w8vLC76+vti0aRO6devGeNPt7OxIdt4f7BwdHdG9e3eIRCJa27Vr18LHxwdeXl6Era+vL3bt2gUNDQ3SqzMPiwpF52dhC0z+ko443TrrmONhURNxhUXVgYdFheJhUa7+VbAIhULGsUd7dp3thtqmx08kqlB0sKyzssJvv/1GBA8PD3h4eMDGxoYVlDVr1sDDw4Nia2dnh+7duzParVplAXd3d0p6W7duRc+ePUmQ8bCoULKwaGtr49WrV7Rxq6ur0bt3b9ob3q1bNzx69IjWrqGhgdXdf+/ePcb8yfpZeFhUKLq5oYqKCtq4T548QZ8+fRi7CibnGts0gUAgYHTmNTY28rCok7jMDZWUlLDC0lkPLpe5IR4WFepjgyU6OlphZVeF/lGwiMViVFVV0cZ9VlrKCgvT2OPFixes7n4mu9evX2Po0KE8LOoiWVi0tLRQXFxMG/evR48YB7gikQjZ2dm0dmVlZdDU1GR8dU5OTqa1q6+vx8CBA3lY1EV0r84TJkzAsmXLsGTJkvdh6RIsX74c48ePZ12DO378eCxZuuR/dkuWYOnSpTA2Nma1Gz58OBFX+u+yZcswdepUig0PiwqlqLkhZdlFRUWpusrk0r8KFlUHHhYVSlmwyLMVhIdFTcQEi0gkIsYZbeeD2pvjkY3Xnp30b23TEgqFpHUzbe14WFQoWVh69uyJgIAASCQS5ObmEiEvLw9nzp5Bjx49GFuOU6dO0dqFhoaiV69ejIC5ubmRbHJzcyHJk+DatasU/wwPiwpF52dpaGigjVtTU4O+ffvS3nC2uaH6+nrWuSG2ZZXDPmxsk4bIyEiFlFtV+kfBomwPrkDAbSsID4sKpWpYuLr7IyIiFFZ2VYiHhYelw1ILWFpbWzscr21cWVj09fVRV1dHa1tZWck6ZmEae9TW1qJfv36MsBQWFjLmV3YrCA+LgvTmzRuEh4dj06ZNWLp0KRYtWoSVK1fCyckJMTExePfuHQCwwqKhoYHo6GiUl5cToaysDOXl5YiMjGR9GwoODibFl/4bGxvLOKckEAjg4+ODsrIykl1ZWRnS0tKgq6tLenW+du2aqqpXIVILWMLCwjBx4kTGGyIQCDBlyhRcunSJZEfnZ+nevTv69esHbW1tIujo6BC+DyY/i0gkorWTLqlk87O0tdHW1oaWthZh13YpJw+LnNq5cycrJLJhw4YNRCuTmJjIyVbZQRawq1evqri25ZNKYXF23tOpire0tERLSwuSk5NVDgSXwMPCUdIxR3x8vFwVX1BQgOzsbLmfdmXa8bBwlPSNZu7cuXLdhOTkZOTk5FD+bmhoiBkzZmDatGlEmDFjBgwNDVnnhgYPHkxrN2zYMFY7sVgMExMTTJ8+HdOmTcP06dMxY8YM4hRNHhY59eDBA9IkXGdgiYmJQW5uLulvmpqajCcx5ebmQkNDg/ZaIpEIKSkpjHllOyaMaUHT8+fPKceE8bBwVHl5OdauXStXFySt+DyJhPKU19TUMKbL5GcRiUQoKCigtausrGSdG2Kya2pqovhZwsPDFVaPqpBSYfH39yfWpcq7RiQsLAx5eXmkv6n73BAPSzuSDmg9PT2JSlPEYiJ1gIWru5+HhUVSULriFZcOFrFYjBcvXtDmpatg4XKmHA9LB7Ro4UKFtShssOjo6DDODb18+ZIVFrZjwpjmhgQCAae5IR6WdlRcXMx4WLG8sNy7d4/ypDs4OCAoKAjnzp0jQmBgILZv304st6S73ubNmxEYGIiz584SdkFBQdi9ezfrKQobNmxAYGAgKb2goCC4urpSVtjxsLSjrnLJ08HSXpDHsaYIpxwPSzuKjo7uMlhkuyF1DzwsLGptbcWDBw9w/PhxxMTEICUlBWfPnoXVf/7DOH7gYVFfKeVtiE7FxcWYM2cOa7PdHixcuyEu11dUaJvelStXurK6u1xKeRuKjY2FjY0NZs+ejS+++AI//fQT8fax8MObUmdaFllYRCIRVq9eDRcXFzg7O2Pv3r3Yu3cvXFxcsMrCgnWA29nw1VdfkdJzdnbGr7/+iu/Wr0eP7t15WDqq5uZm2Nra0lZy7969ce7cOQCARCLB3bt3cfbsWSxevLhDrcCVK1cosOjo6ODly5e0eamprmZ098vTaty/f5+x/LJ+Fh4WGkm7nx07drRb4e7u7oiKikJWVhZhHxQUxLqUUSB43//LwtLZs/vlgSUvL482PbpjwnhYZNTa0gLg/ZhEuuaV7pRIulbDyMiI2LX33/+GcoZFT0+P9asgdJ5Y2XwYGBhg7NixGDJkSLv55erB5WFpo5bmZgDvZ1yZup/2gkgkIr4OZmZmxhgvIiIC+fn5FFi4fG+oLQArV65EXFwcqqur8fbtW9TW1iItLQ1WVlaMwHCdG6KDpbCw8KNZm6vwlqW8vByzZ89mfBrZgnRR9cyZMwEAERERjHGjo6MpsIjFYlRWVtLmi+6LZNL8HTt2jLVMZ86cofXisnVDdMeE0cGyfPly9OrVi3HbrTpJobC8ffsW8+bNk2sMIBC8X6FfUVGBoqIixrgxMTGUbkhLSwulpaW0eSsuLqZd/PTLL78Qcdhe9Y8cOUL7AGRk0H9b8fXr1xg0aBAjLK9fv0ZdXR3GjhkDgeD91ta6ujrU1dWhtra2w4Hp3N+ukEJhUeR3lh89esQKS3x8HK2fZerUqVi9ejXMzc3x9ddfY+XKlVi1ahWMjY0pcYcPH46///67Q2VraWnBlClTKNeYNGkSLCwsiPTMv/4aFhYWmDNnDmWs1haWHTt2QFdXl2hN+/TpA11dXejq6kIsFhP/zRTEYjH09PSgpaWF1atW4dmzZ4q8lbRSKCw+Pj5yASJ9anV1ddHU1MTaDSUkJFC6oY5eXxp2797doXJJW5wDBw6wXq+90BaWzZs3K+ShEovF+Oabb/D06VNF3kpaKRSWoKAguQoufRI3b94MAFixYgXpxkydOhVGRkbQ19dHZmaW3O7+48ePcyrf+fPn5Uqvrbu/uroaJSUlGD9+PAQCAUJDQ/D06VNUVlbC09MTNTU1ePXqFWPw9/dHzp9/KnWso1BYnj9/Dn19/U49ddIwceJENDY24sqVK5TfsrOz0dzcjKqqKrS0tOD27dty3bz2Brayunz5slwtGd3ckLR7vHPnDgAgPT0dlpaW8PPzQ0pKChITExEXF4ekpCQkJycjLS0NSUlJsLOzQ3BwMBobGyl7wLtKCn8bCg0NJR2vxfUGWltbAwDMzc0pv/3xxx+ktO7cuUOJM2jQIJiYmGDSpElEMDY2xsCBAyn54dqy0AE8YMAAGBsbk9KbMmUK5bWZCZbJkycTZUtLTeVcX0FBQZ2/WRylMFhaW1vR/MHPkpiYCBMTk0497evWrQMA2NjYUH67e/cuKU1ZWPr26UP4PaRPm/SJu3s3i7IISxGwSL+oKpvekydPIBaLOwxLTk4O7dofU1NT5OXlYevWrbT1FRgYyKkM8kihLUvbpjAsLKxTzbWHhwcAYOPGjZR4t2/fJqWXkZFB+p1tKwjdF+NPnDjBqXzh4eGUfDPtUwKAUaNGkeLT7RuSdkM5OTm4desWBRTp9evq6mgHxQEBAZzKII+6bCKR7ZMtTGHSpEmE32Dbtm2U35OSkkhpZGZmkn7n6sFVBCxMHtympiaMGDFCLljc3NxIcel2YJ4+fZpTGeRRl846Hz58uMOgmJqaoqSkhLB1cHCgxImNiSFd/2ODhc6tzwbLoEGDcPDgQQDvZ+bp/DynTp3iVAZ51OXrWc6fP4/PP/8choaGpO2cRuPG4fLly7h48SLi4uLQ8mECUip7e3tKxci6y7Oyski/c5115lrRdLAwfdTqzZs3xH5naaA7gFAKQE5ODu1hAUKhEHv27MGsWbNoHzJvb29OZZBHStuR2NjYiMyMDOJNadmyZazx6WDx9fUlxbl79y7p9379+jFuBamto34x3sfHh1MZ6GBhOhIVAD777LMOw5KdnY2srCzWfdWyoUePHkr9eIRSt6+WlJQQbySLFi1ijWtnZ0epHGdnZ1KcP//8k/R7t27dsHv3bly6dAkhISEICQlBcHAwLl68iF27dlG+GO/n58cp/9euXaPAsmHDBtr0Dh06RFmTQ3djpbBIZ9qfPHkCiUTSoVBUVKQU/4pUSoXl4cOHBCyzZs1ijUu3ef67774jxZHk5nLy5chu6Thz5gyn/EdFRXU4LWloOz9E911nKSyJiYmc8qIKqQwWIyMjwi9Dp7aufmlYsGABKY5EIuEMS9v/P3/+PKf8d2ZbS9s0Y2QG6AC1ZVGWN7YzUiosBQUFRFcwePBg1ul16ZqYtmHcuHEkwPLz8yldC5fA1UcRJ+es+s2bNynXlMISHx/PKS+qkFJhSU9PJyqud+/ejPuL3717hzEf1nm0DTo6OqRXY9nzWQSC92th9PX1MXLkSMyYMQNLly6FtbU17O3tsX//fhw7dgznz5/HhQsXOE/rv3r1CmFhYThz5gyOHDmCAwcOwMHBATY2NjAzM8PMmTMxcuRI9O/fn3axVGxsLOWaUlhu3brFKS+qkFJhSYhPIFVeamoqbbyKigqKq1wa0tPTiXgvXrzA9u3b4erqiuDgYCQlJaGosJCYaFSFmpqaUFFRgfv37yMpMRGBAQFwdXXFtm3baB8OqS+GbZeAukipsFy6dKlDYwapp7JHjx4YMWIEli9fDmdnZ4SFhXV4ZZj0pj18+BAZGRmIjY1FeHg4zp07Bx8fH7i5ucHZ2Rl79uzBjh07YG9vjy1btmDLli2wt7eHo6Mjdu3aBWdnZ7i4uODo0aPw8/NDSEgIIiMjkZKSAolEgpKSEtTU1LCOv9hkbW2NsWPHMm5hUScpBRbpgM3D4zcSLFu3bqWN//TpU4SGhDAekd7S0oKKigrk5uYiKioK3t7e2PXzz1izZg3mzp2LUaNGQU9PT2m7D/v06YPBgwfDxMQEy5cvx8aNG3Ho0CGEhobidloaiouL8ebNG8b6aW5uVttBbVsptWVZtWoVUcF9+/aFk5NTuzZVVVVITU2Fn9//4UdHRyxevBgjRoxAd4aBbc+ePTFo0CAYGxtj4cKFsLKygoODA/bt24ejR4/C398fISEhuH79OuLj45CQkIDU1FRkZGQgMzMTmZmZyMrKQnp6Om7duoW4uDjExsbiypUrCAgIgJeXF9zc3PDzzz/Dzs4OK1aswKxZszBq1CjW48T69++PmTNnYv369XB3d0dkZCQKCwtZIVI3KQ2Wd+/eYfXq1bC2tkZQUBCePHlCiVNWVoa4uDh4eHjA0tISY8aMoW0dhgwZAlNTU9ja2sLNzQ3BwcG4desWioqKUFVVRZzArWzV19ejpKQE2dnZiIiIwMmTJ+Ho6AgzMzOMGzeOdsG4gYEBvvzyS+zYsQMXL15EQUEBmpqaaK+v6tZHabDQFbSwsBABAQH44YcfMHnyZAoYn3zyCebPnw9HR0f4+/sjNTUVpaWlePv2rbKyrVBVV1dDIpHgclgY9u3bBwsLC4wePZr2YTA3N8fhw4eRlpaG+vp6VWcdgArc/cHBwbC1taVMsmlpaWH+/PnYuXMnLl28iPz8/A6vvFdHddS51traitLSUsTFxeE3d3eYm5tTVtmJxWKYmZnh2LFjyMrKYu66utih16WwNDTUIyEhAU5OTpStGAYGBrCwsMDx48eRlpam1P0v6q6mpibk5+cjICAAdnZ2FJ+ToaEh1q9fj9DQUJSVlSktXwqH5cWLF7hw4QKsrKzQv39/ooAaGhpYtGgRPD09kZmZidevXys66Y9e71sFasvQ0tKCgoIC+Pv7Y82aNTAwMCA5IZcsWQIvLy/Wj3sqQgqBpbS0FGfPnoWZmRlpneuIESOxadMmREZGMm4r5cVdDQ0NSE5Oxp49eygLokxNTXHixAk8fPiQYidvF9VpWF6+fIkLFy5g5cqVJNe2iYkJ9u/fj4yMjE47qnhxU15eHjw9PSknaS1YsACnT59mXBDGVe3C0pbG1tZWxMfHw9bWFrq6ukSmpk6dCnd3d9y7d08hmeLVeT18+BAnTpwgvroinYezsrLC9evXSW4FrjPcHWpZHj16BHd3d0yYMIHIwMiRI+Dk5EQ6hIeXeikvTwJXV1cYGRkR923s2LE4ePAgbTfVnhhhaW1tRUxMDCwtLUmD1HXr1uHGjRsUx5eUUFU7jv7tYqr/xMREfP/99+ir+b+j0iwtLSkz4WytDQWWqqoqnDp1CpMmTSIuamxsjJMnTzKunOf18aiiogK+vr6YPn06aZx5+vRp1NbWstoSsBQVFWHnzp3Q09MjLmJtbf1RLPfj1TmlpKTAxsaG8JwbGBjAxcWF8UQGQV5eHr799lsCkIEDB8LFxYV11Tqvf5aKi4uxb98+wn/Tq1cv2Nvb46+//iLitLa2QiBdljh58mT4+fmpzTwEL+WrtrYWPj4+GDduHASC94vNt27dSgyGBVFRUcTmbl68gPfra0JDQ4lxq6amJn788UfVfwScl3rr2tWr0NDQgJaWFv4f9S5zbYJBylAAAAAASUVORK5CYII=;" vertex="1" parent="X8rtFN3A78l9VNLj1SrO-70">
          <mxGeometry x="10" y="36.5" width="139" height="93" as="geometry" />
        </mxCell>
        <mxCell id="X8rtFN3A78l9VNLj1SrO-28" value="" style="shape=image;verticalLabelPosition=bottom;labelBackgroundColor=default;verticalAlign=top;aspect=fixed;imageAspect=0;image=data:image/png,iVBORw0KGgoAAAANSUhEUgAAAE0AAAByCAYAAAAWJVzIAAAc0UlEQVR4nOWdeVRUV7bwLwW6uvNer+/l9ftev9dtjFMcAJN+/brf686XzmSiTOIAVRo7aRUBlSo0bceOigNDUUBNgKCiUZM4ZNSYqMyIVAHiEI1QTM4ZbDM5QlVRUMPv++MWCMEJKVDTZ60NtVbduvfc393n7H322edcgfutuJz3uga3LcK9rsCNiguA+xfePYdmb7PSar1Kq+0auGw3Owpw9Ge1blnuCbTzp2rZ95aKzXEzWLswiIzYQDIWBrH+9XC2pyoo2qKm9mAJTZf/3vEbV6e/97r0K7Qz1QfZppxH/NRRLA34FatCHiEh9BGWT3mM+EkjWDVxGCuDHyEucBBxoSNRRTzDjqwlnKs/3HGO69icuLg3GPsF2sULZ3hf/Srxk4azPOiXJIaPJlnmh0rqR6LsCZKl/qikfihl/iTJxpIs9SU1bARJk4cTFzCIFeGj+ED/Gle/OQ/c+z6vz6F9ZtiD6pXfExf4S5Thj5E0TQTULilSX1KkY0iW+ZEsE8EpZf6opGNQyvxQyh4nKXwkywL/E03EM5z6zOA+871rqn0A7boGlGzXkxA8mMTQwSin+ZIoewKlbCwqqR/JUr8OUO2imuZP/JSRrAwdhlLqi0rmT7LUzw3Pj8SJg0kKH0PDoYKOa9yLvs4j0FwdYsflhpb7lpolgY+SFDaKxGlPoJQ9jkrqT4rUtxusZJkfSqkvSpk/hpy/8N6qGaycNJKE0KGkyMaQLPN1a+BYEkMfIeml/+brs7Xuazv7Xec8CM3ZoWNVu9azLHAQSeGjSZrmR/JNQHURqS/LQ0dxInctnD9Ew54ssmNeYFnwEJKko1BJx5Ak+zXJMn9WBA3i7aUv4XDYAdeDCQ3o8OTPVRtZNXkkCVNHoJT5kSy7A2AyP1Tho1g5cTjVO/U4TlfgOlOB1ZTPDuUsloYMQRU+qotWrggejKkyT7w0jn4F59E+zWa5QvaCIFaGDEY5zf+OYHVI+GiU4b58uf9NWk+UYqkpoLWhFE4byNXHEhc8tIvGrgx+hK0Jf3Zf2dmvttSj0Co+yGBpwK96Bssty0OGsPEvQdgairDUFmI1FWA1FWKrK4HTZexIms3S4GEdxyeFj0YpHc2Fjr6t/7y2XkJz0e5kNl/9Dk3k8yRMGt5DYP4kho1mxaSRnNibhfPkfjcwUSw1BbQ17MNqyiUr5kVWdDp/XOCvKNmmcVfF1W/gegnNics9Jqza+xZxAY908blu24/J/EicOoKlIUMxbl6O60wpFlN+F2jWmgLMpkKcp4x8XpRDfNgYksJE5zg+dBjrF02kzdHa4Xr0h1nodfN0Ak5HK28skZEQMsjd+d9OfFHJRrMqZCgJU8dwaEs8rjNlmOvyMdcWdIVmysdcm0ezqRjOGilZ+xpLg4d0GITlE4dwvHQn0H/uh0f6tK/OHCde+jiqsMdQym5vAJLCRrAsaDBr5OM5V7QRzlRgri3GbCrEair6AbQCrKY8zLUFWOqLsDWWsnFRKCsnDiVV6s/K0GFkxkzA2twkapmr7xtor6C1V67yozXEBQ0WPfhbaFey1JflwcNIkj1BybrFtNTl4zplwFxTiKUbqK5iMRXQVJtP26kyLhi3ipo2eSQqqR9LAwdRsXOju1J97370Apqzo/94J2U+K4IHd/fyZX4opf6opP4kTH2MZSFDeftvU/i6bAucNWCrK8Jac2tY3eDVFMDZCgwbl/K3wEdJlo4iPnQYaxeEYLc20R+N9K6htQOzWq6RETOexMnDugNzd/YrJw1FOf0JqrYk4DxZiv2EEXMPYXWWltoi7Cf28WFyBK8HPcryoMGsmvZfXLxwGuD+hdbeOL/98gSql35NUtiobpqWIvVnRegI0qOf4SvDFjhXiaWuxN133T00q6mA1vpiWhuLObRlFRsXvMibS8JpMX/vrpuTvgwd9RramepyEiaPIEk6uhu0VZMeQzfnKS4e/hBOG2/bb/VY6opwNubT+ul2mo5+gKP5fKe69Z229dp61lXsZlXIEJTSMV3HmdIxLJ8yiro92XC2HEtNvmeBmQqw1hbSVL0H86GtNB14G/O5Tz3B5LblLqB1fYpHSnayPHgoSqkvybIxHZZyxeQhbHotBPvJ/Vhre98cbyyFNFfv5eLhDzFXbsJq2gsuu+fo3KT0GtqnRe8TH/QIqvDRYscv9Ucl9WXpxCFUbIqDM8Y+AWYxFWKuLcJSvZsrh97h8sGtNFd/DE6L5+jcpPS6eR7dv4uVwY+i6jx8ko5kVbg/Z4s2i5rmcWj5mE0FWGpLaK7ew7XDb3Pt4Js0m/JwuVrvTz+tc4i5viqX5ZOGdQnbJE4djj7ij1z7dC/W+mLMtZ7tzyymfMy1+bTUFmE5vpurh7bTdGAzLafLuc8H7OJA/fOGY8SH+6IMv249V4YO463FU3DWG7CaSjwOzWoqoLk2H6upEPNnu7latRXLkW3YL57slzhHr5vn1cvnSZn1e5RTRribph/Lg4eQp4+B00aspmKaa28/TOq5thXQYirCcmwP9pqdNOZm8fUX9fc7NNF5dLnaWL9MSkLIkI5Yf9zEERx5NxnXaQNmUyHm2kKsHnBou0hNAbaaIlyNRZzYrSM+MoDvv/tKrJMnyNyi9Mq5bZ95KtqqIS7wlyRLx6KSjmb5xOEc/0iP82wl5j6wnO3iPG0gb+1iZvzvz1G99jIPUOQWvmysJj58JElh4jxl/MQhbFk+HcfpMmx95KPZagux1BXymvQ3THriISqLd3gAx50VD8TTXDgdDnL+Fs7KiY+SJHucFOkoloYMw7h5BZyr6B6N9YA4Tu7nbMkWXnny31k88zlsLU3uR9j32UUegQZwMP8dlgY9KgYhpX4kTR1JQpgvZwrW4zpdLvpVpgKP9G0tNYXweSV7s19jkt8AyvO2Au247muXo2uxmi+hjhpH4uQRJMv8Ucn8WBU6jMzIp7h2bC+2BiPNtXkegdZqKsZ+soTXX/oty6ICcNktotXspyxKj07hFW5PZ2ngYFSdBu5xwUN4d9WfcJ4wYqkrdBuGG4W071w4Y+T4rkym/3EQp+qOAP2bzeFRaJe+PYdyxu9IntJpGk/qy7LgIVRtXiXOBZjysPRS25ynDSTMeo531ya5r9y/mWoezxrakfk6KwN/2UXbEqeOJHna43xj3Ib9xP5eObqcNVK2cRXqxTNx2FvdV33AoZ2rrWLlpJGkhI/sEpCMC3mU7Sum4zxZhsVUhLWHFtViKqC1oZjz5e/wRtoSmq5eBK6jemCbJ4DT0caaRWEkhD7adc5AOoYVU0ZxrmQTnD2ApUdzBPlYTHlcPbqLqj1vcvWKGNa+PqP+AOanXS9i5fdt07Mq8D+7zYGunDyc7NgALh/7BNcZ423AtQ+98jBX59JcV8z3Jw9hs1k7XeveZN16GJpo8k8eMxIfOtwdAu+UhjDdn78GDOb1ab+hsXgT9sbSbk3Q2jFh7DYWNXsxnzDSdu0bz1a1F6VPcm4vnW9ENeO3JIZ1nWxJmeZP3ORRSP/7Z6gXhGI/uR9Ltdi3tZgKxL6uVgTWYiqkpTqPpuO5OJq/woW4muB+KH0CzXzla3RzniF+ysguuR0p0/xZOXU0L/+/X5A4dzy2E/swV++h+ejHNB/bg/l4HubjuZiP7aX56B6uHf6Iy0c+oc1yuS+qedelT6A1N19GP/dFEieP6Apt+lgSpo5m1lO/YPmfn8FaW4itvgBrTS7Nx/Zy9dPdXDuyi2uHP+LqkU9oPryT5qMfY2++eMPrXO/RHlhDIOaqAVjNl8mY9zzKycNIko0lxT0nqpL5Eh8+hjnP/AeLw3/L1WO5tNYXu92PYve4Mh9rda7bSORjrtmDvenCD67UHpRygPvzA+pyXM8MszRfJn3uOJImDSNR9gQqd+a2SuZHgtSXqOcHETtxLN8e/IS2egPm2jzMtbldjUJtgRjxrd6D/dJ5d+aZiMrO9Tl0EdgPEhFc4HLdx5PF10snaNe+QTNvPIlTHuuU2yG6H0kyP/789KO88txIvijbhONUOS017cHK/G7W1FZnpO3YO1g/fpGWPS/Sui+C1uNq2i6UYm/7siMQ1K5tLsCBE0c3s+E596RvDMG170mPetod8eiaqpAo9SfrlUFULnmIqxsHY8ubgd1UTHNDRaeBfCEtpnwsDWVYTXlYto3FkSHgXC1gzxRwpAvYsyXY3hmKpTyK1lM7ab18Elw/iKW5Ov7gyfyOPnFuzc2X0UU/h3Ly0K7JfFJfVGGj+Cb95/C2AGsEnBkCtvf/gOXwZlrqy2hpNGBprOLaySrMR7Zg2/IbnBkCrrUSXGsF7DneOHMEnOsEXNkCTp2ATS9gLpyJ9fxnnLxQzDfmRroD8lxz7RNNs1mvsDrmBZImDekKTeZL0lR/TqU9DG8IsNYLV46AK0vAse4h2t77I9aCaGyFUdh2BGHP+Wcca9zA1nnjWucF67xgrfv/GoHWtQItu2firNnPRdMuMkqnkGaYyM6aeE5fLMfV0UzFhuuJ0mcLynIWT2HlpCFdkmKSZH6smuJLXeK/wBveuNYLsFYC6wRYJ8JzrhZwZYqf7TkC9hwJrnWCeOw6Adb6iACzBdrW/pS2IgXmxgra6g9gql5LamkQKcYXUJY+jWpfAO8cX8TnV4+4a+UZcB6HZmn7jn3n1pK85HckhI4Sl/l00rYVk8dyOO5nsF6CfYOoae3Q6PgswZUjETVrbafv3eLMFLBt/Dds5WlYGquwmEqw1xez89AiksqeRV0egLryWdKMQSSVPkVa2QQMX2302JJHj0Kru1DMhgMzSK54ntScP6AMGY5K+ri46q5j0O5HwZIRODcKkOWFK8cLVycgrhwB53qvbqDIEUSAmQK27b+l5egWbPUVXKkvpKXOwOemrejKQkgrfx6NMQSNcaL7fyCpZS+SWPIkB77Y4pH79Ai0NmcThQ2ZqErGkWx4Fk1FELrKEFSv/ZrE4NGkhHda0zRxOO8lTMdhWIxt0z/hzHLDyBFwrfPC+YMmKzZJAbIFHGsfwpYbRXNDLtb6YprqcrHUluCqK2RX5V9IMr5IWnkQ+rIgNMauklI2Hn35RC61fOmu9d0bhl5Dszma2HH8deL3PUWqcTxaYwhaQyDqQwFoCoJRLfwNqpfGonKDi588gpzYQKwnPqXt8BYsO8ZjW+eDM1O0pqzxwpnj7YYnQJaAM1vA/u4faTm4geaTBqw1JbTU7MVSU4yzwcDh4xqS97+IxhiA2tgdmMYYiMYYQOK+Zyk/t6m3t9zb9FE7RY3ZJBY/hbp8HJryCaSVB6M2BqMrCyKt6kWyK8NIWPR7VJPHuNcQjCZ1xhNcOPQmLScP0VJfQmulHtuOECyb/522LAF7loAjS8CZ8zNa3n+Glgo11ob9NDfuw1ZdhKWmmCZTMY56A2dMm9EbQkkxjkdjDL4BsOvgVPufY+OhmbQ5zfcKGlyxniHdEIDKOAGNMQi1MQS1MRitMYiU8omkVQaQUTqOhKgxqKa2JzKPIW7So1Tv1OM8baSptpimRgMt9Qasx97HUq6hZf8C2sqW0nbkXaz1pVgb94kOb3WxOClTUwS15XxR8x7ZBilJ5c+gdV/35tCCUBsDSS59lsbvyu4dtBOXDKSUvkDaDZ6w1hiEtiIEfUkwygh/kqeOImnaGJKlY1kWMojd6vm4Tldgq8nHbCqmqbaQlto8zPUHMTdWYq2txFJbKY4SakRQzbV5WOqKcDSU0fDZBlaXTSHJ+Bzq8gDSygNQlwfcEprGGETSvqf5yJRAb6xor6Ad/mIrytJn3X3GDZ5sRQCag1NQLv4dyaHXoa2aNIJ1ivG01Rmxmwpoqc6npboIs6kQiymPa3W5XKvfg7k2F0tNIZaaIuw1JTjry7hsyqPw8HKU5eNILh9HZukUdIYQtIYQ9IYANMZbgQshpWw8WQenc63tq/6E5uiINuQ1qFGWPn3LfkR3ZCKqdc+RFDoSpWysuOB/qi/KGU/QWL6B1hNFtDSWQO0+2kyltJkM2Gr3YTftx2Eqw9ZQQltdAd+ZPsB4NI015dNIMDyDxhCMviyUtIrxpFa8gNoYTFrFBNLKQ7rXwxCM1hgguiCGiSj3P4Ppm6L+hGYHJ7icdrYel6Msexq1MdBttQLR/lDrqoLQ7Q4icfoolOH+pElHkyIdScLUwWRvGce71XM4eHwJJ+sz+bZ+G5dOfMClU2/z3YntnG3M4VhNEnuPyVl3ZAr6qidZfWA8aw4Gkn3wBbKrxpFeNZ6MygAyyseTXvE8euOLbm0LEEGWB7pbQiAaYwhaYyDK0qfY06DqT2iillns35Bz4GVSDeNEa2kIQVM+AVVlAGrjBLTGAPTlE9AfHM/6QyFo/+qHNnQ4qdNGkyj7NSsn/xdL0oN4tVhG5Icv8fL7s5m5ZTZ/3jyfaRsWEbxhAQE5swnImsu4NQsJfGM+YW/MI+zNaKZvm8vM92Yzd+csXt09k7iCMOL3h5NaHkZGZRjZVUFkHQ5iXVUgayoCSK8ch7pyAuryQLTGAFLKxrOmagbWtiud7qhPoYnlvNmEzhhEmiEAfdlkdBUB6KpCWHMwiLVVweirJpJokPG3vBnM/SiSsLhInnolml9HLmR49DL+TZ7AP8tVDIhNRTJPhzAvDSEqEyE6HSFSgxClRYhMR4jSuyUTIXI1QqQaYc4ahOhMhHmZ/GS+locWqnj4NRWDliby+KoV/F67mBc2LOLld/7Mwt2zSSwJJ61CSvqRELKOvEDGwRfQVPyRz68cBHq+30KPobWf/ovvDWTuf47MwxNYfXgCasNUluT+iZnb5/Bc1gJGJ8bxi9cSeSg2ASEmDSEmG4k8C2GhHiE2E69YHZKYDAR5BhKFFh+5Fq9YPT6KNH4yX4+PQo+3QodEoUUSq8NboUWiSMcrVoewQI0kNo2BMel4x6QjxGQgzM9AiElFmLsaYZ4bfLQWn5gMHv6LkhHLV/AHzV+RbopG/vF0lhYFUfnlD4dVTnd8+NYY7wiaGMvrepqDf9+J4pOpyN6O4PfqV/nlkkQGKNIQojUIUTqEqGzxRhTpDIzJYIA8Ax+FGq/YDCQKPT5yHd6K6yKRZ+Kj0DFArkMSq8UrVoO3Qnv9GHkm3ooMBig04m/lWXgr9EhiteJx8gy8FXoGxGQxICYTH7keiSIDb7kOYb4eYV6mCDRyNZL5yfzLq0r+J1WFMtfAvhPnuGSxdrnjWy3svg20rj+70mIlr/4Mr+4oYXR8NgNikhEi2wGl4yVPRyLX4y3XIYnV4bVAg49Ci49Cj1esBolbe24sWnwU6q6guogISASS2e17iUKL9wIV3op0tyZ2P8cARRreinS85Rl4zc9EiNIgzFYiiVQzdHk20zbvZNOBY5z59tZThrfVtKvWFnaZThCxNZdhy9YiRKcgzExCmKtBUOhvAULr1oiMW4DqqWh/8L/rdwNj0vGRp9/09z5u+APkonYOkGsZEJOO9/zVCNGpCJFJCLNVPPyqmnFZ77L9wPHbQ3PiwuVwYHO0ceD0Fyz6YB+PLV+PEJGGMFOFMDcNL7nW3STu5CZvpVn3QrrXRxKbygCFGm+FBokiHYk8E0GegjBtFbPe3nUDZM6u0Fw4cTjbmPHmDoSIFIRZqQjROiRyLZJYNRKF5j648b4AmY7E/dlrgagYP5mrofLclzeA5urePF3Aqj0GhJkJeMfqkMSKT+He31z/iTBHy9Np23G4HNwo7nbDPu3rq0384rU1CPPcHed9cCP9JRK5HmFOPKvLxC0VHTeY+rupIVjwQTHCrGTRKv2DgBsg1yLEaPi/i3Scu3QNXHRJf7gttOq/f8tP5XqEmH8QbYvVMFCuQ4hU8somcfWLE2eHq9u5kd7S5QhbvwthdrL7xPebJfS8lnkp9HhFJ1FQfdINrT2pp2u/dktohQ1n8IpKw0uu/ofQNmFeGo8nrMPcau8G6o6h2V0unlRvQ5ij+tFrm0ShR5ipZNVug1vLnB1xwx5BA9h8oBphtsrto/34tE2icBsAuZZ/kqdy/O/fuqHdPPPt9sOoFhvDV2xAiE75UWqapN0ARKUQnLmlA5bT/elGjfSOohyJeRUIs5Lx/hFqm49ciyRWjxCZ0DHWdN3EAPQI2ueXr/Kvi7J+tM6uMF/N4NfT+abZclNQPYYGEL09361tPy5nV6LQI8xKRr69ffvXmxuAHkM7/MUFBs7X/mic3Q4DoNDhPTeZ/Se/EKG5bp/63KNwd3D2DoSIH4ezK4nVMjBGixCt5g+qDbQ42kPdt08z7RG0T2pOIsz5cTi7PnIt3go9wpwEMgsPAHe+QK1H0FodDn6jehshUuXWtAdb24QYLf+6UM2p7y/fFtRdQwNYYzyKMOvBd3YlCh3CbBXTN4jbveJydfhmHod20WLlkaU5CNGpD6SmtRsAL4UOITKRnZ81tjPjTndkvqvJ4qUflz2w7ockVstAuQZhnpYxK7O4amvl+osB7qyJ3hW0E99d4mcLMxDmP3juh49Ch49CjzAnkRU7S4Cer1C+67SEV97c2ynW9mCBE+Q6HopRceTLC25oPSt3Da38zJd4z9U8kO6HEJHKeP020RvrgQHoNTQXLsZlvIcQoeqY/rrXMG4lEoV7cK7QIUQksKH8mHgfzn5IgOlc3j9ajxCRgtcD4H50GID5en71Nx0XrjUDuF800o/QLG1t+CVuRohqj7Xd39rmoxDdjPlbdrvv4O7ybnu9jkBXcsg91Xf/a5ug0OMdpaSo4Sxw9+8B6jW0r5ua+Y/FaxDm3v/OrhCp5n+UG2mxO8F59xuje2SZz6sflty3zq5EocNH4R6cz05ElVcBiAbgbpPiPQLNdOE7HlKk35exNolCx0C5FiEmk/+zUM2Jry8B9OpNUx5bhRe+4eP7dmLZR65HiFQhXfOeu7a9W2XsMWjFjWfxilL3ibPrc9PsyHa59feCQo8QoeTdI3VA7xdmewyaw+XiSfX2O5pYltwWlNgH+cgzGCjXujMYb3SedLwUmXj/MD/3h9CiNYxatoZLVhu4er+22KOLZN86WIMwO+Wm7oePPN2dbnrjNM/29E6vWDEZeYBcK2aBK/QMkKs7nUeHt1xMRhanFdXd0lglCj3esSJwISKBRR+6V6h4YMMEj0K7ZmtlxIo3Ok0s65HEiknEPgotkgVqfBRqBsZk4KMQMyyFGC3CXLWYwh6RihCZgjA7BSFCiRCRIH6epUSYnYQwO1n8PycVIVqFMDcZISYNL3fGt49ch49Cg7dCTJAeKE9DiMlgYIyKqnPiWihPvH/F42vYlXmVorPbkc2tx0ehwys2A6/5eoQ5eoSIZISIJIQoFT+NTWXw61k8odrIc1lbmP7GDqK35bLwwwKWfFTKio/2E7fLyMId+5j/XgEvb9rF+DU7+N+UNxi6bAMPx2aKScYRqQizUxHmpCDM0yNRaPmJXIMQpeJ57ZvuHWHuy3054PMr13j4r5kIc3V4x+jFdQURqQizVTyk0OOv3MjLGz8ipfAQO6sbqTn/DRearVicPetpbE4n31ktNHz7PQW1Z8gsPUL01j08mfYWP1+kR5irErX05RVkl7XvUHpf7gAjVmr+tlyE6XEIkSqGLlvDnzbtYmP5UWq++ppWx+12QbtRQND9zj1X52Nu8muXizMXL/HRp/VEbd/D07r1nL3YJC6Cu/sb61L6ZF+OQ1/8ndlbdrL3+Em+s97q9R3Xt1266Q25+XXeS8jV5WsXTm6cUAzQ5nDhcjjBcZ/vAHO7R3r95u80LHNzKDe6nHhWJy5XK2Kmmd1jTRP6CNpthyj9sP+luC2B+GJeT1+qz7bNudelL5/JjxZaX5YHAtqNlk7e+KgH4s0X/VNccKvExM5H9Uv5/44PvfaUfuujAAAAAElFTkSuQmCC;" vertex="1" parent="X8rtFN3A78l9VNLj1SrO-70">
          <mxGeometry x="290" y="26" width="77" height="114" as="geometry" />
        </mxCell>
        <mxCell id="X8rtFN3A78l9VNLj1SrO-80" style="edgeStyle=orthogonalEdgeStyle;rounded=1;orthogonalLoop=1;jettySize=auto;html=1;exitX=1;exitY=0.5;exitDx=0;exitDy=0;entryX=0;entryY=0.5;entryDx=0;entryDy=0;strokeWidth=4;fillColor=#d5e8d4;strokeColor=#82b366;" edge="1" parent="1" source="X8rtFN3A78l9VNLj1SrO-71" target="X8rtFN3A78l9VNLj1SrO-3">
          <mxGeometry relative="1" as="geometry" />
        </mxCell>
        <mxCell id="X8rtFN3A78l9VNLj1SrO-102" style="edgeStyle=orthogonalEdgeStyle;rounded=1;orthogonalLoop=1;jettySize=auto;html=1;exitX=0.5;exitY=0;exitDx=0;exitDy=0;entryX=1;entryY=0.5;entryDx=0;entryDy=0;strokeWidth=4;fillColor=#f8cecc;strokeColor=#b85450;" edge="1" parent="1" source="X8rtFN3A78l9VNLj1SrO-71" target="X8rtFN3A78l9VNLj1SrO-65">
          <mxGeometry relative="1" as="geometry" />
        </mxCell>
        <mxCell id="X8rtFN3A78l9VNLj1SrO-71" value="" style="shape=image;verticalLabelPosition=bottom;labelBackgroundColor=default;verticalAlign=top;aspect=fixed;imageAspect=0;image=data:image/png,iVBORw0KGgoAAAANSUhEUgAAAEcAAABxCAYAAACHk76vAAAWbElEQVR4nO2de1yU1brH37lw0Y2Kcr8jF7PsorX1dPtsz9nl3pa7U9k9K8U0gZnBS6l5bJelolwG8FpaisAAXipT00zNdsplBs17VrusLE1NgbkAAjPzfs8fMyAIKuA7TKfPWR9+DDDDO8/zXc961nrXu941Av9frlgEdxsAYLM1YjZVU1V1AbPZhNVa726TADfCOXL4IMuXLWbixAQefOBv3HPPMIYNG8Ld9/wHIx+4n4kTx7FoUSYGQzlWa6NbbOxWOHa7jQ8+WM+jj/6D6Ogw/P36EBjgS2hoABERwURGhhAeEUxoaACBAX3x9+tDZEQoIx8YwYoVyzl//rfuNLf74JSXlfLwww85gAT1o3//COLioq6q+Lho+sdEEBziR18/H+6+exhpaal88slWzp0723xsURRdYnO3wFmyOIfIyFACA/sRF3t1IO0p1vkYERGMv18fgoL8uG3Izbw1dw4mk9FldrsGjrMi7XY7r86cQb++vYmKCiU+vvNg2oUVG0lEZDC9fXsycuT9nD59yiVuuDRyUufPxdfXh5iYazehrqqvrw9PPjGaxsYGye2XHE5T+y8p+YLQkACio8NcBqYpivr16826tcVSu+KCyHHCmfBiAgH+fYiPj5YAQjRxcf2v+HxQYD9GP/owdrtNUldc0qx+Pf0Lt95yI1FRoVd0NiY+iri4yKtCGRAXQVx8BDHx0YSGBRF9heYZHR3GwIHx/HDiO0n9kBaOM2q2fryJ4GB/YtvpmWLjoomNi3X+3r6z8XFRDIiNJD4ukpj4WMJC/Hjqkfu55dYb6N8OoNjYSEJCAti141NJ3ZEYjuNh4YJU/P37NBsfExdDbFwMN8RG0j8mnNCQQIIC/QkICiQyKszZ9C5vOv2JHRCPn78/T4wYhvH4DlRjH8M/MKBdoIEBfSkqzJfUHZc0K1VSsmNMExdFbHwk/eOjiYnvT2iIPzFxkYx+6K/MmPAk0yc8zfA7hxAZFUF8bDQDYyIZEOtodrGx/Qnw82XUfw3l570F8O8t7P9oGTExUUS1M4D09+/De+++I6kfLoHz5OOjCQ72czaRSGLjowgM9uOph++jfNM71B79AL7aCL/sZU36TPr4eBMZHkx0VDhhUVEEhIQQGOiH+rmHOFP+PtYjH2DS6+Cbj5mVPAa/QD/iLhszBQT4kpu7SlI/JIdjtTby4AMjCA3xdxge35+AoEDGP/UgdUc+gqNrqTHkU6vPp25/EWfL1zIj8RnuuuMWbh/Un7uG3sxjI+9hfdZ07Mc20XBwA2Z9IaaKIhoPruXHz/O4/dYbiGiR7GNjIwkM6seHGzdI6ovkcBoaGvjb3+4nLMyRG8LCQ7j3z4M4U7oW6+ENmPQ6TIYizIZCzPoCar5cR/1XH/NrSREndq3izN4CGg6uh2MbsVQUYzIUNcusL4BvNpE5axL+AX0v5bSYCMIjgikp+VxSXySHY7fbeXDUKEJD/YmJ609gkD/5mTPgmy0Y9QWYDIWYDIVY9IWYDYUYDUWYDTrq9hdx8cA66vYXY6koagXlkgqxflnIL3t0DB18I5FRYc1d+aCbB3Ly5A+S+uKSnDP6kYcJC/YjLCqcu/5jMGfK11G/v6gZjMlQiNmgw2TQtfpbWxW1+d2iz4NvNjH35Qn4BziSfniYPyNG3Eej1S6pH9LDqf+Nl54ehX9wKH5BAcxMfAa+3oJFn3cNEB2T2VCIeGgtBze/w4CYcPrHRBEY5Itm/ONgt0jqivRwfjvMwilP0zcogMDQIDYsfR2OfYBZr8PYJhK6oiJqDfnUH/6QJ0b9JyEhwQQE+5OvnY544StJXZEYjg1O7mHbstkEBIVwU1wYR7Ysp/HghlZ5Q4ro4euPyJj1Er79fLn91jh+2LGMxu8/R0S6iS+J4YjY/r2TM7tWc9NNNzLs9kH8VpJP7f61ksIxVRQhHtvIjnfn4NP7TyQlPIF47H1qj24DrJJ5I3mzqj1RBkc2MPHZhxh+9xBqD37YTu9z/ZHTcGg9hz9aQkxECJ/qtNgPraf2612AVbLYkX4QaPwZ28FiduanM+aR+7l46EMs7fY816Ni6g8WcvijbFKef5SaQxswl+VSd+qQpL5IBKdFXYmN1Hy1HUt5HrtWz6PSsA6zoUBCMIUYDcXU7lvLL7tWcuzTVdR/WUD1/vex1VdLmHEkhXPJLFvdeUyHPuLiPh2W8iJMFdcaz3Shael11BmKqd9fSFV5Ho1nT0jjSosiYbNqXWd1p49RqV/TPBI2SR09FYUYKwqoLc2l4dSX0rnRorhsgr2x6hcq9QWYDDrM+mIshnxpI8dQiMmwhuov1yM2SNucmoqL4Nix1Vdj+vJDTIY8yZKx2aCjRp+HqcJx4mopXY35qx2Iog1pTxwcRVI4lzKPDcQGLMd3YC6X5rShCY7FUNAMp6osn7pfjkjpQqviEjgiNkTg4qkDVJetkTYZVzRNX+RTuW89tlrXXT+XfISMaAPRjh2oN/1GpUHnnMORDlCNXkdNyXtYvt4FSHs5pmVxQc6xgwh2REREjF/vxFi2BrMEI2SzQefINXodxjIdjZXSd98tiwvgiM7vjlPABtNPVBuKHFOdXYRjNuio1ec554CKMJXmUnN8F4g2l/RSTcWl18qbknPdj2UYS/Oa4Ti64c41NaOhCFNFETVlqzFXFGO3nHGl6YDLl6A4o8haQ+2RzZhLV1NVsZbqisJOn1IYK4qoLc/FUraaht++xsblw07pi8vgOAy3Ns+viHW/UXN4I8bS9zAZ8qmu6GTzKs+nulzHxVMHALtLxjWXFxdHjp2W9WtvMFPzzeeYS1dfyh+Ga+ei6rJcTPvXUX/uO2iOGbtTrivduibQMQay03D2OOaKYqovu7pgviyaLHodlnId5m92YK/99TLUIlLO+rVXunk1aXMjw3x0K1WlqzHqdRhb9WSOcZFRX4ypZA3G/e8jWmuA1rHSeh7ANaXbl9o29WDGYzup3vMexpI1VJUVNMtUloepNI/KskKq9uZiPPABos3ihCLdFGhHist7q8trVwRE+0VqjmzBWKbDWFZIVWm+Q05AlaU6Kst0XCjJp+rAZrDWOjONq2OldXERHBGu0tmKYiO1hzdTU5aHRV9MdbnOAaYZkA5jaT5Ve3OpPLQNbNKv9+tIccGyN0dHa2/OCm0hifVmqg9tw6TPxVxRgKmiGKO+kOpyHcbyQoxlBVhK8zCW5mI58jHtTZqLXDqs6KIEJPFZuR07VsTLutgGayNHfj5Lbb0VRLD8uJ/q8gJMhlxMFflYDIVY9C27cx0mw3qq9Wup0a/h4pnjiEB94+XL/B1UWoJqKva2f+p0uS44js7U7oTRGsj52jo2H/2Gl9fu5JZZy8jZ/gVWmyOeGs2nqTasxVKej7GiCIvecabdenxTRE1ZPhf0a2kwngSgylLLmxu2s/yLCn6tNLexpuVPogT9WRfgiM4pCdEJ5ZIBF61Wdh0/wYS8rcS++jbC+LkIz79FwLQsKuvqgEuNrPb0UYwlazDrHWfa5jYnmwVYSnKpOdt6EeR7pfsQnv0nQa8sZszKdbz/5XEsFy82P29HxEpTVV3fILHTcETnm7fsOX41msj8tIw73lqFMHEhwrh5CJPSEdRahPGZ3LtwlTMHAc6JMMRGzMd2YCpdjcVQ0DxiNhoKsRh0mEtyqf6+rM37/3CuEt/kbIRJaQgJCxAmzmPgPxfz1pbd/PDbhUt2inbHTM91BE/n4IiXBnEAZ2vqmLPxC8KnL0ZImIcwcSEyVSYKtRaFWotck4Hw4gIeWlToPIDNIdGZYBtNVBrWYi7Po1af77yi4DhdqDmwFew1bUz46UIlAVPTEVQZeCdrUarSEV5KRxg/H/8paUwt2sY35yqdr25AtHedTqfgtHybtRVfETNjKcLYuQiT0pE7gTSDUWvxUGkREuby3OoNzUdoGszZgHNGC7bz33KhLB9zxSrqywqpKy3AZFiPte48bTtwkTPVZiJezkRI0uKdlINschoKTRZeSYsREjMQxs2j72Qtb236AktjA5d6TBfDaSpvbvwXwoupCBMWtgLSUkrno5Awn1eKtjqRXMI7+6PPidWk8sWJn+F7vWMCq7yIurJVYPqeRbsqGDF/JWcttQ4soqMxX7CYiZ6xFGFSFp7J2cg1mShV2XioMlGoM1GosxAS0xHGvsHQ1FUc/Plsey5IC8dhHCzdUY4w9jWE5EUo1FnIUjLaRIxMo8VT5QAkJLzFmx/vaXWsKUVbEcbPQRi/gPBpmRz8/hj1R7dSU/4e4sn9zN22FyFhIcLYBdw7dwVnzJd6psqL9cS8tgxhUhoKdQZyjRYPVdZllZOJTJOJMH4u/lMy+OK7n1wFR3QmUzs1F+uIm70IITEd78TFeCZnolRnNEdJSzXDeWEuyz/bB4CxoZGnl61DGDsXmSodRfJihMQFPL9tKye+1mM7vp0Zuo0I49IQkjKQp+QgjFvI0LkrOGV0rNqqbbRy6xsrEF5Kc0ZK+5HrodbiqcpEmDCPiOlLOF3V+fuyOhQ5TZliz3cnkU9KRZ6UjVKlRaHOQKlqa6CHSotSpUWm1iKMncP2I99RVXeRvy9YifDCWwgpOSg1aXgkZuGdksFTW9bzZvnHPL+yyNHTJWchV2fjmaxFoV6MkDCfIW+u4NdqEwB3vLkCYeKVwSjUWpSqLJSqLDxU2QgvLGTetlLXwGnqhudv/hfC2FQU6jTkmqsbJ9dkImi0eGrSWLp3P8MXrEIYOxe5OhsPlaM5yJOy8Z6czrhP1jOl5COCZ2kRXspA4cwjCrUWeUoGHuoMhIQF/PmN5fx4oYr7svIQXrpyvmtu3ilaPJNzECYs5M7UPER758Y9HU/Iosj9GasQxmfhqXI4cDXjFOoMvJLT6aleyp9SFiG8NBeFJgulOgOZRotco0VIzqZnipZxn2xkasknhL/+NkJiFrKUdJTqLCfkJtjZCONTue3NZQz657sIqjSU6vRr2JCFUqVFUGXikbSAI6d+lRZO072lP52vot+0hQiaNDyT0xE0lyfBtpKlZCDTpCMk5yDXZKHQZLTIE5kIqix8pmqZsH0Tk0u2Ef7aEoRJOXiotCg0Gcguew+lOgchKRUhKRO5JhuPa8CRa7LwUDmiSBi3gMX/MkgJR2y+865431cI4xfgocrAQ5WOUtWUd67W7nNQaNLwVGW006NoEVRaek/TkvTpZlL2fEzQa8sQJmU6oysLpToTZYuk66nKwFOVjbz5uax2krIjWjxUTVGXhVKdjpCwkMdWvC8hHBFwDsUm6z5BGJvqaFLqTIfj6pyr1FpTbWfgodIi0+SgVC1FoclBnpKNfPIihJRF9Jq1FHXJZ0zdv5vQOe8hTM5B9srbKKa9g+fUJSinLUUxdTnKKUtRTFmMh2YJipRMFOolKJ35S6HOcgLLRqbRotA44HiqtHglO6JQmJhO/9krqWpxHiYBHDuNNpE70t5FSFyIUuWoWYUmo1WtNteaWot8cjbKKYtRvLwUz2lv4zFjOZ6vLMFrWhZeKRn0nLQAnxdfx+uF/yHwxek8u3IJz76TQdBzyXj9dyK9H0qk9yNJ9BytxufxFPo+PpmeL6TQc9xr9Jw4hx5Jafios/CcmoPXtOV4TH+bHtPeRvHychRTclCkZKPUZDXnLU+VFkGVhldiJl/+9Is0cJrGs//+9QJ9UrTIE7MdiVGjRUjJQKHRokhZ5IDwynK8Xl6K59RF9JiYhs9zM/F+RIX3X5+i5x1/p8cNQ/GIvBGlfxTKPkEoe/ZD7umDl1yJTBAQBAGZoEAuyJw/C8gEGXJBiVwQUCg8USp7o+jpi2efYLyCo/CIvhnvm++ix91/p9eIZ/B6TIXP87PxSUylt2YJXq8sQT5jGZ6T30Y2ORvhxVRWlhyQBk5TySs/gDBuDkpVDsrJi/Getgjl9GX0SMmh14tv4DVaQ6+/PIbXrffiETYQRa9+yJRKBEFA7nS8pWSXPV5NHXlt03MKQYbS408o+4TgGTEI79uH02PEc3g/PY0eL81HMWEh0za2PtO/2m4GV4DT+h+mrd+BbFIanlOX4ZPwOr1GvYDXHX/FKywWj579mmu7o5I51QSuPYByQYHQ4ePKEdp5fTNYuQKPXn54hN7AHQ8/z+7du7lw4fw1g+KakVNzsZZ7kmejHDISz4hY5F7eLRwQULSpVZnT2I7Dulo0dFyXg5EhE5TNFXH5MYODg/nHqFFkZWVx4MCBS2OWFtHULhyLxcLHW7eQnJTEDQMHtm+MTEAmyBEEeRcc6S415a+rR6BSqWTo0KHMmjWLPXv2cNHZozXDsdls7NmzB5VKRUxMTJdq648gX19fzp51THMIoiiSkZHB4MGD3W7Y70FjxoxpblqCKIqMHDnS7Ub9XrRz587WCbm0tNTtRv0edNNNN9HQ0NAaDsBf/vIXtxvnbs2bN6+pv2oNZ/369W43zp3y9vbm22+/bX+cU19fz4ABA9xupLs0atSoNkOaVuMcrVbrdiPdpeLitpsTtYJz7tw5/Pz83G5odyssLAyjse0EfJsR8pQpU9xubHdr8uTJbcC0C+f48eN4enq63eDukkwmw2Bof/q03XOrxx57zO1Gd5fuvPPOK16VaBfO7t273W50d2np0qXtgrkiHFEUufPOO91uuKvVp08fTp268gaMV5zPKcjPd7vxrlbTSWan4dTW1nZi6uL/pj75ZFvX4ADMnz/f7Q64SgMHDqT+Gpdprgrn9OnT+Pr6ut0RV2jOG29cFcw14QAkJia63RGp5eXlxfHjx68fzuHDh1E6L7P8UTRy5MhrgukQHIBRo0a53SEppSsokA7O9u3b3e6QVAoNDaW6ulo6ODabjSFDhrjdMSmkUqk6BKbDcADeffddtzt2vZLJZJSVtV34fd1wzGYz4eHhbnfwejR06FDsnVj61ql1yK+//rrbHbweZWdnd8bdzsE5efIkPj4+bneyK+rVqxc///wz0PHPiej0CvaEhAS3O9oVPfnkk511tfNw9u3bh1x+/asoultbtmxxPRyAESNGuN3ZziguLo465/1eLoezadMmtzvcGc2ePbsrbnYNTmNjIzfffLPbne6IPDw8OHbsmMPwTn5gT5fv8Vy2bJnbHe+I7rvvvja2dxRRl+FUVVURFBTkduevpdzc3K66eH13B8+cOdPtzl9NgYGBXLhw4dqOuALOd999R48ePdwO4UqaNGlSG5s7k3Wu+6b7Z5991u0QrqS9e/c6gHTxk9OuG05JSUmnje7Zsyfh4eHcfvvtjBgxgmeeeYYJEyYwdepUZsyYwcyZM5k+fTpqtZoJEyYwevRohg8fzqBBgwgKCurQzOSQIUOwWlvvmtLZ2/Al2a5h+PDhVzSyb9++3HXXXSQlJbFy5Up2f/YZ33//fburGq5VrFYr58+f5+jRo2zevJn09HTGjBnDbbfdhre3d6v3zczMvG6/JIGzbt26ZqM8PT0ZNmwYr776Klu2bOH06dOdOlZXmoDVauXbb7+luLiYhIQEBg8ezIkT17+HoCRwampqePrpp0lNTe3QrL6ri83W9j7yrmSd38UnwEpXpN0n5g8G58rlDxw53bsdVVNxE5yOOdu0AU137OzWXunmfQKde+5cpUe6tO1r0044Vuf/dT+eboPT5K7jq2mHyPZeIbaA4d7Y+V+nxMiiXN5+bQAAAABJRU5ErkJggg==;" vertex="1" parent="1">
          <mxGeometry x="566.9" y="870" width="71" height="113" as="geometry" />
        </mxCell>
        <mxCell id="X8rtFN3A78l9VNLj1SrO-103" style="edgeStyle=orthogonalEdgeStyle;rounded=1;orthogonalLoop=1;jettySize=auto;html=1;exitX=0.5;exitY=0;exitDx=0;exitDy=0;entryX=1;entryY=0.5;entryDx=0;entryDy=0;strokeWidth=4;fillColor=#f8cecc;strokeColor=#b85450;" edge="1" parent="1" source="X8rtFN3A78l9VNLj1SrO-72" target="X8rtFN3A78l9VNLj1SrO-65">
          <mxGeometry relative="1" as="geometry" />
        </mxCell>
        <mxCell id="X8rtFN3A78l9VNLj1SrO-72" value="" style="shape=image;verticalLabelPosition=bottom;labelBackgroundColor=default;verticalAlign=top;aspect=fixed;imageAspect=0;image=data:image/png,iVBORw0KGgoAAAANSUhEUgAAAEcAAABxCAYAAACHk76vAAAWbElEQVR4nO2de1yU1brH37lw0Y2Kcr8jF7PsorX1dPtsz9nl3pa7U9k9K8U0gZnBS6l5bJelolwG8FpaisAAXipT00zNdsplBs17VrusLE1NgbkAAjPzfs8fMyAIKuA7TKfPWR9+DDDDO8/zXc961nrXu941Av9frlgEdxsAYLM1YjZVU1V1AbPZhNVa726TADfCOXL4IMuXLWbixAQefOBv3HPPMIYNG8Ld9/wHIx+4n4kTx7FoUSYGQzlWa6NbbOxWOHa7jQ8+WM+jj/6D6Ogw/P36EBjgS2hoABERwURGhhAeEUxoaACBAX3x9+tDZEQoIx8YwYoVyzl//rfuNLf74JSXlfLwww85gAT1o3//COLioq6q+Lho+sdEEBziR18/H+6+exhpaal88slWzp0723xsURRdYnO3wFmyOIfIyFACA/sRF3t1IO0p1vkYERGMv18fgoL8uG3Izbw1dw4mk9FldrsGjrMi7XY7r86cQb++vYmKCiU+vvNg2oUVG0lEZDC9fXsycuT9nD59yiVuuDRyUufPxdfXh5iYazehrqqvrw9PPjGaxsYGye2XHE5T+y8p+YLQkACio8NcBqYpivr16826tcVSu+KCyHHCmfBiAgH+fYiPj5YAQjRxcf2v+HxQYD9GP/owdrtNUldc0qx+Pf0Lt95yI1FRoVd0NiY+iri4yKtCGRAXQVx8BDHx0YSGBRF9heYZHR3GwIHx/HDiO0n9kBaOM2q2fryJ4GB/YtvpmWLjoomNi3X+3r6z8XFRDIiNJD4ukpj4WMJC/Hjqkfu55dYb6N8OoNjYSEJCAti141NJ3ZEYjuNh4YJU/P37NBsfExdDbFwMN8RG0j8mnNCQQIIC/QkICiQyKszZ9C5vOv2JHRCPn78/T4wYhvH4DlRjH8M/MKBdoIEBfSkqzJfUHZc0K1VSsmNMExdFbHwk/eOjiYnvT2iIPzFxkYx+6K/MmPAk0yc8zfA7hxAZFUF8bDQDYyIZEOtodrGx/Qnw82XUfw3l570F8O8t7P9oGTExUUS1M4D09+/De+++I6kfLoHz5OOjCQ72czaRSGLjowgM9uOph++jfNM71B79AL7aCL/sZU36TPr4eBMZHkx0VDhhUVEEhIQQGOiH+rmHOFP+PtYjH2DS6+Cbj5mVPAa/QD/iLhszBQT4kpu7SlI/JIdjtTby4AMjCA3xdxge35+AoEDGP/UgdUc+gqNrqTHkU6vPp25/EWfL1zIj8RnuuuMWbh/Un7uG3sxjI+9hfdZ07Mc20XBwA2Z9IaaKIhoPruXHz/O4/dYbiGiR7GNjIwkM6seHGzdI6ovkcBoaGvjb3+4nLMyRG8LCQ7j3z4M4U7oW6+ENmPQ6TIYizIZCzPoCar5cR/1XH/NrSREndq3izN4CGg6uh2MbsVQUYzIUNcusL4BvNpE5axL+AX0v5bSYCMIjgikp+VxSXySHY7fbeXDUKEJD/YmJ609gkD/5mTPgmy0Y9QWYDIWYDIVY9IWYDYUYDUWYDTrq9hdx8cA66vYXY6koagXlkgqxflnIL3t0DB18I5FRYc1d+aCbB3Ly5A+S+uKSnDP6kYcJC/YjLCqcu/5jMGfK11G/v6gZjMlQiNmgw2TQtfpbWxW1+d2iz4NvNjH35Qn4BziSfniYPyNG3Eej1S6pH9LDqf+Nl54ehX9wKH5BAcxMfAa+3oJFn3cNEB2T2VCIeGgtBze/w4CYcPrHRBEY5Itm/ONgt0jqivRwfjvMwilP0zcogMDQIDYsfR2OfYBZr8PYJhK6oiJqDfnUH/6QJ0b9JyEhwQQE+5OvnY544StJXZEYjg1O7mHbstkEBIVwU1wYR7Ysp/HghlZ5Q4ro4euPyJj1Er79fLn91jh+2LGMxu8/R0S6iS+J4YjY/r2TM7tWc9NNNzLs9kH8VpJP7f61ksIxVRQhHtvIjnfn4NP7TyQlPIF47H1qj24DrJJ5I3mzqj1RBkc2MPHZhxh+9xBqD37YTu9z/ZHTcGg9hz9aQkxECJ/qtNgPraf2612AVbLYkX4QaPwZ28FiduanM+aR+7l46EMs7fY816Ni6g8WcvijbFKef5SaQxswl+VSd+qQpL5IBKdFXYmN1Hy1HUt5HrtWz6PSsA6zoUBCMIUYDcXU7lvLL7tWcuzTVdR/WUD1/vex1VdLmHEkhXPJLFvdeUyHPuLiPh2W8iJMFdcaz3Shael11BmKqd9fSFV5Ho1nT0jjSosiYbNqXWd1p49RqV/TPBI2SR09FYUYKwqoLc2l4dSX0rnRorhsgr2x6hcq9QWYDDrM+mIshnxpI8dQiMmwhuov1yM2SNucmoqL4Nix1Vdj+vJDTIY8yZKx2aCjRp+HqcJx4mopXY35qx2Iog1pTxwcRVI4lzKPDcQGLMd3YC6X5rShCY7FUNAMp6osn7pfjkjpQqviEjgiNkTg4qkDVJetkTYZVzRNX+RTuW89tlrXXT+XfISMaAPRjh2oN/1GpUHnnMORDlCNXkdNyXtYvt4FSHs5pmVxQc6xgwh2REREjF/vxFi2BrMEI2SzQefINXodxjIdjZXSd98tiwvgiM7vjlPABtNPVBuKHFOdXYRjNuio1ec554CKMJXmUnN8F4g2l/RSTcWl18qbknPdj2UYS/Oa4Ti64c41NaOhCFNFETVlqzFXFGO3nHGl6YDLl6A4o8haQ+2RzZhLV1NVsZbqisJOn1IYK4qoLc/FUraaht++xsblw07pi8vgOAy3Ns+viHW/UXN4I8bS9zAZ8qmu6GTzKs+nulzHxVMHALtLxjWXFxdHjp2W9WtvMFPzzeeYS1dfyh+Ga+ei6rJcTPvXUX/uO2iOGbtTrivduibQMQay03D2OOaKYqovu7pgviyaLHodlnId5m92YK/99TLUIlLO+rVXunk1aXMjw3x0K1WlqzHqdRhb9WSOcZFRX4ypZA3G/e8jWmuA1rHSeh7ANaXbl9o29WDGYzup3vMexpI1VJUVNMtUloepNI/KskKq9uZiPPABos3ihCLdFGhHist7q8trVwRE+0VqjmzBWKbDWFZIVWm+Q05AlaU6Kst0XCjJp+rAZrDWOjONq2OldXERHBGu0tmKYiO1hzdTU5aHRV9MdbnOAaYZkA5jaT5Ve3OpPLQNbNKv9+tIccGyN0dHa2/OCm0hifVmqg9tw6TPxVxRgKmiGKO+kOpyHcbyQoxlBVhK8zCW5mI58jHtTZqLXDqs6KIEJPFZuR07VsTLutgGayNHfj5Lbb0VRLD8uJ/q8gJMhlxMFflYDIVY9C27cx0mw3qq9Wup0a/h4pnjiEB94+XL/B1UWoJqKva2f+p0uS44js7U7oTRGsj52jo2H/2Gl9fu5JZZy8jZ/gVWmyOeGs2nqTasxVKej7GiCIvecabdenxTRE1ZPhf0a2kwngSgylLLmxu2s/yLCn6tNLexpuVPogT9WRfgiM4pCdEJ5ZIBF61Wdh0/wYS8rcS++jbC+LkIz79FwLQsKuvqgEuNrPb0UYwlazDrHWfa5jYnmwVYSnKpOdt6EeR7pfsQnv0nQa8sZszKdbz/5XEsFy82P29HxEpTVV3fILHTcETnm7fsOX41msj8tIw73lqFMHEhwrh5CJPSEdRahPGZ3LtwlTMHAc6JMMRGzMd2YCpdjcVQ0DxiNhoKsRh0mEtyqf6+rM37/3CuEt/kbIRJaQgJCxAmzmPgPxfz1pbd/PDbhUt2inbHTM91BE/n4IiXBnEAZ2vqmLPxC8KnL0ZImIcwcSEyVSYKtRaFWotck4Hw4gIeWlToPIDNIdGZYBtNVBrWYi7Po1af77yi4DhdqDmwFew1bUz46UIlAVPTEVQZeCdrUarSEV5KRxg/H/8paUwt2sY35yqdr25AtHedTqfgtHybtRVfETNjKcLYuQiT0pE7gTSDUWvxUGkREuby3OoNzUdoGszZgHNGC7bz33KhLB9zxSrqywqpKy3AZFiPte48bTtwkTPVZiJezkRI0uKdlINschoKTRZeSYsREjMQxs2j72Qtb236AktjA5d6TBfDaSpvbvwXwoupCBMWtgLSUkrno5Awn1eKtjqRXMI7+6PPidWk8sWJn+F7vWMCq7yIurJVYPqeRbsqGDF/JWcttQ4soqMxX7CYiZ6xFGFSFp7J2cg1mShV2XioMlGoM1GosxAS0xHGvsHQ1FUc/Plsey5IC8dhHCzdUY4w9jWE5EUo1FnIUjLaRIxMo8VT5QAkJLzFmx/vaXWsKUVbEcbPQRi/gPBpmRz8/hj1R7dSU/4e4sn9zN22FyFhIcLYBdw7dwVnzJd6psqL9cS8tgxhUhoKdQZyjRYPVdZllZOJTJOJMH4u/lMy+OK7n1wFR3QmUzs1F+uIm70IITEd78TFeCZnolRnNEdJSzXDeWEuyz/bB4CxoZGnl61DGDsXmSodRfJihMQFPL9tKye+1mM7vp0Zuo0I49IQkjKQp+QgjFvI0LkrOGV0rNqqbbRy6xsrEF5Kc0ZK+5HrodbiqcpEmDCPiOlLOF3V+fuyOhQ5TZliz3cnkU9KRZ6UjVKlRaHOQKlqa6CHSotSpUWm1iKMncP2I99RVXeRvy9YifDCWwgpOSg1aXgkZuGdksFTW9bzZvnHPL+yyNHTJWchV2fjmaxFoV6MkDCfIW+u4NdqEwB3vLkCYeKVwSjUWpSqLJSqLDxU2QgvLGTetlLXwGnqhudv/hfC2FQU6jTkmqsbJ9dkImi0eGrSWLp3P8MXrEIYOxe5OhsPlaM5yJOy8Z6czrhP1jOl5COCZ2kRXspA4cwjCrUWeUoGHuoMhIQF/PmN5fx4oYr7svIQXrpyvmtu3ilaPJNzECYs5M7UPER758Y9HU/Iosj9GasQxmfhqXI4cDXjFOoMvJLT6aleyp9SFiG8NBeFJgulOgOZRotco0VIzqZnipZxn2xkasknhL/+NkJiFrKUdJTqLCfkJtjZCONTue3NZQz657sIqjSU6vRr2JCFUqVFUGXikbSAI6d+lRZO072lP52vot+0hQiaNDyT0xE0lyfBtpKlZCDTpCMk5yDXZKHQZLTIE5kIqix8pmqZsH0Tk0u2Ef7aEoRJOXiotCg0Gcguew+lOgchKRUhKRO5JhuPa8CRa7LwUDmiSBi3gMX/MkgJR2y+865431cI4xfgocrAQ5WOUtWUd67W7nNQaNLwVGW006NoEVRaek/TkvTpZlL2fEzQa8sQJmU6oysLpToTZYuk66nKwFOVjbz5uax2krIjWjxUTVGXhVKdjpCwkMdWvC8hHBFwDsUm6z5BGJvqaFLqTIfj6pyr1FpTbWfgodIi0+SgVC1FoclBnpKNfPIihJRF9Jq1FHXJZ0zdv5vQOe8hTM5B9srbKKa9g+fUJSinLUUxdTnKKUtRTFmMh2YJipRMFOolKJ35S6HOcgLLRqbRotA44HiqtHglO6JQmJhO/9krqWpxHiYBHDuNNpE70t5FSFyIUuWoWYUmo1WtNteaWot8cjbKKYtRvLwUz2lv4zFjOZ6vLMFrWhZeKRn0nLQAnxdfx+uF/yHwxek8u3IJz76TQdBzyXj9dyK9H0qk9yNJ9BytxufxFPo+PpmeL6TQc9xr9Jw4hx5Jafios/CcmoPXtOV4TH+bHtPeRvHychRTclCkZKPUZDXnLU+VFkGVhldiJl/+9Is0cJrGs//+9QJ9UrTIE7MdiVGjRUjJQKHRokhZ5IDwynK8Xl6K59RF9JiYhs9zM/F+RIX3X5+i5x1/p8cNQ/GIvBGlfxTKPkEoe/ZD7umDl1yJTBAQBAGZoEAuyJw/C8gEGXJBiVwQUCg8USp7o+jpi2efYLyCo/CIvhnvm++ix91/p9eIZ/B6TIXP87PxSUylt2YJXq8sQT5jGZ6T30Y2ORvhxVRWlhyQBk5TySs/gDBuDkpVDsrJi/Getgjl9GX0SMmh14tv4DVaQ6+/PIbXrffiETYQRa9+yJRKBEFA7nS8pWSXPV5NHXlt03MKQYbS408o+4TgGTEI79uH02PEc3g/PY0eL81HMWEh0za2PtO/2m4GV4DT+h+mrd+BbFIanlOX4ZPwOr1GvYDXHX/FKywWj579mmu7o5I51QSuPYByQYHQ4ePKEdp5fTNYuQKPXn54hN7AHQ8/z+7du7lw4fw1g+KakVNzsZZ7kmejHDISz4hY5F7eLRwQULSpVZnT2I7Dulo0dFyXg5EhE5TNFXH5MYODg/nHqFFkZWVx4MCBS2OWFtHULhyLxcLHW7eQnJTEDQMHtm+MTEAmyBEEeRcc6S415a+rR6BSqWTo0KHMmjWLPXv2cNHZozXDsdls7NmzB5VKRUxMTJdq648gX19fzp51THMIoiiSkZHB4MGD3W7Y70FjxoxpblqCKIqMHDnS7Ub9XrRz587WCbm0tNTtRv0edNNNN9HQ0NAaDsBf/vIXtxvnbs2bN6+pv2oNZ/369W43zp3y9vbm22+/bX+cU19fz4ABA9xupLs0atSoNkOaVuMcrVbrdiPdpeLitpsTtYJz7tw5/Pz83G5odyssLAyjse0EfJsR8pQpU9xubHdr8uTJbcC0C+f48eN4enq63eDukkwmw2Bof/q03XOrxx57zO1Gd5fuvPPOK16VaBfO7t273W50d2np0qXtgrkiHFEUufPOO91uuKvVp08fTp268gaMV5zPKcjPd7vxrlbTSWan4dTW1nZi6uL/pj75ZFvX4ADMnz/f7Q64SgMHDqT+Gpdprgrn9OnT+Pr6ut0RV2jOG29cFcw14QAkJia63RGp5eXlxfHjx68fzuHDh1E6L7P8UTRy5MhrgukQHIBRo0a53SEppSsokA7O9u3b3e6QVAoNDaW6ulo6ODabjSFDhrjdMSmkUqk6BKbDcADeffddtzt2vZLJZJSVtV34fd1wzGYz4eHhbnfwejR06FDsnVj61ql1yK+//rrbHbweZWdnd8bdzsE5efIkPj4+bneyK+rVqxc///wz0PHPiej0CvaEhAS3O9oVPfnkk511tfNw9u3bh1x+/asoultbtmxxPRyAESNGuN3ZziguLo465/1eLoezadMmtzvcGc2ePbsrbnYNTmNjIzfffLPbne6IPDw8OHbsmMPwTn5gT5fv8Vy2bJnbHe+I7rvvvja2dxRRl+FUVVURFBTkduevpdzc3K66eH13B8+cOdPtzl9NgYGBXLhw4dqOuALOd999R48ePdwO4UqaNGlSG5s7k3Wu+6b7Z5991u0QrqS9e/c6gHTxk9OuG05JSUmnje7Zsyfh4eHcfvvtjBgxgmeeeYYJEyYwdepUZsyYwcyZM5k+fTpqtZoJEyYwevRohg8fzqBBgwgKCurQzOSQIUOwWlvvmtLZ2/Al2a5h+PDhVzSyb9++3HXXXSQlJbFy5Up2f/YZ33//fburGq5VrFYr58+f5+jRo2zevJn09HTGjBnDbbfdhre3d6v3zczMvG6/JIGzbt26ZqM8PT0ZNmwYr776Klu2bOH06dOdOlZXmoDVauXbb7+luLiYhIQEBg8ezIkT17+HoCRwampqePrpp0lNTe3QrL6ri83W9j7yrmSd38UnwEpXpN0n5g8G58rlDxw53bsdVVNxE5yOOdu0AU137OzWXunmfQKde+5cpUe6tO1r0044Vuf/dT+eboPT5K7jq2mHyPZeIbaA4d7Y+V+nxMiiXN5+bQAAAABJRU5ErkJggg==;" vertex="1" parent="1">
          <mxGeometry x="922.71" y="580" width="71" height="113" as="geometry" />
        </mxCell>
        <mxCell id="X8rtFN3A78l9VNLj1SrO-14" value="" style="shape=image;verticalLabelPosition=bottom;labelBackgroundColor=default;verticalAlign=top;aspect=fixed;imageAspect=0;image=data:image/png,iVBORw0KGgoAAAANSUhEUgAAAGoAAABOCAYAAADIHIO3AAAPNUlEQVR4nO1de1BTxxcOoICAogKiIFLBR4ZHgfqAoqioRQahilKwigqUsVgQLWgzasRxqHYcFUZhRJSCQEWwWEBEtKDUtpSCKKjVqghVaylRMIlEkFe+3x8O+bG5CUkwF5MO38zOyM3uOWfPd+/u3rNnrwwMQS3AeNcGDEE+DBGlJhgiSk0wRJSaYIgoNcEQUWoCtSeqtbUVNTU1KCoqQmFhIa5duwYej/euzVI61JaosrIyrFu3Dubm5mAwGESZMGECAgMDcfXq1XdtptKgdkTdu3cPy5cvp5AjrQQGBuL58+cD0vXo0SOcO3cOx48fR0pKCq5cuYIXL14ouUfyQa2IOn36NAwNDeUmqbdMnz4de/bsAZvNRkxMDA4dOoTMzExcvXoVf//9N0XPhQsX4OnpiREjRlBkmZqaIjw8HI8ePRrUvqsNUampqRJJcHJywt69e5GWlobPP/8cI0eOVIhEPT09ODo6YtOmTcjPz0dQUJBc7YyMjHDmzJlB679aEFVdXQ1NTU3KU1JcXAwOh4PvvvsOHh4eA3ra3racOnVqUHygFkTNmzePcM7q1avR1NSEY8eOwcLCQm6namlpKUSClpYWtm7dips3b6KkpARsNhsTJkwg6mhra+OPP/6g3QcqT1RtbS3hGDc3NxQXF2PGjBlSHWxqaooVK1YgPj4excXFqKmpwe3bt3H//n3cuXMHlZWVyM/Px+HDhxEaGopZs2ZBV1eXIkdDQwNTpkxBSkqKyJ6mpiYsWrSIqOfp6Um7H1SeqKSkJMIptra2GDZsGMWpI0aMQEBAAPLz88Hj8dDd3Y1t27YhKCgI9fX1MvU0NDQgMTFR6g3g4eGBJ0+eAAAEAgGmTp1K/E73U6XyRO3evbvf4UlbWxsRERF48OAB0c7Pz09Ux97eXiGdZ86cgZ2dHUWXubk5fvnlFwBAeno68Vt8fLzS+iwJKk9UfHy8VJK8vb1x8+ZNSptdu3ZR6l65ckUhve3t7WCz2dDQ0CDk6Orq4scff0RnZycxXIaFhSmryxKh8kSdO3eO4vRhw4Zh7969RD2hUIjKykqsXLlSIqlmZmaip0ERlJSUUKIfOjo6SE9Px8SJE0XXQkJClNVliVBpong8Hj744AOK0zU1NTFlyhS4ublhxYoV8Pb2hq2trVyruMjISMowKQsNDQ1wdHSkyBs+fLjo39u3b6fJC2+g0kR5e3srtJwWL2vWrMGkSZMo13V0dODr64vs7Gy5w0svXryAs7OzVF2FhYW0+kJliTp48CDhiJEjR8LFxUUugqZOnYrMzEwAwJ9//gknJyepdY2MjODr64tjx47h/v37/drU0tICGxsbiowpU6bg1atXtPpDJYm6d+8etLW1CWd8//33AIDKykrs2bMHXl5esLW1haWlJSZPnowZM2YgKCgI2dnZaGtrI+S9fv0a+/bto7ysShrKZs+ejV27dqG8vBxdXV0U2+rq6jB69GiiHd3DHqCiRHl6ehKOiIiIkFq3vb0dHR0dcsltbm7GkSNH5H4ymUwmtm7diqqqKkJOXl4eUW/y5Mngcrlv1WdZUDmiSktLCSdYWVlRnhBloKamBrGxsZg7d67EqIR4cXNzQ2ZmJjo7OwEAYWFhxO8xMTFKt7EvVI4od3d3wgE//PAD7Trr6+uRkpICPz8/mJqa9kuYnZ0dsrKy0NXVhWnTpomujx07lta9KpUi6saNG4RTZs+ePeg2cLlcFBUVISwsDJaWllIJW7VqFdhsNrFET0hIoM0ulSIqMjKScMZg7vdIgkAgQH5+PpYvXy4x8j5y5EiCqBkzZtBmi8oQ1dHRgffee0/U6YkTJ6K9vV1qfYFAgIaGhkGzr7a2FmvWrOl3WNTQ0KAtOKsyRFVWVhKd/uKLL6TW5fF4cHR0hI6ODlxdXZGamipxKS0LFRUViIyMxMqVK3Hnzh252pSWlmL69OlSyYqLi1PYDnmgMkTFxcXJ/abP4XBgYGBA1HdycsLFixfl0lVdXY2PP/6YaK9IrK6lpYWyJ9Vbli9fLrccRaAyRPUdVvT09NDY2Ci1rkAgQHh4ODE/9Jbo6Gj09PRIbRsTE0PZzzIzM0N5eblC9ra1tWHmzJkU/dbW1gN6umVBZYjq22lbW9t+63p5efU7V4SGhlLa8Pl8LF26VGJ9ExMTLFu2TGJGUn948OAB9PT0CFm6uroKy5EHKkFUe3s7sWWwdOnSfuu7ubn1S9SoUaMod/WJEydkvtT2xgcVwebNmylyrl27prAcWVAJojgcDpFBJGu+4HA4yM7ORnFxMYqKinDy5Ens2LEDixYtgomJCSIiIiAUCok2OTk5IvmGhoZwcHDA0qVLERAQAE9PT6xduxbNzc0K215bW0vJkJJ3rlQEKkHUkydPiDDOli1bBixLWnSgp6cH2dnZKCoqwuvXrwcsXxzd3d2wtramPZqiEkQ9fvwYOjo6oo5GRUXRpovP56OsrAyZmZlITU1FQUEBbt269VYyPTw8CKJyc3OVZO3/oRJENTY2Ql9fX9RROvIP8vLysHjxYolpygzGm6DrQE+BrFq1Su5Xi4FCJYji8/lEMNTPz09psl+9eoXVq1fLXEgwGAzU1dUNSIc4UQPJzZAFlSBKKBQSOQ8DDcYKBALi746ODko03sfHB4mJibhw4QIuXryIb7/9FlFRUUhLSxuw/X33z7S0tBTOyZAHKkEUAPj4+Ig6a2xsjJcvX8rdNiEhAXZ2djAzM4OzszO2b9+OsrIybNy4USRz2rRp+PXXX2mxvW8O4Pjx4yk3jDKgMkSx2Wzizv/tt9/kapecnCxzSLOwsMDTp09psfvZs2fECZJ58+bRokdliCoqKiKc+/XXX8ts09XVJQqQjh07Fl5eXhL3kAoKCmiz+8qVK4QuFotFix5aiWpvb0dzczM4HA64XK5oG1sSuFwukTQyc+ZMmfJfvnwJIyMjMBgMfPTRRwDezHc//fST6AVaVjjqbREVFUUQVVJSQosepRNVXV2NnTt3Yv78+Zg0aRLGjBkDQ0NDGBkZwcrKCq6urggMDERsbCzOnj2L27dvg8/nAwDWr19PdLq2thbAm5fKhw8fUpJYhEKhKJzUm0G0YMECuLu7iwK24eHhyu6iCG1tbUQWrZmZGS35HYASifrrr7/wySefyLUMFi+mpqZwcXGBvb09cd3Z2RmBgYFgMpkYPnw4HBwc8O+//xJ6ExIS+pW9f/9+ZXWRgrS0NEJXZGQkbbqUQlRtbS3GjRs3IJIULfv27RPpFQqFWLJkCRiMN7ur1tbWeP/992FraytK7t+zZ48yukiBeHILnbu7gJKIEh+ne4umpia8vLzAYrGwdu1aLF68GEwmE6NGjRowUQsXLhTpbW1thbGxMXFdKBTi8uXLopCUr6+vMrpIwaFDhwi76Now7IVSiCooKJDqWDs7O+Tl5Ynq9vT0oKmpCb///jvS09PBYrGwbNkyODg4YNy4cUSIR0tLC8bGxsSej4mJiegdq7OzUxQQHT9+PEJCQuDk5ERk2Y4aNQpNTU3K6KYI9fX1xA6zpqamaD6lC0qbo0pKShAQEEDZSOst/v7+okWDNPD5fDx+/Bh3797FrVu3cP/+fbx48QLbtm0jhpjbt2+L2hw4cEDmUxgQEKCsbqKnpweurq6E/P7yO5QFpa/6GhsbwWazKfnZDMabvAbxxYA8yMjIIOQUFxcTv+/evRsTJ06EgYEBpk2bhpCQEGRkZBBhqeDg4AHtN4ljw4YNhC0WFhYyb0BlQClE8fl8cDgcNDY24tmzZwCAf/75R+I3GxwdHRUKDwFAcXExIUPSJwNaW1vx9OlTYmf3+vXrRNTAzMwMEREROHXqFC5fvozS0lKkp6fjq6++QmJiIrq7u/u1Y+fOnZT+KHqScaB4a6Li4uIwfvx4GBoaQl9fH9ra2rC1tRVt4J0+fZoyHH766acK6SgrKyPaZ2RkyN22oqKCcjBaWukvFth3+O0tBw8eVKgfb4O3JkraKfLq6mpRnatXr1LIunTpktw6xA8OODg4EPOULPB4PMTGxvabj2dvby8xKYXP5yMgIIBSf/PmzXLrVwbemqiKigqsW7cOa9asQWhoKCIiIiTe8eKnyBcsWCC3jtzcXIqjDAwMcPToUYVs7erqwo0bN5CTk4OjR48iOTkZubm5uH79usSjOyUlJWAymRTddB+slgTaYn29c1VfzJ07l1h6P3z4UC5Z4qcP+5b58+crfZ64d++e1G8iDcahNUlQKlHPnz/HiRMn4ObmhtGjR1OiAuIhF3nnmsDAQJnzy5IlS5Cbm4vW1tYB2S4UCvHzzz8jODhY4nkpAwMDpKamDki2MqA0oo4cOQITExOicy4uLkSdO3fuEKlVO3bskCm3q6sLVlZWojZMJpOyRBZfLq9fvx4nT57EzZs3weVyKaljwJst+rq6OuTn52PLli0SPwDS96lVZE6kA0ojqu/5WH19ffj7+1NiX01NTcRyecOGDTLllpeXS5wfLl26hA8//FDmk2ZsbAwbGxvMmTMH7u7umDdvHhwdHWFubi7xUz19y6RJk5CUlKQsF70VlEZUVlYWPD09sX//fuKjg1VVVUhOToZAIACPx8OYMWNEjpAnMV98rhDP8MnJyZGZOatoYTKZOHjwIO3nchUBrRuHBw4cEN21LBYLnZ2dxBO1cePGftvX1dUR+X4WFhZSz0xVVFQgOjoa9vb2lMxVeYqlpSWCgoJw/vz5fjc43xVoIYrD4VCOtSQlJYHL5RIB061bt/Yrp3cLo7d88803MnULhULcvXsXWVlZYLFY8PPzw5w5c+Dg4AAbGxvY29vD2dkZPj4+2LRpE5KTk1FVVdXvoTlVAC1E9X2LNzAwwPHjxwG8Of3Q94jl7t27pcoQ//CUubm5wqEncUhaVKgLaCGqsLAQxsbGcHV1JVZL4qnLn332GaVtW1sboqOjKUPT2bNn6TBVbUDbHNXS0kK51tHRQXybSFtbG/7+/khKSkJWVhZiYmIkhnm+/PJLusxUGwx6uhiLxVJokg8ODh5sE1USg06UQCDAwoULZRI0fPhwxMbGDrZ5Kot3koDZ3d2Nw4cPY9asWcScxWC82VIPDg5GTU3NuzBNZfHOM2UbGhpw+fJlnD9/HlVVVf/J/wBFGXjnRA1BPgwRpSYYIkpNMESUmmCIKDXBEFFqgiGi1ARDRKkJhohSE/wPt2SIZ5rqtVoAAAAASUVORK5CYII=;" vertex="1" parent="1">
          <mxGeometry x="257.18" y="1048" width="62.52" height="46" as="geometry" />
        </mxCell>
        <mxCell id="X8rtFN3A78l9VNLj1SrO-76" style="edgeStyle=orthogonalEdgeStyle;rounded=1;orthogonalLoop=1;jettySize=auto;html=1;exitX=0.5;exitY=1;exitDx=0;exitDy=0;strokeWidth=4;" edge="1" parent="1" source="X8rtFN3A78l9VNLj1SrO-65" target="X8rtFN3A78l9VNLj1SrO-62">
          <mxGeometry relative="1" as="geometry" />
        </mxCell>
        <mxCell id="X8rtFN3A78l9VNLj1SrO-83" value="1" style="ellipse;whiteSpace=wrap;html=1;aspect=fixed;fillColor=#dae8fc;strokeColor=#6c8ebf;" vertex="1" parent="1">
          <mxGeometry x="550" y="610" width="30" height="30" as="geometry" />
        </mxCell>
        <mxCell id="X8rtFN3A78l9VNLj1SrO-15" value="" style="shape=image;verticalLabelPosition=bottom;labelBackgroundColor=default;verticalAlign=top;aspect=fixed;imageAspect=0;image=data:image/png,iVBORw0KGgoAAAANSUhEUgAAACQAAAA0CAYAAADi1poDAAAB/UlEQVRYhe3YuarqYBQF4DyBjyBEI4KVra2IiDgEwcpgZZlOVMRWVJwlBFL6CnbiGwhiJ3ZC4oBo6RQVXLfKbY5m4EbuKf4Nqwmu5DP7r0Lhlw317uLxeMThcPhqVFU1Bu12OwQCAdA0DZfL9bXQNA2GYTCZTPRB3W4Xfr8fsixDURTIsvw2iqJgv99//Pfr9fpjV+vzPI9wOKwPajQaYFnWcM/aWjebzY9st1tTfUEQEIlE9EHNZhOxWMzwZvf7HaFQ6O06GIbBfD43vEen00E0GrUHpKHO5/OPXC4XU33LoNvt9vaBWlRVxePxeJvL5fKxp4FNgxKJBAAglUrB7XbbHp/PB1VVIYqitTe0Wq2wWCxsz3K5xOv1Qq/Xs/cM/evYfqgJiIAIiIAIiIAIiIAIiIAIiIAIiIAIiIB+FajdbpsDxeNxAEChUEAymQTLsrYmnU7jfr9DEARroOFwiFqthnq9rptmswlJktDv9w1/W6/X0Wq18Hw+MRgMvrey6XSK0+lkqWN6ZVZB+XweFEXB6XTier2a7pk+1NrKzE6lUgFFUfB6vbjdbvaCqtXq36+wVmY2m+HxeFjqSJKEYDCoDxqPx3A4HMhkMuA4zlSy2Sx4nkculzPd4TgOHo8H5XJZHwQAo9EIpVLpqykWixBFEc/n0xj0v4eAjOYPcPyAuhGLJLQAAAAASUVORK5CYII=;" vertex="1" parent="1">
          <mxGeometry x="120.00000000000006" y="1048" width="29.08" height="42" as="geometry" />
        </mxCell>
        <mxCell id="X8rtFN3A78l9VNLj1SrO-90" style="edgeStyle=orthogonalEdgeStyle;rounded=1;orthogonalLoop=1;jettySize=auto;html=1;exitX=0.5;exitY=1;exitDx=0;exitDy=0;entryX=0;entryY=0.5;entryDx=0;entryDy=0;strokeWidth=4;" edge="1" parent="1" source="X8rtFN3A78l9VNLj1SrO-62" target="X8rtFN3A78l9VNLj1SrO-71">
          <mxGeometry relative="1" as="geometry" />
        </mxCell>
        <mxCell id="X8rtFN3A78l9VNLj1SrO-92" style="edgeStyle=orthogonalEdgeStyle;rounded=1;orthogonalLoop=1;jettySize=auto;html=1;exitX=0;exitY=0.5;exitDx=0;exitDy=0;strokeWidth=4;entryX=0.5;entryY=1;entryDx=0;entryDy=0;" edge="1" parent="1" source="X8rtFN3A78l9VNLj1SrO-65" target="X8rtFN3A78l9VNLj1SrO-11">
          <mxGeometry relative="1" as="geometry">
            <mxPoint x="100" y="1120" as="targetPoint" />
            <Array as="points">
              <mxPoint x="60" y="388" />
              <mxPoint x="60" y="1070" />
              <mxPoint x="958" y="1070" />
            </Array>
          </mxGeometry>
        </mxCell>
        <mxCell id="X8rtFN3A78l9VNLj1SrO-93" style="edgeStyle=orthogonalEdgeStyle;rounded=1;orthogonalLoop=1;jettySize=auto;html=1;entryX=0.5;entryY=1;entryDx=0;entryDy=0;strokeWidth=4;startArrow=none;exitX=0.25;exitY=1;exitDx=0;exitDy=0;" edge="1" parent="1" source="X8rtFN3A78l9VNLj1SrO-62" target="X8rtFN3A78l9VNLj1SrO-11">
          <mxGeometry relative="1" as="geometry">
            <mxPoint x="270" y="980" as="sourcePoint" />
            <Array as="points">
              <mxPoint x="193" y="1070" />
              <mxPoint x="958" y="1070" />
            </Array>
          </mxGeometry>
        </mxCell>
        <mxCell id="X8rtFN3A78l9VNLj1SrO-21" value="" style="shape=image;verticalLabelPosition=bottom;labelBackgroundColor=default;verticalAlign=top;aspect=fixed;imageAspect=0;image=data:image/png,iVBORw0KGgoAAAANSUhEUgAAADsAAAAwCAYAAACv4gJwAAAFdklEQVRoge2ZT0gbTRjGH4g2piQ5iVao1h6EFrTU4kWLaNP0j5W1EPHQQz00nvRWUCnFYkvQm+YYbAo9iCE1FHtxT1WKNf0jqGDtoaBV8SCYg02gWhp9esrwGTfuJrs2xc8H3svyzPvOL5mdmZ0B/0dCtjvwN3UCe1x1Antc9U/A/vz5k2/evOHIyAiXl5ePrE7WYb9+/coLFy4QAAHQbDZzaGjoSGplFTYej7OqqooAKEkSOzo6aDKZCICLi4uG18sq7NLSEgHw4sWL4tmjR48IgIODg4bXyyrsly9fCIBOp1M8GxoaIgD29fUZXi+rsGtrawdgX7x4QQD0er2G19ME++nTJ7a1tVGSJEqSxKamJkPi2rVrBMD8/Hw2NTXx7t27LC8vF0M74Xv48CFXVlaOHvbDhw/Mzc0Vs2W24uzZs9zY2Dha2JaWFgLg48eP+fHjR0MjEAgQAK9cuZLSEw6H6XK5DBnaqrB1dXUEYMgwStbq6uqBd1ZJ7969IwDev39fVz1VWIfDQQBcWFjQVUhJi4uLBMD6+vpDfd+/fycAXr58WVc9Q2F3d3d5584d3r59m7u7u6p+rbC/f/9mUVERLRYLt7a2VPOmkuH/rMViodls1uTVCkuSN2/eJADOzs5qyq0kQ2AjkQi7u7vZ1tbGvLw8ms1mut1udnd3c3NzM2W7dGA7OzsJgMPDw6reVDIEdnJyMuWSMTExkbJdOrDDw8MEwM7OTlVvKhkCG4/HOTk5ydHRUdpsNlqtVr569YoTExOMx+Mp2yVg1WZjklxeXiYA3rp1S9WbSoa/s6dOnaLJZNLkTcBeunSJsixzfHxcMWRZZjAYZE5ODouLizXlVpLhsP39/Zo38QnYdOPly5ea8ifrn1hni4qK6Ha7+eDBg5Thdrt57949ATwyMpJ2Pc2w6+vrGQEdpgTsjRs3NLfx+/0COBgMplVPFdbpdBIAOzo6+OzZM13x9OlTBoNB7u3t7YPVMhunAh4dHTUONrGYGxnRaFQXLEk+f/5c5Hv9+rUxsNevXycAPnnyhD6fT3e8fftW5NYD+19gk8nE9+/f64f9G+9sprAkOTAwQABsbm5W9f4Ts7Ee2MShXV1dnapXF+z09DTb29vpcDjocrno9/sP3TEl6zDYeDxOv99Pl8tFh8PB9vZ2Tk9PH/AtLCwQAB0Oh2q9jGE9Ho/i5FNTU8NIJKJamEwNG4lEePXqVcX8Ho9nn9dQ2Pr6egLg0tKSeDY2NkYAzMvLo9fr5fz8PGVZZk1NDQGwsbFRE+y3b98UO9rY2Ch+OFmWOT8/T6/XS4vFQgAcGxsT3sQw1vIqqMI2NDSIT6toNMpoNCpO8UOh0D7v9vY2y8rKCIBTU1OMxWKiTXLEYjF+/vyZAFhbW8tYLMZYLMapqSkCYFlZGbe3t/flD4VCBMCqqiqRJ/E11NDQoB82GAyKIWSz2Wiz2QiApaWliv7e3l4CYG5uLu12u2iTHHa7nadPnxa57XY77Xa7OMns7e1VzF9aWnqgL1p3U5rOjX0+HysqKlhQUMCCggICYElJiaK3p6eHAGi1WllYWHhonDlzhufOnWNxcbF4ZrVaxbqupJKSEgIQfamoqKDP59OCkd6NwM7ODnd2dlhdXa14avDjxw/xy8/MzPDXr19px8zMDAHw/PnzYqeVUGLIVldXi76ko4yuP8bHx8XOxePxMBwOMxQKsbKyUvMCf5iam5sJgJWVlQyFQgyHw/R4POKGT5bljPJmfNeT2Lkkh9Pp1HUCSJJbW1viAyQ5BgYGMs6r62Jrbm6OXV1dlCSJra2tDAQCetIdUCAQYGtrKyVJYldXF+fm5nTly/rN+9/UCexx1QnscdUJ7HHVHxtxOAI31OV9AAAAAElFTkSuQmCC;" vertex="1" parent="1">
          <mxGeometry x="167" y="830" width="59" height="48" as="geometry" />
        </mxCell>
        <mxCell id="X8rtFN3A78l9VNLj1SrO-19" value="" style="shape=image;verticalLabelPosition=bottom;labelBackgroundColor=default;verticalAlign=top;aspect=fixed;imageAspect=0;image=data:image/png,iVBORw0KGgoAAAANSUhEUgAAAHMAAAArCAYAAABLnrd8AAAE4klEQVR4nO2aP0gCfRjHzygywShqCnGsqaQwi6ClsqEzMUJqE1qCloIIOucgw9IgakhxiajAqc0xGtQCsatBIyipFvuDBKVE9X2Hl37Ye2ea52XvcR94lud3z3OPv08cvzMpyEgGqtwDyJQOWaaEkGVKCFmmhJBlSghZpoSQZUoIWaaEkGVKCFmmhJBlSghBMj8+PuB2uzE8PAyapmEymWAymUDTNGiaxvT0NJ6ennhrw+EwrFbrl7pSBU3TMJvN2Nra+nLPra0tmM3mnPcsZO6/jCCZZ2dnoCjq2/B4PLy1PT09eWtLEff39wCA+/v7H9V5vV4hW1MWBMkMhUJ5N2V5eZm3tqOjQ3SRg4ODyGQyAIBMJgOj0Vhw7crKipCtKQuCZB4dHZEP39fXB5ZlwbIs5ubmSN7tdvPWdnZ2gqIoKJVKBAIBnJycIBqNIhqNgmVZbG9vc3p/rhcSLMvi7e3tyz3f3t5y9vnv3E1NTdDpdNDpdGhra4NOp8PMzAxeX1+FbJmolEym1Wol+Y2NjYJlqlQqPD4+ctazH+HZvcUke+5cEY1Gf2WWYiiZzJGREZJ3u90Fy6ypqcH19XXBvcUke+6amhrU19ejrq4OVVVVJB8KhX5llmKQZWaRPffCwgLu7u5wd3cHmqZJ/ujo6FdmKQbRZa6vr/PWdnV1kcfsw8MDZ/309LSsMtfW1kh+dHSU5E9PT39llmIQXSbDMIjH44jFYojFYojH44jH42htbSUHoIODA841fr8/p8xkMolkMsmZJ5FIkNNrNldXV5xcJpNBIpH4ksv1RBkZGSF5v9//ZdZSRDweL8nBSnSZCoUCFRUVnFAoFOQavvWKigre3pFIBI2NjWhsbEQkEiF5n88HpVIJvV6PVCpF8pOTk6iursbk5CTJpVIp6PV6KJVK+Hw+3rlzycw1q9Do7OzkPQj+BNFlliKyezudTpJ3Op0kPzQ0RPLhcBgAkE6n0dDQAIqi0NDQgHQ6DeDfb58+rx0aGuKdO5dMMYNlWSE6xJfZ0tICo9HIidraWvKX3tvby1k3GAy8vV0uF8m7XC6St1gsHJkvLy/QaDSgKAoajQYvLy8Avsq0WCy8c+eSaTAYeD9PsTEwMACj0YjFxUW8v78L0SG+zI2NDd7a7u5ucgDK955ZyEk5e8M/T5y5ZP70FJ7d++zsrMjdEh/RZa6urvLWZr+a3NzccNaPj4/LKnNzc5Pkx8bGSP74+LjI3RKf/9175m/JHBsbg9frhdfrRXt7O6f3X0SW+cODWzAYFLJlolIymePj4yTv8XgKlqlSqfD8/MxZPz8/z9s7+99r4+PjJH9+fk7yWq0WFEVBq9X+qDdfVFZW4vLysqi9+g1KJrO5uRkMw8But6O/v79gmZWVlZiamgLDMJifn8f8/DwYhoHNZsvbu7+/H3a7HQzDoLm5meRtNhvsdjtmZ2ehVqtBURTUajVmZ2dht9sL6m0ymeBwOOBwOLC4uAiHw4HDw0Mh2yU6gmQGg8G8j6WlpSXe2ra2try15YxcX0P+ZQTJvL29JS/luSIQCPDWTkxMlF1YMXP/ZQT/oOvi4gJ7e3vY3d3lxHeHhXQ6jf39fezs7PDWljP+8iHnO+Rf50kIWaaEkGVKCFmmhJBlSghZpoSQZUoIWaaEkGVKCFmmhPgHrLCKift2fC0AAAAASUVORK5CYII=;" vertex="1" parent="1">
          <mxGeometry x="152.37" y="920" width="88.26" height="33" as="geometry" />
        </mxCell>
        <mxCell id="X8rtFN3A78l9VNLj1SrO-20" value="" style="shape=image;verticalLabelPosition=bottom;labelBackgroundColor=default;verticalAlign=top;aspect=fixed;imageAspect=0;image=data:image/png,iVBORw0KGgoAAAANSUhEUgAAAFMAAAA8CAYAAAAaEIaPAAAKxElEQVR4nO2be0zV5R/HP6eGgMjlcG2rxEhqGEYUXSDBzBaXVZZ2nbXUmkVLanPU0g3BVQ6z5sJstYBpCxSKROQqYoh0URmtkJieFATtWIBHQLmovX5/sPOl4zkcLt8vv0ON9/ZsjO/zfM7neT3f8/0+n8/zOcKUNJM42oH/kqZgaqgpmBpqCqaG+tfAPHPmDN999x0FBQXs378fg8HA5cuXHe2WhSYtzI6ODnJzc1m5ciVhYWFMmzYNEVGaTqcjODiYFStWUFpa6mh3gUkIs6Ojg3feeQd/f38LeM7Ozlx//fXMmjULHx8fi2siwp133snOnTsd6vukgllYWMjMmTMVQKGhoaSlpVFTU4PRaKS3t5eBgQFMJhNHjx4lOzubRYsWce211ypjFi1axJkzZxzi/6SB+eGHHypAZs+eTW5uLleuXBnV2IaGBpYtW6aMDwwMpL6+foI9ttakgJmRkaGAWLp0KSaTaVx2KisrCQwMRETw9vamoaFBY0/ty+Ewa2trFZBvvPGGanutra3cdtttiAhBQUHjXpjxyKEwBwYGmDNnDiLC448/brevyWTihx9+4KuvviIlJYWkpCR++eUXm31bW1sJCAhARFi2bNlEuG5TDoW5bds2RAQ/Pz86OjqG7dfc3MyNN95o9QZ/+OGHhx2zZ88epd+hQ4cmwn0rORTmvffei4iQnp5ut9+3335rBVJEuOuuu+yOS0hIQER48skntXR7WDkM5okTJ9DpdLi4uPDHH3/Y7VtRUWET5t133213XFVVFSKCq6srZ8+e1dJ9m3IYzLy8PESEyMhIu/1OnDjB2rVrbcJ0dXUlKiqKFStWUFtbazX20qVLyuMhPz9/oqaiyGEwN2zYgIiwfPlyq2ttbW0kJycTERGBs7OzTZBXN09PT9rb261sPfPMM4gIycnJEz4nh8Fcs2YNIsKqVausrj377LOjAnh1rG4wGKxsrVu3DhFhyZIlEz4nh8FMS0sbduuyYMGCMcP08PCw+VzcvHnziG9+reQwmJmZmYgI8+bNs7oWGxs7Zph+fn709PRY2TI/Th555JEJn5PDYB45cgQRwd3dnc7OTotrTzzxxJhhzp07l7///tvqc1auXImI8Oqrr074nBwGs7+/X8kQXZ0627hx46gAurq6kpCQwNtvvz1sNGSOsDIzMyd8Tg7dtL/11luICFFRURb/HxgYIDU1lYULFxISEsKMGTNswgwNDbVr/8cff0REcHJyorW1dSKnAjgY5qlTp3BxcUFEyMnJGbbfjh07bMIMCQmxa98cAT311FNau25TmsBsb2/n9OnT4xpr3rro9XqbWxuAlpYWmzAXLFgwrN0vv/wSEeGaa675v6XiVMM0mUwEBgbi5ubGkiVLOH/+/JjGDwwMEBERgYhwyy230NLSYrPf7t27SU5OZtWqVSQlJZGWlsbx48dt9j1w4IByx6ekpIx5TuOVapgGg8HqbhnrqWFLSws33HADIsLMmTOprq4etz+7du3Czc0NESEuLm7cdsYj1TAPHz6MiDB9+nQF6Pr168dsp6mpieDgYMXG6tWrR0yA/FNGo5GkpCRlfExMDN3d3WP2Q41Uw6ysrFTSXFu2bEFEcHNzw2g0jtnWn3/+yeLFixUger2exMREKioqbMbdJpOJ6upq3nzzTXx9fZVxy5cvp6+vT+3UxizVMIuLixERHnvsMQDCw8MRET7++ONx29y5c6dix9zc3d0JDQ0lOjqamJgYwsLC0Ov1Fn3Cw8MpKChQO6VxSzXMkpISRITY2FgA3n33Xc3Ct5KSEl566SWLr//VLSgoiBdffJGioiKbEdBIys7OZt26dfT29qr2VzOY5kSCOSHr7e1NZmYmWVlZfP7553z22WdkZWWRl5dHZWUlDQ0NVmHkcLpy5QonT56ktraW4uJiiouLqampwWAwMDAwMC6/m5qaiI6OVhalqqpqXHb+Kc1gPvTQQwD8/vvvFkUB9pqbmxvh4eG88sorFBUVqZ7MaHX48GGrqpDdu3ertqsaZmlpKSLCwoULgcHErnmPFxISQlRUFPPnzyc2NpaEhATi4uKIiYkhNDTU6pmXmJioekIjyWg0ct111ymZJnMN0759+1TbVg2zrKzMIhppbm5W7sy6ujq7Y7u7u/n1119JTU1Fp9MhIpw6dUqtS3b13HPPISKEhYVRX1+vLHxjY6Nq25rBfOCBBwA4fvy4cqeN5Yg1Pj4eEeGnn35S69KwamxstAgxz58/j8hgYnm0z297Ug2zvLxc2STDYN2PGebRo0dHbScmJgYR4eeff1br0rAyZ/fj4+OBoazSzTffPOq6JntSDdN8DBsdHQ0MRUQiwqZNm9i1axc7duxg+/btfPHFF2zdupXNmzeTnp7O+vXrWbNmjUUyODIykvj4eJstLi5u3C0+Ph4/Pz9EhE8//RQY3M+KjHxkPFqphrl3715EhPvvvx+AmpqaUWfHHdVKSkqAoco788tTrVTD3Ldvn3JHwdDXXmQwKevj40NgYCBz5swhIiKC+fPnExcXx+LFi1m6dCkvv/wyr7/+OqtXr2bt2rWkpaWxYcMGPvroIzIyMpT96fbt28nJySEvL4+CggIKCwvZs2cPJSUllJWVUVFRYdVKS0spKirim2++ITs7Wwk5y8rKAHj//fc1CzBAA5jmTfp9990HDGZtRISAgACampo4d+4c/f39qh3VQrNnz0ZEKC8vB+CDDz5ARLtjYNUw9+/fj4hwzz33AJCbm4uIcOutt6p2TktdunSJm266CRFh7969AGzatAkR4emnn9bkM1TDrK6uRkSIiIgAICsrS0k6TCb9K2AeOHAAkaGKtK1bt1q83SeLbME0n4JqVSWnGubBgwct7kRzBcWjjz6q2jmtFRQUZAEzPT0dkZELbUcr1TC///57RIQ77rgDsFzt7u5uurq6JkXr7OxU6t0rKiqAIZiT5m1+6NAhRITbb78dgPfeew+RwQKBgIAA/P398fPzw9fXF19fX3x8fPD29sbb2xu9Xo+XlxdeXl54enri6emJh4eH0tzd3Uds/+xvtuHl5YVer8fb2xsfHx/ls805A/PWyAzTnItVK9Uw6+vrERkqCEhNTR315lmn0+Hk5ISLiwvTp0/H3d0dT09PCxB+fn74+/vj7+9PQECA1QKZF8XDw4MZM2bg6urKtGnTlMSJvU27GeaDDz6oFgOgAUxzLG4uCDAXps6bN49PPvmE/Px8ysvLqa2tpa6ujoaGBo4dO0ZzczNtbW0YjUb++usvOjo6MJlMdHV10dPTw4ULF7h48SK9vb309fXR19dHf3+/8ndvby8XL17kwoUL9PT00NXVxblz52hvb8doNNLW1sbJkydpbGykrq6OqqoqIiMjEREKCwuBIZjmvIJaqYZ57NgxRITg4GAAUlJSEBE2btyo2jmt9dprryEiZGRkAEObdnMorFaqYZ4+fRqdToezszM5OTkkJiYiMnLRvyNkrh55/vnngaGXpfl5r1aqYV6+fNnqJFFE2LJlixb+aaqvv/5ayV/GxMQoP3adO3euJvY1qTUyGAy88MILinM6nY4jR45oYVpTdXZ2MmvWLItFd3Jysls0NhZpWgVnMpk4ePCgQ34EOlqdPXuWgoICtm3bRn5+Pr/99ptmth3+28n/kqZgaqgpmBpqCqaGmoKpof4HcGxaPY3zxHcAAAAASUVORK5CYII=;" vertex="1" parent="1">
          <mxGeometry x="160" y="970" width="60.87" height="44" as="geometry" />
        </mxCell>
      </root>
    </mxGraphModel>
  </diagram>
</mxfile>
